<?xml version="1.0" standalone="no"?>
<!DOCTYPE svg PUBLIC "-//W3C//DTD SVG 1.1//EN" "http://www.w3.org/Graphics/SVG/1.1/DTD/svg11.dtd" >
<svg xmlns="http://www.w3.org/2000/svg" xmlns:xlink="http://www.w3.org/1999/xlink" version="1.1">
<metadata>
Created by FontForge 20150824 at Sat Jul  9 08:04:10 2016
 By Everything Fonts
Copyright (c) 2003 - 2012 Linotype GmbH, www.linotype.com. All rights reserved. This font software may not be reproduced, modified, disclosed or transferred without the express written approval of Linotype GmbH. Avenir is a trademark of Linotype GmbH registered in the U.S. Patent and Trademark Office and may be registered in certain other jurisdictions. This typeface is original artwork of Adrian Frutiger and Akira Kobayashi. The design may be protected in certain jurisdictions.
</metadata>
<defs>
<font id="AvenirNextW1GRegular" horiz-adv-x="240" >
  <font-face 
    font-family="AvenirNextW1GRegular"
    font-weight="400"
    font-stretch="normal"
    units-per-em="1000"
    panose-1="2 11 5 3 2 2 2 2 2 4"
    ascent="756"
    descent="-244"
    x-height="468"
    cap-height="708"
    bbox="-205 -250 1036 945"
    underline-thickness="50"
    underline-position="-150"
    unicode-range="U+000D-FB04"
  />
<missing-glyph horiz-adv-x="512" 
d="M278 117h-56v67h56v-67zM271 234h-46l-2 17q0 56 13 81q15 28 46 59q31 29 40.5 46t9.5 37q0 36 -22.5 60.5t-53.5 24.5q-71 0 -82 -95l-50 8q7 69 43 103t92 34q54 0 89 -36t35 -95q0 -34 -13 -60t-50 -60q-37 -33 -43 -52q-6 -20 -6 -72zM50 50h412v617h-412v-617z
M0 718h512v-718h-512v718z" />
    <glyph glyph-name="napostrophe" unicode="&#x22;n" horiz-adv-x="581" 
d="M86 468h65q4 -50 4 -80h2q19 40 64.5 66t95.5 26q87 0 132.5 -52t45.5 -141v-287h-68v259q0 79 -28.5 121.5t-98.5 42.5q-59 0 -100.5 -47.5t-41.5 -135.5v-240h-68v365q0 60 -4 103zM106 756l-76 -185h-57l62 185h71z" />
    <glyph glyph-name="f_f" unicode="ff" horiz-adv-x="572" 
d="M565 468v-57h-110v-411h-68v411h-209v-411h-68v411h-98v57h98v128q0 81 40 126.5t119 45.5q32 0 56 -7l-12 -60q-24 7 -47 7q-51 0 -69.5 -31t-18.5 -89v-120h209v128q0 81 40 126.5t119 45.5q32 0 56 -7l-12 -60q-24 7 -47 7q-51 0 -69.5 -31t-18.5 -89v-120h110z" />
    <glyph glyph-name="fi" unicode="fi" horiz-adv-x="544" 
d="M452 468v-468h-68v468h68zM467 648q0 -20 -14.5 -34t-33.5 -14t-33.5 14t-14.5 34t14.5 34t33.5 14t33.5 -14t14.5 -34zM288 468v-57h-110v-411h-68v411h-98v57h98v128q0 81 40 126.5t119 45.5q32 0 56 -7l-12 -60q-24 7 -47 7q-51 0 -69.5 -31t-18.5 -89v-120h110z" />
    <glyph glyph-name="fl" unicode="fl" horiz-adv-x="544" 
d="M452 756v-756h-68v756h68zM288 468v-57h-110v-411h-68v411h-98v57h98v128q0 81 40 126.5t119 45.5q32 0 56 -7l-12 -60q-24 7 -47 7q-51 0 -69.5 -31t-18.5 -89v-120h110z" />
    <glyph glyph-name="f_f_i" unicode="ffi" horiz-adv-x="821" 
d="M565 468v-57h-110v-411h-68v411h-209v-411h-68v411h-98v57h98v128q0 81 40 126.5t119 45.5q32 0 56 -7l-12 -60q-24 7 -47 7q-51 0 -69.5 -31t-18.5 -89v-120h209v128q0 81 40 126.5t119 45.5q32 0 56 -7l-12 -60q-24 7 -47 7q-51 0 -69.5 -31t-18.5 -89v-120h110z
M730 468v-468h-68v468h68zM744 648q0 -20 -14.5 -34t-33.5 -14t-33.5 14t-14.5 34t14.5 34t33.5 14t33.5 -14t14.5 -34z" />
    <glyph glyph-name="f_f_l" unicode="ffl" horiz-adv-x="821" 
d="M729 756v-756h-68v756h68zM565 468v-57h-110v-411h-68v411h-209v-411h-68v411h-98v57h98v128q0 81 40 126.5t119 45.5q32 0 56 -7l-12 -60q-24 7 -47 7q-51 0 -69.5 -31t-18.5 -89v-120h209v128q0 81 40 126.5t119 45.5q32 0 56 -7l-12 -60q-24 7 -47 7q-51 0 -69.5 -31
t-18.5 -89v-120h110z" />
    <glyph glyph-name=".notdef" horiz-adv-x="512" 
d="M278 117h-56v67h56v-67zM271 234h-46l-2 17q0 56 13 81q15 28 46 59q31 29 40.5 46t9.5 37q0 36 -22.5 60.5t-53.5 24.5q-71 0 -82 -95l-50 8q7 69 43 103t92 34q54 0 89 -36t35 -95q0 -34 -13 -60t-50 -60q-37 -33 -43 -52q-6 -20 -6 -72zM50 50h412v617h-412v-617z
M0 718h512v-718h-512v718z" />
    <glyph glyph-name=".null" horiz-adv-x="500" 
 />
    <glyph glyph-name=".null" horiz-adv-x="500" 
 />
    <glyph glyph-name="nonmarkingreturn" horiz-adv-x="333" 
 />
    <glyph glyph-name="CR" unicode="&#xd;" horiz-adv-x="0" 
 />
    <glyph glyph-name="space" unicode=" " horiz-adv-x="250" 
 />
    <glyph glyph-name="exclam" unicode="!" horiz-adv-x="328" 
d="M200 708v-516h-72v516h72zM218 48q0 -22 -15.5 -38t-38.5 -16t-38.5 16t-15.5 38t15.5 38t38.5 16t38.5 -16t15.5 -38z" />
    <glyph glyph-name="quotedbl" unicode="&#x22;" horiz-adv-x="405" 
d="M100 473v235h60v-235h-60zM245 473v235h60v-235h-60z" />
    <glyph glyph-name="numbersign" unicode="#" horiz-adv-x="556" 
d="M107 0l30 214h-102v60h110l22 162h-108v60h117l29 212h61l-29 -212h133l29 212h61l-29 -212h90v-60h-99l-22 -162h95v-60h-103l-30 -214h-61l30 214h-133l-30 -214h-61zM228 436l-22 -162h133l22 162h-133z" />
    <glyph glyph-name="dollar" unicode="$" horiz-adv-x="580" 
d="M263 406v258q-53 -2 -88.5 -37.5t-35.5 -90.5q0 -96 124 -130zM311 321v-275q52 2 91.5 35t39.5 101q0 49 -35.5 84.5t-95.5 54.5zM263 46v287q-40 12 -69.5 26t-60 36.5t-47 56.5t-16.5 78q0 84 55.5 135t137.5 55v72h48v-72q51 -2 102 -22.5t83 -58.5l-55 -42
q-46 65 -130 67v-275q45 -16 75.5 -30.5t62.5 -39t48.5 -60t16.5 -82.5q0 -82 -58 -134.5t-145 -54.5v-72h-48v72q-130 3 -211 106l57 40q25 -41 71 -64t83 -24z" />
    <glyph glyph-name="percent" unicode="%" horiz-adv-x="833" 
d="M390 545q0 -74 -51 -124.5t-125 -50.5t-125 50.5t-51 124.5t51 124.5t125 50.5t125 -50.5t51 -124.5zM330 545q0 49 -34 82t-82 33t-82 -33t-34 -82t34 -82t82 -33t82 33t34 82zM795 163q0 -74 -51 -124.5t-125 -50.5t-125 50.5t-51 124.5t51 124.5t125 50.5t125 -50.5
t51 -124.5zM735 163q0 49 -34 82t-82 33t-82 -33t-34 -82t34 -82t82 -33t82 33t34 82zM667 712l-450 -743l-52 27l451 743z" />
    <glyph glyph-name="ampersand" unicode="&#x26;" horiz-adv-x="704" 
d="M659 383l-130 -219l159 -164h-100l-100 105q-44 -61 -95.5 -89t-122.5 -28q-95 0 -158 52t-63 144q0 138 164 210q-86 88 -86 165t50.5 122t125.5 45q73 0 122 -43t49 -116q0 -63 -43.5 -106.5t-115.5 -79.5l165 -170l98 172h81zM404 567q0 43 -28.5 71.5t-71.5 28.5
q-47 0 -77 -30t-30 -79q0 -34 25.5 -73.5t51.5 -60.5q59 27 94.5 60.5t35.5 82.5zM440 152l-187 196q-130 -58 -130 -165q0 -59 43 -97t105 -38q56 0 95 25t74 79z" />
    <glyph glyph-name="quotesingle" unicode="'" horiz-adv-x="260" 
d="M100 473v235h60v-235h-60z" />
    <glyph glyph-name="parenleft" unicode="(" horiz-adv-x="300" 
d="M98 288q0 -112 36 -221t96 -193l-52 -33q-66 87 -106 205t-40 242t40 242t106 205l52 -33q-60 -84 -96 -193t-36 -221z" />
    <glyph glyph-name="parenright" unicode=")" horiz-adv-x="300" 
d="M202 288q0 112 -36 221t-96 193l52 33q66 -87 106 -205t40 -242t-40 -242t-106 -205l-52 33q60 84 96 193t36 221z" />
    <glyph glyph-name="asterisk" unicode="*" horiz-adv-x="444" 
d="M252 708v-143l140 45l21 -56l-141 -45l90 -121l-48 -36l-92 124l-92 -124l-48 36l90 121l-141 45l21 56l140 -45v143h60z" />
    <glyph glyph-name="plus" unicode="+" horiz-adv-x="666" 
d="M363 558v-225h225v-60h-225v-225h-60v225h-225v60h225v225h60z" />
    <glyph glyph-name="comma" unicode="," horiz-adv-x="260" 
d="M183 95l-81 -235h-57l67 235h71z" />
    <glyph glyph-name="hyphen" unicode="-" horiz-adv-x="320" 
d="M272 271v-57h-224v57h224z" />
    <glyph glyph-name="period" unicode="." horiz-adv-x="260" 
d="M184 48q0 -22 -15.5 -38t-38.5 -16t-38.5 16t-15.5 38t15.5 38t38.5 16t38.5 -16t15.5 -38z" />
    <glyph glyph-name="slash" unicode="/" horiz-adv-x="370" 
d="M365 706l-302 -724l-58 19l303 725z" />
    <glyph glyph-name="zero" unicode="0" horiz-adv-x="580" 
d="M290 726q63 0 110 -31.5t72.5 -86.5t37.5 -118.5t12 -136.5t-12 -136t-37.5 -117.5t-72.5 -86t-110 -31.5q-64 0 -111 31.5t-72.5 86t-37 117t-11.5 136.5q0 58 7 109.5t23.5 101t42.5 84.5t66.5 56.5t92.5 21.5zM290 665q-45 0 -77.5 -28t-49.5 -76t-24.5 -99t-7.5 -109
t7.5 -108.5t24.5 -98t49.5 -75t77.5 -27.5q44 0 76.5 27.5t49.5 74.5t25 98.5t8 108.5t-8 109t-25 99.5t-49.5 75.5t-76.5 28z" />
    <glyph glyph-name="one" unicode="1" horiz-adv-x="580" 
d="M358 708v-708h-72v619l-128 -109l-44 50l180 148h64z" />
    <glyph glyph-name="two" unicode="2" horiz-adv-x="580" 
d="M504 64v-64h-453v75l290 293q85 87 85 162q0 60 -40.5 97.5t-99.5 37.5q-56 0 -95 -35t-51 -91l-71 14q15 76 75 124.5t142 48.5q91 0 152 -51t61 -144q0 -62 -29 -109.5t-86 -104.5l-255 -253h375z" />
    <glyph glyph-name="three" unicode="3" horiz-adv-x="580" 
d="M214 340v62h31q74 0 119.5 31.5t45.5 98.5q0 58 -41 95.5t-99 37.5q-92 0 -135 -83l-61 32q65 112 200 112q88 0 147.5 -50.5t59.5 -139.5q0 -61 -34.5 -104t-88.5 -58v-2q63 -13 103 -60t40 -116q0 -98 -66 -156t-162 -58q-77 0 -135.5 37.5t-88.5 107.5l68 25
q18 -50 60 -79t96 -29q64 0 110 41.5t46 110.5q0 75 -53 109.5t-131 34.5h-31z" />
    <glyph glyph-name="four" unicode="4" horiz-adv-x="580" 
d="M436 708v-474h104v-63h-104v-171h-70v171h-324v70l300 467h94zM366 234v393h-2l-247 -393h249z" />
    <glyph glyph-name="five" unicode="5" horiz-adv-x="580" 
d="M475 708v-64h-295l-5 -219q44 16 98 16q100 0 165 -62t65 -160q0 -103 -65.5 -170t-169.5 -67q-148 0 -212 129l65 29q19 -44 58 -70t85 -26q72 0 119 48t47 120q0 77 -49.5 123.5t-126.5 46.5q-74 0 -147 -39l7 365h361z" />
    <glyph glyph-name="six" unicode="6" horiz-adv-x="580" 
d="M400 708l-199 -309l2 -2q34 26 101 26q93 0 154.5 -61t61.5 -157q0 -98 -65 -160.5t-165 -62.5t-165 62.5t-65 160.5q0 88 64 192l193 311h83zM132 205q0 -70 44.5 -116t113.5 -46t113.5 46t44.5 116t-43 115t-115 45t-115 -45t-43 -115z" />
    <glyph glyph-name="seven" unicode="7" horiz-adv-x="580" 
d="M498 708v-66l-285 -642h-81l293 644h-347v64h420z" />
    <glyph glyph-name="eight" unicode="8" horiz-adv-x="580" 
d="M383 375q59 -17 96.5 -68t37.5 -121q0 -90 -66.5 -147t-160.5 -57t-160.5 57t-66.5 147q0 70 37.5 120.5t96.5 68.5v2q-47 16 -77 60.5t-30 99.5q0 84 58.5 136.5t141.5 52.5t141.5 -52.5t58.5 -136.5q0 -55 -30 -99.5t-77 -60.5v-2zM160 533q0 -55 37.5 -91t92.5 -36
t92.5 36t37.5 91q0 57 -37 94.5t-93 37.5t-93 -37.5t-37 -94.5zM135 194q0 -65 43 -108t112 -43t112 43t43 108q0 64 -43 106t-112 42t-112 -42t-43 -106z" />
    <glyph glyph-name="nine" unicode="9" horiz-adv-x="580" 
d="M182 0l199 309l-2 2q-34 -26 -101 -26q-93 0 -154.5 61t-61.5 157q0 98 65 160.5t165 62.5t165 -62.5t65 -160.5q0 -88 -64 -192l-193 -311h-83zM450 503q0 70 -44.5 116t-113.5 46t-113.5 -46t-44.5 -116t43 -115t115 -45t115 45t43 115z" />
    <glyph glyph-name="colon" unicode=":" horiz-adv-x="300" 
d="M204 420q0 -22 -15.5 -38t-38.5 -16t-38.5 16t-15.5 38t15.5 38t38.5 16t38.5 -16t15.5 -38zM204 48q0 -22 -15.5 -38t-38.5 -16t-38.5 16t-15.5 38t15.5 38t38.5 16t38.5 -16t15.5 -38z" />
    <glyph glyph-name="semicolon" unicode=";" horiz-adv-x="300" 
d="M204 420q0 -22 -15.5 -38t-38.5 -16t-38.5 16t-15.5 38t15.5 38t38.5 16t38.5 -16t15.5 -38zM199 95l-81 -235h-60l67 235h74z" />
    <glyph glyph-name="less" unicode="&#x3c;" horiz-adv-x="666" 
d="M588 564v-60l-429 -201l429 -201v-60l-510 238v46z" />
    <glyph glyph-name="equal" unicode="=" horiz-adv-x="666" 
d="M78 408h510v-60h-510v60zM78 258h510v-60h-510v60z" />
    <glyph glyph-name="greater" unicode="&#x3e;" horiz-adv-x="666" 
d="M78 504v60l510 -238v-46l-510 -238v60l429 201z" />
    <glyph glyph-name="question" unicode="?" horiz-adv-x="482" 
d="M274 238v-46h-70v60q0 51 20.5 84.5t59.5 67.5l28 25q58 47 58 111q0 55 -35.5 86.5t-89.5 31.5q-52 0 -86.5 -32.5t-42.5 -84.5l-68 12q15 77 69 122t131 45q83 0 138.5 -47t55.5 -129q0 -41 -14 -73t-30 -49t-48 -43q-45 -37 -60.5 -63t-15.5 -78zM300 48
q0 -22 -15.5 -38t-38.5 -16t-38.5 16t-15.5 38t15.5 38t38.5 16t38.5 -16t15.5 -38z" />
    <glyph glyph-name="at" unicode="@" horiz-adv-x="800" 
d="M412 489q-56 0 -89.5 -52t-33.5 -116q0 -38 18.5 -70.5t61.5 -32.5q62 0 94 53.5t32 114.5q0 103 -83 103zM694 147l37 -46q-116 -119 -314 -119q-171 0 -276.5 103.5t-105.5 267.5q0 159 111.5 266t270.5 107q70 0 132.5 -20.5t112.5 -59t79.5 -101t29.5 -140.5
q0 -115 -56 -180t-138 -65q-42 0 -64.5 21t-22.5 52h-4q-12 -26 -46 -49.5t-79 -23.5q-67 0 -106 46t-39 119q0 89 55.5 156.5t143.5 67.5q37 0 65 -17t39 -43h4l10 45h62l-40 -186q-11 -50 -11 -80q0 -50 49 -50t80 51.5t31 128.5q0 126 -79.5 196t-208.5 70
q-136 0 -221 -89.5t-85 -224.5q0 -141 86.5 -224.5t227.5 -83.5q162 0 270 105z" />
    <glyph glyph-name="A" unicode="A" horiz-adv-x="700" 
d="M166 186l-77 -186h-79l306 708h70l304 -708h-80l-78 186h-366zM349 628l-156 -376h312z" />
    <glyph glyph-name="B" unicode="B" horiz-adv-x="636" 
d="M94 0v708h211q44 0 82 -8.5t72 -28t54 -56.5t20 -88q0 -56 -34.5 -97.5t-90.5 -54.5v-2q71 -8 115.5 -55t44.5 -122q0 -89 -71 -142.5t-193 -53.5h-210zM166 646v-248h145q61 0 105.5 30t44.5 94t-47 94t-123 30h-125zM166 339v-277h134q85 0 140 34t55 104q0 69 -47 104
t-135 35h-147z" />
    <glyph glyph-name="C" unicode="C" horiz-adv-x="720" 
d="M634 150l56 -36q-38 -58 -106.5 -95t-158.5 -37q-160 0 -264.5 105.5t-104.5 266.5t105 266.5t264 105.5q78 0 146.5 -30.5t105.5 -81.5l-60 -44q-25 38 -76.5 65.5t-114.5 27.5q-133 0 -213.5 -90t-80.5 -219t81 -219t213 -90q138 0 208 105z" />
    <glyph glyph-name="D" unicode="D" horiz-adv-x="757" 
d="M94 0v708h235q68 0 133 -22.5t119 -65t87 -112t33 -154.5t-33 -154.5t-87 -112t-119 -65t-133 -22.5h-235zM166 644v-580h143q77 0 138.5 24.5t99.5 66t58 92.5t20 107t-20 107t-58 92.5t-99.5 66t-138.5 24.5h-143z" />
    <glyph glyph-name="E" unicode="E" horiz-adv-x="592" 
d="M166 337v-273h379v-64h-451v708h439v-64h-367v-244h343v-63h-343z" />
    <glyph glyph-name="F" unicode="F" horiz-adv-x="562" 
d="M166 335v-335h-72v708h427v-64h-355v-246h330v-63h-330z" />
    <glyph glyph-name="G" unicode="G" horiz-adv-x="779" 
d="M681 631l-50 -50q-77 82 -205 82q-132 0 -213 -90t-81 -219q0 -128 81 -218t213 -90q121 0 191 46v215h-165v63h237v-319q-115 -69 -264 -69q-160 0 -264.5 105.5t-104.5 266.5t105 266.5t264 105.5t256 -95z" />
    <glyph glyph-name="H" unicode="H" horiz-adv-x="718" 
d="M94 0v708h72v-307h386v307h72v-708h-72v335h-386v-335h-72z" />
    <glyph glyph-name="I" unicode="I" horiz-adv-x="260" 
d="M166 708v-708h-72v708h72z" />
    <glyph glyph-name="J" unicode="J" horiz-adv-x="492" 
d="M25 126l67 18q9 -43 39.5 -71t75.5 -28q125 0 125 164v499h72v-504q0 -30 -4.5 -58.5t-17.5 -59t-33.5 -53t-54.5 -37t-79 -14.5q-75 0 -126 40t-64 104z" />
    <glyph glyph-name="K" unicode="K" horiz-adv-x="628" 
d="M166 708v-318h1l337 318h103l-357 -321l377 -387h-106l-354 377h-1v-377h-72v708h72z" />
    <glyph glyph-name="L" unicode="L" horiz-adv-x="510" 
d="M166 708v-644h330v-64h-402v708h72z" />
    <glyph glyph-name="M" unicode="M" horiz-adv-x="886" 
d="M204 708l240 -586h1l237 586h110v-708h-72v615h-2l-256 -615h-38l-256 615h-2v-615h-72v708h110z" />
    <glyph glyph-name="N" unicode="N" horiz-adv-x="764" 
d="M184 708l412 -603h2v603h72v-708h-90l-412 609h-2v-609h-72v708h90z" />
    <glyph glyph-name="O" unicode="O" horiz-adv-x="850" 
d="M794 354q0 -161 -105 -266.5t-264 -105.5t-264 105.5t-105 266.5t105 266.5t264 105.5t264 -105.5t105 -266.5zM718 354q0 129 -80.5 219t-212.5 90t-212.5 -90t-80.5 -219t80.5 -218.5t212.5 -89.5t212.5 89.5t80.5 218.5z" />
    <glyph glyph-name="P" unicode="P" horiz-adv-x="580" 
d="M94 0v708h200q111 0 175 -48t64 -141t-65 -141.5t-176 -48.5h-126v-329h-72zM166 646v-256h122q84 0 128.5 33t44.5 96q0 127 -173 127h-122z" />
    <glyph glyph-name="Q" unicode="Q" horiz-adv-x="843" 
d="M132 363q0 -124 77.5 -212t204.5 -88q126 0 204.5 88t78.5 212t-78.5 212t-204.5 88q-127 0 -204.5 -88t-77.5 -212zM819 64v-64h-405q-154 0 -256 103t-102 260t102 260t256 103q153 0 255 -103t102 -260q0 -95 -42.5 -173t-123.5 -124v-2h214z" />
    <glyph glyph-name="R" unicode="R" horiz-adv-x="599" 
d="M166 331v-331h-72v708h208q112 0 177 -45.5t65 -143.5q0 -77 -50.5 -125t-130.5 -57l207 -337h-88l-196 331h-120zM166 646v-253h125q87 0 134 32t47 94q0 127 -178 127h-128z" />
    <glyph glyph-name="S" unicode="S" horiz-adv-x="564" 
d="M494 640l-57 -46q-50 71 -146 71q-59 0 -105 -35t-46 -98q0 -26 9.5 -47t20.5 -33t36.5 -25t40 -18t47.5 -16q34 -11 44.5 -14.5t40 -15.5t41 -20.5t32 -25.5t29 -34t16 -42t7.5 -55q0 -99 -69 -151.5t-162 -52.5q-67 0 -126.5 27t-96.5 78l62 46q25 -40 67 -64.5
t95 -24.5q61 0 109 36.5t48 100.5q0 29 -10.5 51.5t-23.5 36.5t-40.5 27.5t-45 19.5t-53.5 17q-42 13 -70.5 26t-58.5 35t-45.5 56.5t-15.5 80.5q0 65 35.5 110.5t85 65t105.5 19.5q67 0 120 -24.5t80 -61.5z" />
    <glyph glyph-name="T" unicode="T" horiz-adv-x="570" 
d="M321 644v-644h-72v644h-237v64h546v-64h-237z" />
    <glyph glyph-name="U" unicode="U" horiz-adv-x="710" 
d="M355 -18q-61 0 -108.5 18.5t-76.5 46.5t-47.5 67t-25.5 75.5t-7 74.5v444h72v-436q0 -96 46.5 -161t146.5 -65t146.5 65t46.5 161v436h72v-444q0 -38 -7 -74.5t-25.5 -75.5t-47.5 -67t-76.5 -46.5t-108.5 -18.5z" />
    <glyph glyph-name="V" unicode="V" horiz-adv-x="623" 
d="M81 708l230 -615h2l230 615h77l-271 -708h-76l-270 708h78z" />
    <glyph glyph-name="W" unicode="W" horiz-adv-x="972" 
d="M90 708l175 -609h2l177 609h86l177 -609h2l173 609h76l-209 -708h-84l-178 608h-2l-178 -608h-84l-209 708h76z" />
    <glyph glyph-name="X" unicode="X" horiz-adv-x="649" 
d="M132 708l194 -286l193 286h86l-235 -337l260 -371h-90l-216 319l-215 -319h-90l260 372l-237 336h90z" />
    <glyph glyph-name="Y" unicode="Y" horiz-adv-x="602" 
d="M337 305v-305h-72v305l-265 403h90l213 -343l215 343h84z" />
    <glyph glyph-name="Z" unicode="Z" horiz-adv-x="572" 
d="M535 708v-60l-413 -584h419v-64h-510v60l414 584h-403v64h493z" />
    <glyph glyph-name="bracketleft" unicode="[" horiz-adv-x="300" 
d="M220 732v-54h-96v-780h96v-54h-162v888h162z" />
    <glyph glyph-name="backslash" unicode="\" horiz-adv-x="370" 
d="M307 -18l-302 724l57 20l303 -725z" />
    <glyph glyph-name="bracketright" unicode="]" horiz-adv-x="300" 
d="M80 -156v54h96v780h-96v54h162v-888h-162z" />
    <glyph glyph-name="asciicircum" unicode="^" horiz-adv-x="666" 
d="M80 275l229 433h48l229 -433h-62l-191 361l-191 -361h-62z" />
    <glyph glyph-name="underscore" unicode="_" horiz-adv-x="500" 
d="M0 -125v50h500v-50h-500z" />
    <glyph glyph-name="grave" unicode="`" 
d="M122 564l-132 144h91l100 -144h-59z" />
    <glyph glyph-name="a" unicode="a" horiz-adv-x="534" 
d="M385 287v15q0 121 -125 121q-84 0 -139 -55l-38 45q67 67 184 67q80 0 131 -44t51 -126v-205q0 -63 8 -105h-61q-7 40 -7 76h-2q-61 -88 -170 -88q-63 0 -112.5 35.5t-49.5 106.5q0 35 12 61.5t36 43.5t52 27.5t69 16t76.5 7t84.5 1.5zM385 234h-20q-48 0 -85.5 -3.5
t-75 -13.5t-58.5 -31t-21 -53q0 -46 32 -67.5t78 -21.5q69 0 109.5 45t40.5 110v35z" />
    <glyph glyph-name="b" unicode="b" horiz-adv-x="637" 
d="M162 79h-2v-79h-68v756h68v-369h2q29 44 77 68.5t100 24.5q108 0 175 -70.5t67 -175.5t-67 -175.5t-175 -70.5q-52 0 -100 24t-77 67zM509 234q0 81 -47.5 135t-129.5 54q-78 0 -129 -54t-51 -135t51 -134.5t129 -53.5q82 0 129.5 53.5t47.5 134.5z" />
    <glyph glyph-name="c" unicode="c" horiz-adv-x="500" 
d="M480 399l-53 -38q-17 27 -49.5 44.5t-70.5 17.5q-80 0 -129.5 -53.5t-49.5 -135.5q0 -81 49 -134.5t129 -53.5q81 0 127 61l51 -38q-66 -81 -178 -81t-181 69.5t-69 176.5t69 176.5t181 69.5q50 0 97.5 -21t76.5 -60z" />
    <glyph glyph-name="d" unicode="d" horiz-adv-x="637" 
d="M475 79q-29 -43 -77 -67t-100 -24q-108 0 -175 70.5t-67 175.5t67 175.5t175 70.5q52 0 100 -24.5t77 -68.5h2v369h68v-756h-68v79h-2zM128 234q0 -81 47.5 -134.5t129.5 -53.5q78 0 129 53.5t51 134.5t-51 135t-129 54q-82 0 -129.5 -54t-47.5 -135z" />
    <glyph glyph-name="e" unicode="e" horiz-adv-x="572" 
d="M128 270h319q-3 68 -43.5 110.5t-111.5 42.5q-66 0 -112.5 -45.5t-51.5 -107.5zM516 248q0 -20 -1 -32h-388q2 -71 51 -120.5t120 -49.5q49 0 89 23.5t61 57.5l51 -40q-78 -99 -201 -99q-104 0 -173 70t-69 176q0 105 68 175.5t168 70.5q106 0 165 -65.5t59 -166.5z" />
    <glyph glyph-name="f" unicode="f" horiz-adv-x="295" 
d="M288 468v-57h-110v-411h-68v411h-98v57h98v128q0 81 40 126.5t119 45.5q32 0 56 -7l-12 -60q-24 7 -47 7q-51 0 -69.5 -31t-18.5 -89v-120h110z" />
    <glyph glyph-name="g" unicode="g" horiz-adv-x="632" 
d="M66 -146l49 52q29 -37 78 -61.5t101 -24.5q95 0 139 51t44 133v88h-2q-26 -42 -75.5 -67t-101.5 -25q-108 0 -175 67t-67 171q0 102 67.5 172t174.5 70q53 0 101.5 -24.5t75.5 -68.5h2v81h68v-464q0 -43 -11.5 -82t-37.5 -77.5t-78.5 -61.5t-126.5 -23q-64 0 -123.5 25
t-101.5 69zM128 240q0 -77 47.5 -129.5t129.5 -52.5q79 0 129.5 50.5t50.5 131.5q0 75 -51.5 129t-128.5 54q-82 0 -129.5 -53t-47.5 -130z" />
    <glyph glyph-name="h" unicode="h" horiz-adv-x="583" 
d="M160 391h2q18 40 62.5 64.5t94.5 24.5q87 0 132.5 -52t45.5 -141v-287h-68v259q0 79 -28.5 121.5t-98.5 42.5q-59 0 -100.5 -47.5t-41.5 -135.5v-240h-68v756h68v-365z" />
    <glyph glyph-name="i" unicode="i" horiz-adv-x="250" 
d="M159 468v-468h-68v468h68zM173 648q0 -20 -14.5 -34t-33.5 -14t-33.5 14t-14.5 34t14.5 34t33.5 14t33.5 -14t14.5 -34z" />
    <glyph glyph-name="j" unicode="j" horiz-adv-x="251" 
d="M-27 -233l10 57q20 -6 43 -6q40 0 53 25t13 75v550h68v-561q0 -147 -133 -147q-30 0 -54 7zM174 648q0 -20 -14.5 -34t-33.5 -14t-33.5 14t-14.5 34t14.5 34t33.5 14t33.5 -14t14.5 -34z" />
    <glyph glyph-name="k" unicode="k" horiz-adv-x="510" 
d="M160 756v-499h3l216 211h98l-236 -214l260 -254h-100l-238 246h-3v-246h-68v756h68z" />
    <glyph glyph-name="l" unicode="l" horiz-adv-x="252" 
d="M160 756v-756h-68v756h68z" />
    <glyph glyph-name="m" unicode="m" horiz-adv-x="883" 
d="M157 388q21 41 62.5 66.5t91.5 25.5q106 0 144 -99q49 99 164 99q87 0 132.5 -52t45.5 -141v-287h-68v259q0 164 -121 164q-68 0 -100.5 -50.5t-32.5 -123.5v-249h-68v273q0 74 -24.5 112t-88.5 38q-54 0 -95 -47.5t-41 -135.5v-240h-68v365q0 60 -4 103h65q4 -50 4 -80
h2z" />
    <glyph glyph-name="n" unicode="n" horiz-adv-x="581" 
d="M86 468h65q4 -50 4 -80h2q19 40 64.5 66t95.5 26q87 0 132.5 -52t45.5 -141v-287h-68v259q0 79 -28.5 121.5t-98.5 42.5q-59 0 -100.5 -47.5t-41.5 -135.5v-240h-68v365q0 60 -4 103z" />
    <glyph glyph-name="o" unicode="o" horiz-adv-x="611" 
d="M555 234q0 -106 -70.5 -176t-179.5 -70q-108 0 -178.5 70t-70.5 176t70.5 176t178.5 70q109 0 179.5 -70t70.5 -176zM483 234q0 81 -49 135t-129 54q-79 0 -128 -54t-49 -135q0 -80 49 -134t128 -54q80 0 129 53.5t49 134.5z" />
    <glyph glyph-name="p" unicode="p" horiz-adv-x="635" 
d="M158 79v-319h-68v708h68v-81h3q28 44 76 68.5t100 24.5q108 0 175 -70.5t67 -175.5t-67 -175.5t-175 -70.5q-51 0 -99 24t-77 67h-3zM507 234q0 81 -47.5 135t-129.5 54q-78 0 -129 -54t-51 -135t51 -134.5t129 -53.5q82 0 129.5 53.5t47.5 134.5z" />
    <glyph glyph-name="q" unicode="q" horiz-adv-x="635" 
d="M477 79h-3q-29 -43 -77 -67t-99 -24q-108 0 -175 70.5t-67 175.5t67 175.5t175 70.5q52 0 100 -24.5t76 -68.5h3v81h68v-708h-68v319zM128 234q0 -81 47.5 -134.5t129.5 -53.5q78 0 129 53.5t51 134.5t-51 135t-129 54q-82 0 -129.5 -54t-47.5 -135z" />
    <glyph glyph-name="r" unicode="r" horiz-adv-x="360" 
d="M90 365q0 60 -4 103h65q4 -50 4 -80h2q20 41 60.5 66.5t89.5 25.5q27 0 45 -5l-9 -64q-16 6 -48 6q-59 0 -98 -44.5t-39 -132.5v-240h-68v365z" />
    <glyph glyph-name="s" unicode="s" horiz-adv-x="444" 
d="M391 396l-52 -39q-15 30 -46 48t-69 18q-41 0 -70 -18.5t-29 -54.5q0 -32 26 -50t86 -30q83 -17 122.5 -50t39.5 -87q0 -74 -51.5 -109.5t-124.5 -35.5q-123 0 -185 91l54 40q19 -32 54.5 -52.5t75.5 -20.5q48 0 79 19.5t31 62.5q0 35 -32.5 54t-105.5 36q-26 6 -45 13
t-41.5 21t-35 37.5t-12.5 54.5q0 67 48.5 101.5t118.5 34.5q50 0 96 -22.5t68 -61.5z" />
    <glyph glyph-name="t" unicode="t" horiz-adv-x="317" 
d="M301 468v-57h-132v-273q0 -49 18 -67.5t52 -18.5q29 0 59 15l3 -59q-37 -14 -80 -14q-48 0 -84 28t-36 97v292h-97v57h97v132h68v-132h132z" />
    <glyph glyph-name="u" unicode="u" horiz-adv-x="581" 
d="M495 0h-65q-4 50 -4 80h-2q-19 -40 -64.5 -66t-95.5 -26q-87 0 -132.5 52t-45.5 141v287h68v-259q0 -79 28.5 -121.5t98.5 -42.5q59 0 100.5 47.5t41.5 135.5v240h68v-365q0 -60 4 -103z" />
    <glyph glyph-name="v" unicode="v" horiz-adv-x="488" 
d="M472 468l-190 -468h-75l-191 468h76l152 -396h2l153 396h73z" />
    <glyph glyph-name="w" unicode="w" horiz-adv-x="746" 
d="M26 468h73l113 -380h2l126 380h66l128 -380h2l112 380h72l-148 -468h-74l-125 379h-2l-123 -379h-74z" />
    <glyph glyph-name="x" unicode="x" horiz-adv-x="484" 
d="M16 0l184 242l-173 226h87l128 -178l128 178h82l-170 -223l186 -245h-88l-139 195l-143 -195h-82z" />
    <glyph glyph-name="y" unicode="y" horiz-adv-x="488" 
d="M92 468l159 -395h2l145 395h74l-233 -589q-23 -59 -56.5 -89t-90.5 -30q-31 0 -61 6l7 62q24 -8 50 -8q33 0 53.5 20.5t36.5 62.5l38 98l-200 467h76z" />
    <glyph glyph-name="z" unicode="z" horiz-adv-x="442" 
d="M401 468v-48l-280 -361h290v-59h-380v48l279 363h-265v57h356z" />
    <glyph glyph-name="braceleft" unicode="{" horiz-adv-x="300" 
d="M0 258v60q39 0 59 29t20 82v178q0 66 30 95.5t78 29.5h63v-54h-48q-57 0 -57 -83v-178q0 -63 -30.5 -93.5t-58.5 -34.5v-2q28 -4 58.5 -34.5t30.5 -93.5v-178q0 -83 57 -83h48v-54h-63q-48 0 -78 29.5t-30 95.5v178q0 53 -20 82t-59 29z" />
    <glyph glyph-name="bar" unicode="|" horiz-adv-x="222" 
d="M81 750h60v-1000h-60v1000z" />
    <glyph glyph-name="braceright" unicode="}" horiz-adv-x="300" 
d="M300 318v-60q-39 0 -59 -29t-20 -82v-178q0 -66 -30 -95.5t-78 -29.5h-63v54h48q57 0 57 83v178q0 63 30.5 93.5t58.5 34.5v2q-28 4 -58.5 34.5t-30.5 93.5v178q0 83 -57 83h-48v54h63q48 0 78 -29.5t30 -95.5v-178q0 -53 20 -82t59 -29z" />
    <glyph glyph-name="asciitilde" unicode="~" horiz-adv-x="666" 
d="M535 368l42 -40q-60 -93 -136 -93q-55 0 -111 36q-63 40 -103 40q-56 0 -96 -73l-42 40q19 27 34.5 44t43.5 33t58 16q57 0 110 -35q64 -41 103 -41q53 0 97 73z" />
    <glyph glyph-name="uni00A0" unicode="&#xa0;" horiz-adv-x="250" 
 />
    <glyph glyph-name="exclamdown" unicode="&#xa1;" horiz-adv-x="328" 
d="M200 287v-516h-72v516h72zM218 431q0 -22 -15.5 -38t-38.5 -16t-38.5 16t-15.5 38t15.5 38t38.5 16t38.5 -16t15.5 -38z" />
    <glyph glyph-name="cent" unicode="&#xa2;" horiz-adv-x="580" 
d="M298 51v366q-64 -11 -101 -61.5t-37 -121.5t37 -121.5t101 -61.5zM346 419v-370q35 2 63 19t44 42l54 -41q-63 -75 -161 -80v-61h-48v63q-97 10 -153.5 77.5t-56.5 165.5t56.5 165.5t153.5 77.5v63h48v-61q98 -5 161 -80l-54 -41q-16 25 -44 42t-63 19z" />
    <glyph glyph-name="sterling" unicode="&#xa3;" horiz-adv-x="580" 
d="M417 395v-60h-168v-275h262v-60h-436v60h102v275h-96v60h96v93q0 46 11 86t34.5 75.5t66 56t100.5 20.5q98 0 155 -60l-47 -51q-43 50 -111 50q-42 0 -71 -18t-42.5 -48.5t-18.5 -58.5t-5 -58v-87h168z" />
    <glyph glyph-name="currency" unicode="&#xa4;" horiz-adv-x="860" 
d="M636 468q51 -67 51 -159q0 -96 -55 -164l94 -93l-43 -44l-95 95q-67 -51 -157 -51t-158 53l-97 -97q-28 30 -43 44l96 96q-53 64 -53 161q0 91 50 157l-93 92l44 43q13 -14 28.5 -29.5t34.5 -34t29 -28.5q70 55 162 55q93 0 160 -54q14 13 29 28.5t33.5 34l28.5 28.5
l44 -43zM431 496q-81 0 -131.5 -54t-50.5 -133q0 -80 50.5 -134.5t131.5 -54.5t131.5 54.5t50.5 134.5q0 79 -50.5 133t-131.5 54z" />
    <glyph glyph-name="yen" unicode="&#xa5;" horiz-adv-x="580" 
d="M91 223h165v105h-165v54h145l-226 326h89l193 -300l192 300h86l-224 -326h143v-54h-165v-105h165v-54h-165v-169h-68v169h-165v54z" />
    <glyph glyph-name="brokenbar" unicode="&#xa6;" horiz-adv-x="222" 
d="M81 675h60v-350h-60v350zM81 175h60v-350h-60v350z" />
    <glyph glyph-name="section" unicode="&#xa7;" horiz-adv-x="580" 
d="M474 632l-59 -30q-10 26 -37.5 45t-70.5 19q-49 0 -78.5 -24t-29.5 -65q0 -42 25.5 -65t72.5 -43l87 -41q103 -50 103 -142q0 -47 -25 -82t-64 -49q71 -43 71 -125q0 -79 -54.5 -121t-133.5 -42q-69 0 -122 29t-76 86l66 32q16 -44 51.5 -65.5t80.5 -21.5t80.5 23
t35.5 75q0 60 -75 96l-127 61q-45 22 -70 52.5t-25 81.5q0 48 28.5 82.5t75.5 49.5q-77 46 -77 120q0 76 52.5 117t128.5 41q64 0 107 -26.5t59 -67.5zM320 384l-61 26q-34 -4 -61.5 -26.5t-27.5 -63.5q0 -37 24.5 -57.5t83.5 -45.5l66 -30q29 7 51 30t22 59q0 41 -25 64.5
t-72 43.5z" />
    <glyph glyph-name="dieresis" unicode="&#xa8;" 
d="M-27 647q0 20 14.5 35.5t36.5 15.5t36.5 -15.5t14.5 -35.5t-14.5 -35.5t-36.5 -15.5t-36.5 15.5t-14.5 35.5zM165 647q0 20 14.5 35.5t36.5 15.5t36.5 -15.5t14.5 -35.5t-14.5 -35.5t-36.5 -15.5t-36.5 15.5t-14.5 35.5z" />
    <glyph glyph-name="copyright" unicode="&#xa9;" horiz-adv-x="800" 
d="M528 258l52 -34q-26 -40 -70 -65.5t-100 -25.5q-98 0 -162 64t-64 162q0 97 64 161t162 64q49 0 93.5 -21.5t68.5 -57.5l-52 -40q-15 24 -45 41.5t-63 17.5q-71 0 -115 -48.5t-44 -116.5q0 -69 43 -117.5t114 -48.5q73 0 118 65zM20 353q0 157 111.5 267t269.5 110
q157 0 268 -110t111 -267q0 -156 -111 -265.5t-268 -109.5q-158 0 -269.5 109.5t-111.5 265.5zM80 353q0 -132 94 -225.5t227 -93.5q132 0 225.5 93.5t93.5 225.5q0 133 -93.5 227t-225.5 94q-133 0 -227 -94t-94 -227z" />
    <glyph glyph-name="ordfeminine" unicode="&#xaa;" horiz-adv-x="360" 
d="M244 606v8q0 30 -20 45.5t-53 15.5q-51 0 -83 -32l-32 35q47 42 120 42q60 0 91.5 -30.5t31.5 -79.5v-123q0 -37 4 -56h-52q-5 22 -5 41h-2q-33 -48 -98 -48q-42 0 -74 21t-32 66q0 30 17 50.5t49 29.5t63.5 12t74.5 3zM244 566h-15q-130 0 -130 -54q0 -44 59 -44
q40 0 63 23t23 60v15z" />
    <glyph glyph-name="guillemotleft" unicode="&#xab;" horiz-adv-x="482" 
d="M239 416l-115 -176l115 -176l-47 -33l-140 209l140 209zM421 416l-115 -176l115 -176l-47 -33l-140 209l140 209z" />
    <glyph glyph-name="logicalnot" unicode="&#xac;" horiz-adv-x="666" 
d="M588 408v-278h-60v218h-450v60h510z" />
    <glyph glyph-name="uni00AD" unicode="&#xad;" horiz-adv-x="320" 
d="M272 271v-57h-224v57h224z" />
    <glyph glyph-name="registered" unicode="&#xae;" horiz-adv-x="600" 
d="M72 493q0 94 66.5 160.5t161.5 66.5t161.5 -66.5t66.5 -160.5t-66.5 -159.5t-161.5 -65.5t-161.5 65.5t-66.5 159.5zM108 493q0 -79 56.5 -135.5t135.5 -56.5t135.5 56.5t56.5 135.5t-56 135.5t-136 56.5t-136 -56.5t-56 -135.5zM211 366v256h90q40 0 67.5 -18.5
t27.5 -56.5q0 -56 -59 -69l69 -112h-56l-60 107h-33v-107h-46zM257 510h37q56 0 56 38q0 35 -51 35h-42v-73z" />
    <glyph glyph-name="macron" unicode="&#xaf;" 
d="M255 654v-54h-270v54h270z" />
    <glyph glyph-name="degree" unicode="&#xb0;" horiz-adv-x="400" 
d="M349 571q0 -65 -42.5 -107t-106.5 -42t-106.5 42t-42.5 107t42.5 107t106.5 42t106.5 -42t42.5 -107zM301 571q0 42 -29.5 71.5t-71.5 29.5t-71.5 -29.5t-29.5 -71.5t29.5 -71.5t71.5 -29.5t71.5 29.5t29.5 71.5z" />
    <glyph glyph-name="plusminus" unicode="&#xb1;" horiz-adv-x="666" 
d="M78 347v60h225v156h60v-156h225v-60h-225v-151h-60v151h-225zM78 48v60h510v-60h-510z" />
    <glyph glyph-name="twosuperior" unicode="&#xb2;" horiz-adv-x="370" 
d="M319 452h-276v57l167 169q43 45 43 86q0 28 -19 45t-48 17q-28 0 -48 -19t-27 -51l-60 9q10 51 47.5 83.5t87.5 32.5q56 0 93.5 -30.5t37.5 -86.5q0 -27 -12 -53t-24 -40t-35 -37l-128 -128h201v-54z" />
    <glyph glyph-name="threesuperior" unicode="&#xb3;" horiz-adv-x="370" 
d="M320 572q0 -60 -40.5 -93.5t-99.5 -33.5q-102 0 -141 96l57 19q10 -29 32 -45t52 -16q33 0 56.5 19t23.5 54q0 38 -27.5 55.5t-68.5 17.5h-27v51h27q84 0 84 70q0 27 -20 44.5t-49 17.5q-48 0 -75 -50l-50 26q44 77 127 77q55 0 91 -29.5t36 -84.5q0 -63 -57 -93
q69 -26 69 -102z" />
    <glyph glyph-name="acute" unicode="&#xb4;" 
d="M250 708l-132 -144h-59l100 144h91z" />
    <glyph glyph-name="mu" unicode="&#xb5;" horiz-adv-x="597" 
d="M90 468h68v-262q0 -161 124 -161q69 0 107 52t38 128v243h68v-373q0 -23 5.5 -33t22.5 -10q13 0 26 5l3 -56q-23 -7 -45 -7q-73 0 -75 86h-2q-20 -41 -65 -66.5t-94 -25.5q-80 0 -111 48h-2v-276h-68v708z" />
    <glyph glyph-name="paragraph" unicode="&#xb6;" horiz-adv-x="600" 
d="M513 708v-834h-66v780h-124v-780h-66v442q-91 0 -150 53.5t-59 132.5q0 97 61 151.5t167 54.5h237z" />
    <glyph glyph-name="periodcentered" unicode="&#xb7;" horiz-adv-x="260" 
d="M184 314q0 -22 -15.5 -38t-38.5 -16t-38.5 16t-15.5 38t15.5 38t38.5 16t38.5 -16t15.5 -38z" />
    <glyph glyph-name="cedilla" unicode="&#xb8;" 
d="M156 0l-47 -75q13 4 35 4q33 0 57.5 -19t24.5 -53q0 -46 -35 -66.5t-83 -20.5q-51 0 -94 20l16 36q31 -14 72 -14q21 0 42.5 11t21.5 33q0 39 -54 39q-22 0 -43 -8l-18 15l62 98h43z" />
    <glyph glyph-name="onesuperior" unicode="&#xb9;" horiz-adv-x="370" 
d="M171 452v346l-64 -57l-38 41l112 92h51v-422h-61z" />
    <glyph glyph-name="ordmasculine" unicode="&#xba;" horiz-adv-x="360" 
d="M332 572q0 -64 -43 -106t-109 -42t-109 42t-43 106q0 65 43 106.5t109 41.5t109 -41.5t43 -106.5zM274 572q0 43 -25 72.5t-69 29.5t-69 -29.5t-25 -72.5q0 -42 25 -72t69 -30t69 30t25 72z" />
    <glyph glyph-name="guillemotright" unicode="&#xbb;" horiz-adv-x="482" 
d="M243 64l115 176l-115 176l47 33l140 -209l-140 -209zM61 64l115 176l-115 176l47 33l140 -209l-140 -209z" />
    <glyph glyph-name="onequarter" unicode="&#xbc;" horiz-adv-x="840" 
d="M723 422v-270h60v-54h-60v-98h-55v98h-188v52l175 272h68zM668 340h-3l-122 -188h125v188zM232 708v-422h-61v346l-64 -57l-38 41l112 92h51zM667 712l-450 -743l-52 27l451 743z" />
    <glyph glyph-name="onehalf" unicode="&#xbd;" horiz-adv-x="840" 
d="M786 54v-54h-276v57l167 169q43 45 43 86q0 28 -19 45t-48 17q-28 0 -48 -19t-27 -51l-60 9q10 51 47.5 83.5t87.5 32.5q56 0 93.5 -30.5t37.5 -86.5q0 -27 -12 -53t-24 -40t-35 -37l-128 -128h201zM667 712l-450 -743l-52 27l451 743zM232 708v-422h-61v346l-64 -57
l-38 41l112 92h51z" />
    <glyph glyph-name="threequarters" unicode="&#xbe;" horiz-adv-x="840" 
d="M723 422v-270h60v-54h-60v-98h-55v98h-188v52l175 272h68zM668 340h-3l-122 -188h125v188zM137 484v51h27q84 0 84 70q0 27 -20 44.5t-49 17.5q-48 0 -75 -50l-50 26q44 77 127 77q55 0 91 -29.5t36 -84.5q0 -63 -57 -93q69 -26 69 -102q0 -60 -40.5 -93.5t-99.5 -33.5
q-102 0 -141 96l57 19q10 -29 32 -45t52 -16q33 0 56.5 19t23.5 54q0 38 -27.5 55.5t-68.5 17.5h-27zM667 712l-450 -743l-52 27l451 743z" />
    <glyph glyph-name="questiondown" unicode="&#xbf;" horiz-adv-x="482" 
d="M214 241v46h70v-60q0 -51 -20.5 -84.5t-59.5 -67.5l-28 -25q-58 -47 -58 -111q0 -55 35.5 -86.5t89.5 -31.5q52 0 86.5 32.5t42.5 84.5l68 -12q-15 -77 -69 -122t-131 -45q-83 0 -138.5 47t-55.5 129q0 41 14 73t30 49t48 43q45 37 60.5 63t15.5 78zM188 431
q0 22 15.5 38t38.5 16t38.5 -16t15.5 -38t-15.5 -38t-38.5 -16t-38.5 16t-15.5 38z" />
    <glyph glyph-name="Agrave" unicode="&#xc0;" horiz-adv-x="700" 
d="M166 186l-77 -186h-79l306 708h70l304 -708h-80l-78 186h-366zM349 628l-156 -376h312zM324 764l-132 144h91l100 -144h-59z" />
    <glyph glyph-name="Aacute" unicode="&#xc1;" horiz-adv-x="700" 
d="M166 186l-77 -186h-79l306 708h70l304 -708h-80l-78 186h-366zM349 628l-156 -376h312zM511 908l-132 -144h-59l100 144h91z" />
    <glyph glyph-name="Acircumflex" unicode="&#xc2;" horiz-adv-x="700" 
d="M166 186l-77 -186h-79l306 708h70l304 -708h-80l-78 186h-366zM349 628l-156 -376h312zM389 908l109 -144h-66l-83 108l-83 -108h-66l109 144h80z" />
    <glyph glyph-name="Atilde" unicode="&#xc3;" horiz-adv-x="700" 
d="M166 186l-77 -186h-79l306 708h70l304 -708h-80l-78 186h-366zM349 628l-156 -376h312zM231 776h-43q18 104 92 104q27 0 73 -23q50 -23 67 -23q37 0 49 50h43q-18 -104 -92 -104q-29 0 -73 23t-67 23q-37 0 -49 -50z" />
    <glyph glyph-name="Adieresis" unicode="&#xc4;" horiz-adv-x="700" 
d="M166 186l-77 -186h-79l306 708h70l304 -708h-80l-78 186h-366zM349 628l-156 -376h312zM204 847q0 20 14.5 35.5t36.5 15.5t36.5 -15.5t14.5 -35.5t-14.5 -35.5t-36.5 -15.5t-36.5 15.5t-14.5 35.5zM396 847q0 20 14.5 35.5t36.5 15.5t36.5 -15.5t14.5 -35.5t-14.5 -35.5
t-36.5 -15.5t-36.5 15.5t-14.5 35.5z" />
    <glyph glyph-name="Aring" unicode="&#xc5;" horiz-adv-x="700" 
d="M166 186l-77 -186h-79l306 708h70l304 -708h-80l-78 186h-366zM349 628l-156 -376h312zM446 850q0 -40 -28.5 -67.5t-67.5 -27.5t-67.5 27.5t-28.5 67.5t28.5 67.5t67.5 27.5t67.5 -27.5t28.5 -67.5zM410 850q0 25 -17.5 42t-42.5 17t-42.5 -17t-17.5 -42t17.5 -42
t42.5 -17t42.5 17t17.5 42z" />
    <glyph glyph-name="AE" unicode="&#xc6;" horiz-adv-x="990" 
d="M591 337v-273h345v-64h-417v198h-298l-128 -198h-82l461 708h452v-64h-333v-244h309v-63h-309zM258 261h261v383h-14z" />
    <glyph glyph-name="Ccedilla" unicode="&#xc7;" horiz-adv-x="720" 
d="M634 150l56 -36q-38 -58 -106.5 -95t-158.5 -37l-35 -57q13 4 35 4q33 0 57.5 -19t24.5 -53q0 -46 -35 -66.5t-83 -20.5q-51 0 -94 20l16 36q31 -14 72 -14q21 0 42.5 11t21.5 33q0 39 -54 39q-22 0 -43 -8l-18 15l52 82q-145 14 -236.5 117t-91.5 253q0 161 105 266.5
t264 105.5q78 0 146.5 -30.5t105.5 -81.5l-60 -44q-25 38 -76.5 65.5t-114.5 27.5q-133 0 -213.5 -90t-80.5 -219t81 -219t213 -90q138 0 208 105z" />
    <glyph glyph-name="Egrave" unicode="&#xc8;" horiz-adv-x="592" 
d="M166 337v-273h379v-64h-451v708h439v-64h-367v-244h343v-63h-343zM316 764l-132 144h91l100 -144h-59z" />
    <glyph glyph-name="Eacute" unicode="&#xc9;" horiz-adv-x="592" 
d="M166 337v-273h379v-64h-451v708h439v-64h-367v-244h343v-63h-343zM456 908l-132 -144h-59l100 144h91z" />
    <glyph glyph-name="Ecircumflex" unicode="&#xca;" horiz-adv-x="592" 
d="M166 337v-273h379v-64h-451v708h439v-64h-367v-244h343v-63h-343zM356 908l109 -144h-66l-83 108l-83 -108h-66l109 144h80z" />
    <glyph glyph-name="Edieresis" unicode="&#xcb;" horiz-adv-x="592" 
d="M166 337v-273h379v-64h-451v708h439v-64h-367v-244h343v-63h-343zM169 847q0 20 14.5 35.5t36.5 15.5t36.5 -15.5t14.5 -35.5t-14.5 -35.5t-36.5 -15.5t-36.5 15.5t-14.5 35.5zM361 847q0 20 14.5 35.5t36.5 15.5t36.5 -15.5t14.5 -35.5t-14.5 -35.5t-36.5 -15.5
t-36.5 15.5t-14.5 35.5z" />
    <glyph glyph-name="Igrave" unicode="&#xcc;" horiz-adv-x="260" 
d="M166 708v-708h-72v708h72zM106 764l-132 144h91l100 -144h-59z" />
    <glyph glyph-name="Iacute" unicode="&#xcd;" horiz-adv-x="260" 
d="M166 708v-708h-72v708h72zM285 908l-132 -144h-59l100 144h91z" />
    <glyph glyph-name="Icircumflex" unicode="&#xce;" horiz-adv-x="260" 
d="M166 708v-708h-72v708h72zM170 908l109 -144h-66l-83 108l-83 -108h-66l109 144h80z" />
    <glyph glyph-name="Idieresis" unicode="&#xcf;" horiz-adv-x="260" 
d="M166 708v-708h-72v708h72zM-17 847q0 20 14.5 35.5t36.5 15.5t36.5 -15.5t14.5 -35.5t-14.5 -35.5t-36.5 -15.5t-36.5 15.5t-14.5 35.5zM175 847q0 20 14.5 35.5t36.5 15.5t36.5 -15.5t14.5 -35.5t-14.5 -35.5t-36.5 -15.5t-36.5 15.5t-14.5 35.5z" />
    <glyph glyph-name="Eth" unicode="&#xd0;" horiz-adv-x="757" 
d="M86 0v347h-73v54h73v307h235q68 0 133 -22.5t119 -65t87 -112t33 -154.5t-33 -154.5t-87 -112t-119 -65t-133 -22.5h-235zM158 347v-281h140q78 0 140 24t100 65t57.5 92t19.5 107t-19.5 107t-57.5 92t-100 65t-140 24h-140v-241h258v-54h-258z" />
    <glyph glyph-name="Ntilde" unicode="&#xd1;" horiz-adv-x="764" 
d="M184 708l412 -603h2v603h72v-708h-90l-412 609h-2v-609h-72v708h90zM266 776h-43q18 104 92 104q27 0 73 -23q50 -23 67 -23q37 0 49 50h43q-18 -104 -92 -104q-29 0 -73 23t-67 23q-37 0 -49 -50z" />
    <glyph glyph-name="Ograve" unicode="&#xd2;" horiz-adv-x="850" 
d="M794 354q0 -161 -105 -266.5t-264 -105.5t-264 105.5t-105 266.5t105 266.5t264 105.5t264 -105.5t105 -266.5zM718 354q0 129 -80.5 219t-212.5 90t-212.5 -90t-80.5 -219t80.5 -218.5t212.5 -89.5t212.5 89.5t80.5 218.5zM439 764l-132 144h91l100 -144h-59z" />
    <glyph glyph-name="Oacute" unicode="&#xd3;" horiz-adv-x="850" 
d="M794 354q0 -161 -105 -266.5t-264 -105.5t-264 105.5t-105 266.5t105 266.5t264 105.5t264 -105.5t105 -266.5zM718 354q0 129 -80.5 219t-212.5 90t-212.5 -90t-80.5 -219t80.5 -218.5t212.5 -89.5t212.5 89.5t80.5 218.5zM558 908l-132 -144h-59l100 144h91z" />
    <glyph glyph-name="Ocircumflex" unicode="&#xd4;" horiz-adv-x="850" 
d="M794 354q0 -161 -105 -266.5t-264 -105.5t-264 105.5t-105 266.5t105 266.5t264 105.5t264 -105.5t105 -266.5zM718 354q0 129 -80.5 219t-212.5 90t-212.5 -90t-80.5 -219t80.5 -218.5t212.5 -89.5t212.5 89.5t80.5 218.5zM465 908l109 -144h-66l-83 108l-83 -108h-66
l109 144h80z" />
    <glyph glyph-name="Otilde" unicode="&#xd5;" horiz-adv-x="850" 
d="M794 354q0 -161 -105 -266.5t-264 -105.5t-264 105.5t-105 266.5t105 266.5t264 105.5t264 -105.5t105 -266.5zM718 354q0 129 -80.5 219t-212.5 90t-212.5 -90t-80.5 -219t80.5 -218.5t212.5 -89.5t212.5 89.5t80.5 218.5zM306 776h-43q18 104 92 104q27 0 73 -23
q50 -23 67 -23q37 0 49 50h43q-18 -104 -92 -104q-29 0 -73 23t-67 23q-37 0 -49 -50z" />
    <glyph glyph-name="Odieresis" unicode="&#xd6;" horiz-adv-x="850" 
d="M794 354q0 -161 -105 -266.5t-264 -105.5t-264 105.5t-105 266.5t105 266.5t264 105.5t264 -105.5t105 -266.5zM718 354q0 129 -80.5 219t-212.5 90t-212.5 -90t-80.5 -219t80.5 -218.5t212.5 -89.5t212.5 89.5t80.5 218.5zM278 847q0 20 14.5 35.5t36.5 15.5t36.5 -15.5
t14.5 -35.5t-14.5 -35.5t-36.5 -15.5t-36.5 15.5t-14.5 35.5zM470 847q0 20 14.5 35.5t36.5 15.5t36.5 -15.5t14.5 -35.5t-14.5 -35.5t-36.5 -15.5t-36.5 15.5t-14.5 35.5z" />
    <glyph glyph-name="multiply" unicode="&#xd7;" horiz-adv-x="666" 
d="M174 505l159 -159l158 159l43 -42l-159 -160l159 -159l-43 -43l-158 159l-159 -159l-42 43l159 159l-159 160z" />
    <glyph glyph-name="Oslash" unicode="&#xd8;" horiz-adv-x="850" 
d="M774 692l-76 -82q96 -102 96 -256q0 -161 -105 -266.5t-264 -105.5q-138 0 -236 81l-76 -81l-37 34l76 82q-96 102 -96 256q0 161 105 266.5t264 105.5q136 0 236 -81l76 81zM651 558l-415 -445q76 -67 189 -67q133 0 213 89.5t80 218.5q0 122 -67 204zM201 150l415 445
q-74 68 -191 68q-133 0 -213 -90t-80 -219q0 -123 69 -204z" />
    <glyph glyph-name="Ugrave" unicode="&#xd9;" horiz-adv-x="710" 
d="M355 -18q-61 0 -108.5 18.5t-76.5 46.5t-47.5 67t-25.5 75.5t-7 74.5v444h72v-436q0 -96 46.5 -161t146.5 -65t146.5 65t46.5 161v436h72v-444q0 -38 -7 -74.5t-25.5 -75.5t-47.5 -67t-76.5 -46.5t-108.5 -18.5zM356 764l-132 144h91l100 -144h-59z" />
    <glyph glyph-name="Uacute" unicode="&#xda;" horiz-adv-x="710" 
d="M355 -18q-61 0 -108.5 18.5t-76.5 46.5t-47.5 67t-25.5 75.5t-7 74.5v444h72v-436q0 -96 46.5 -161t146.5 -65t146.5 65t46.5 161v436h72v-444q0 -38 -7 -74.5t-25.5 -75.5t-47.5 -67t-76.5 -46.5t-108.5 -18.5zM497 908l-132 -144h-59l100 144h91z" />
    <glyph glyph-name="Ucircumflex" unicode="&#xdb;" horiz-adv-x="710" 
d="M355 -18q-61 0 -108.5 18.5t-76.5 46.5t-47.5 67t-25.5 75.5t-7 74.5v444h72v-436q0 -96 46.5 -161t146.5 -65t146.5 65t46.5 161v436h72v-444q0 -38 -7 -74.5t-25.5 -75.5t-47.5 -67t-76.5 -46.5t-108.5 -18.5zM395 908l109 -144h-66l-83 108l-83 -108h-66l109 144h80z
" />
    <glyph glyph-name="Udieresis" unicode="&#xdc;" horiz-adv-x="710" 
d="M355 -18q-61 0 -108.5 18.5t-76.5 46.5t-47.5 67t-25.5 75.5t-7 74.5v444h72v-436q0 -96 46.5 -161t146.5 -65t146.5 65t46.5 161v436h72v-444q0 -38 -7 -74.5t-25.5 -75.5t-47.5 -67t-76.5 -46.5t-108.5 -18.5zM209 847q0 20 14.5 35.5t36.5 15.5t36.5 -15.5t14.5 -35.5
t-14.5 -35.5t-36.5 -15.5t-36.5 15.5t-14.5 35.5zM401 847q0 20 14.5 35.5t36.5 15.5t36.5 -15.5t14.5 -35.5t-14.5 -35.5t-36.5 -15.5t-36.5 15.5t-14.5 35.5z" />
    <glyph glyph-name="Yacute" unicode="&#xdd;" horiz-adv-x="602" 
d="M337 305v-305h-72v305l-265 403h90l213 -343l215 343h84zM466 908l-132 -144h-59l100 144h91z" />
    <glyph glyph-name="Thorn" unicode="&#xde;" horiz-adv-x="580" 
d="M94 0v708h72v-155h128q111 0 175 -48t64 -141t-65 -141.5t-176 -48.5h-126v-174h-72zM166 489v-252h116q173 0 173 127q0 125 -173 125h-116z" />
    <glyph glyph-name="germandbls" unicode="&#xdf;" horiz-adv-x="597" 
d="M156 542v-542h-68v544q0 42 10 79.5t32.5 71t65.5 53.5t102 20q79 0 135.5 -48t56.5 -129q0 -117 -116 -159v-2q76 -9 123.5 -65.5t47.5 -141.5q0 -107 -65.5 -171t-174.5 -64q-28 0 -55 5v57q26 -4 48 -4q80 0 128 47.5t48 130.5q0 85 -52 130t-141 45h-9v60h8
q64 0 102.5 31.5t38.5 94.5q0 58 -36 90.5t-90 32.5q-42 0 -71 -15.5t-43 -42t-19.5 -52.5t-5.5 -56z" />
    <glyph glyph-name="agrave" unicode="&#xe0;" horiz-adv-x="534" 
d="M385 287v15q0 121 -125 121q-84 0 -139 -55l-38 45q67 67 184 67q80 0 131 -44t51 -126v-205q0 -63 8 -105h-61q-7 40 -7 76h-2q-61 -88 -170 -88q-63 0 -112.5 35.5t-49.5 106.5q0 35 12 61.5t36 43.5t52 27.5t69 16t76.5 7t84.5 1.5zM385 234h-20q-48 0 -85.5 -3.5
t-75 -13.5t-58.5 -31t-21 -53q0 -46 32 -67.5t78 -21.5q69 0 109.5 45t40.5 110v35zM276 564l-132 144h91l100 -144h-59z" />
    <glyph glyph-name="aacute" unicode="&#xe1;" horiz-adv-x="534" 
d="M385 287v15q0 121 -125 121q-84 0 -139 -55l-38 45q67 67 184 67q80 0 131 -44t51 -126v-205q0 -63 8 -105h-61q-7 40 -7 76h-2q-61 -88 -170 -88q-63 0 -112.5 35.5t-49.5 106.5q0 35 12 61.5t36 43.5t52 27.5t69 16t76.5 7t84.5 1.5zM385 234h-20q-48 0 -85.5 -3.5
t-75 -13.5t-58.5 -31t-21 -53q0 -46 32 -67.5t78 -21.5q69 0 109.5 45t40.5 110v35zM406 708l-132 -144h-59l100 144h91z" />
    <glyph glyph-name="acircumflex" unicode="&#xe2;" horiz-adv-x="534" 
d="M385 287v15q0 121 -125 121q-84 0 -139 -55l-38 45q67 67 184 67q80 0 131 -44t51 -126v-205q0 -63 8 -105h-61q-7 40 -7 76h-2q-61 -88 -170 -88q-63 0 -112.5 35.5t-49.5 106.5q0 35 12 61.5t36 43.5t52 27.5t69 16t76.5 7t84.5 1.5zM385 234h-20q-48 0 -85.5 -3.5
t-75 -13.5t-58.5 -31t-21 -53q0 -46 32 -67.5t78 -21.5q69 0 109.5 45t40.5 110v35zM309 708l109 -144h-66l-83 108l-83 -108h-66l109 144h80z" />
    <glyph glyph-name="atilde" unicode="&#xe3;" horiz-adv-x="534" 
d="M385 287v15q0 121 -125 121q-84 0 -139 -55l-38 45q67 67 184 67q80 0 131 -44t51 -126v-205q0 -63 8 -105h-61q-7 40 -7 76h-2q-61 -88 -170 -88q-63 0 -112.5 35.5t-49.5 106.5q0 35 12 61.5t36 43.5t52 27.5t69 16t76.5 7t84.5 1.5zM385 234h-20q-48 0 -85.5 -3.5
t-75 -13.5t-58.5 -31t-21 -53q0 -46 32 -67.5t78 -21.5q69 0 109.5 45t40.5 110v35zM146 576h-43q18 104 92 104q27 0 73 -23q50 -23 67 -23q37 0 49 50h43q-18 -104 -92 -104q-29 0 -73 23t-67 23q-37 0 -49 -50z" />
    <glyph glyph-name="adieresis" unicode="&#xe4;" horiz-adv-x="534" 
d="M385 287v15q0 121 -125 121q-84 0 -139 -55l-38 45q67 67 184 67q80 0 131 -44t51 -126v-205q0 -63 8 -105h-61q-7 40 -7 76h-2q-61 -88 -170 -88q-63 0 -112.5 35.5t-49.5 106.5q0 35 12 61.5t36 43.5t52 27.5t69 16t76.5 7t84.5 1.5zM385 234h-20q-48 0 -85.5 -3.5
t-75 -13.5t-58.5 -31t-21 -53q0 -46 32 -67.5t78 -21.5q69 0 109.5 45t40.5 110v35zM119 647q0 20 14.5 35.5t36.5 15.5t36.5 -15.5t14.5 -35.5t-14.5 -35.5t-36.5 -15.5t-36.5 15.5t-14.5 35.5zM311 647q0 20 14.5 35.5t36.5 15.5t36.5 -15.5t14.5 -35.5t-14.5 -35.5
t-36.5 -15.5t-36.5 15.5t-14.5 35.5z" />
    <glyph glyph-name="aring" unicode="&#xe5;" horiz-adv-x="534" 
d="M385 287v15q0 121 -125 121q-84 0 -139 -55l-38 45q67 67 184 67q80 0 131 -44t51 -126v-205q0 -63 8 -105h-61q-7 40 -7 76h-2q-61 -88 -170 -88q-63 0 -112.5 35.5t-49.5 106.5q0 35 12 61.5t36 43.5t52 27.5t69 16t76.5 7t84.5 1.5zM385 234h-20q-48 0 -85.5 -3.5
t-75 -13.5t-58.5 -31t-21 -53q0 -46 32 -67.5t78 -21.5q69 0 109.5 45t40.5 110v35zM361 650q0 -40 -28.5 -67.5t-67.5 -27.5t-67.5 27.5t-28.5 67.5t28.5 67.5t67.5 27.5t67.5 -27.5t28.5 -67.5zM325 650q0 25 -17.5 42t-42.5 17t-42.5 -17t-17.5 -42t17.5 -42t42.5 -17
t42.5 17t17.5 42z" />
    <glyph glyph-name="ae" unicode="&#xe6;" horiz-adv-x="870" 
d="M814 248q0 -23 -1 -32h-370q2 -71 48.5 -121t114.5 -50q47 0 84.5 23.5t58.5 57.5l49 -39q-75 -99 -192 -99q-65 0 -113.5 29t-72.5 80q-46 -109 -195 -109q-69 0 -119 34t-50 103q0 38 19 66t47.5 43t74.5 23.5t86.5 10.5t96.5 2v15q0 63 -30.5 100.5t-89.5 37.5
q-84 0 -144 -55l-39 44q31 30 83 49t110 19q56 0 96.5 -26t57.5 -72q28 45 75 71.5t102 26.5q101 0 157 -65.5t56 -166.5zM446 270h299q0 68 -39 110.5t-105 42.5q-61 0 -107 -46t-48 -107zM380 216h-20q-53 0 -89 -3t-72.5 -11.5t-54.5 -27.5t-18 -48q0 -83 111 -83
q70 0 106.5 37.5t36.5 101.5v34z" />
    <glyph glyph-name="ccedilla" unicode="&#xe7;" horiz-adv-x="500" 
d="M480 399l-53 -38q-17 27 -49.5 44.5t-70.5 17.5q-80 0 -129.5 -53.5t-49.5 -135.5q0 -81 49 -134.5t129 -53.5q81 0 127 61l51 -38q-64 -78 -172 -81l-39 -63q13 4 35 4q33 0 57.5 -19t24.5 -53q0 -46 -35 -66.5t-83 -20.5q-51 0 -94 20l16 36q31 -14 72 -14
q21 0 42.5 11t21.5 33q0 39 -54 39q-22 0 -43 -8l-18 15l55 88q-97 11 -155.5 78.5t-58.5 165.5q0 107 69 176.5t181 69.5q50 0 97.5 -21t76.5 -60z" />
    <glyph glyph-name="egrave" unicode="&#xe8;" horiz-adv-x="572" 
d="M128 270h319q-3 68 -43.5 110.5t-111.5 42.5q-66 0 -112.5 -45.5t-51.5 -107.5zM516 248q0 -20 -1 -32h-388q2 -71 51 -120.5t120 -49.5q49 0 89 23.5t61 57.5l51 -40q-78 -99 -201 -99q-104 0 -173 70t-69 176q0 105 68 175.5t168 70.5q106 0 165 -65.5t59 -166.5z
M282 564l-132 144h91l100 -144h-59z" />
    <glyph glyph-name="eacute" unicode="&#xe9;" horiz-adv-x="572" 
d="M128 270h319q-3 68 -43.5 110.5t-111.5 42.5q-66 0 -112.5 -45.5t-51.5 -107.5zM516 248q0 -20 -1 -32h-388q2 -71 51 -120.5t120 -49.5q49 0 89 23.5t61 57.5l51 -40q-78 -99 -201 -99q-104 0 -173 70t-69 176q0 105 68 175.5t168 70.5q106 0 165 -65.5t59 -166.5z
M442 708l-132 -144h-59l100 144h91z" />
    <glyph glyph-name="ecircumflex" unicode="&#xea;" horiz-adv-x="572" 
d="M128 270h319q-3 68 -43.5 110.5t-111.5 42.5q-66 0 -112.5 -45.5t-51.5 -107.5zM516 248q0 -20 -1 -32h-388q2 -71 51 -120.5t120 -49.5q49 0 89 23.5t61 57.5l51 -40q-78 -99 -201 -99q-104 0 -173 70t-69 176q0 105 68 175.5t168 70.5q106 0 165 -65.5t59 -166.5z
M339 708l109 -144h-66l-83 108l-83 -108h-66l109 144h80z" />
    <glyph glyph-name="edieresis" unicode="&#xeb;" horiz-adv-x="572" 
d="M128 270h319q-3 68 -43.5 110.5t-111.5 42.5q-66 0 -112.5 -45.5t-51.5 -107.5zM516 248q0 -20 -1 -32h-388q2 -71 51 -120.5t120 -49.5q49 0 89 23.5t61 57.5l51 -40q-78 -99 -201 -99q-104 0 -173 70t-69 176q0 105 68 175.5t168 70.5q106 0 165 -65.5t59 -166.5z
M152 647q0 20 14.5 35.5t36.5 15.5t36.5 -15.5t14.5 -35.5t-14.5 -35.5t-36.5 -15.5t-36.5 15.5t-14.5 35.5zM344 647q0 20 14.5 35.5t36.5 15.5t36.5 -15.5t14.5 -35.5t-14.5 -35.5t-36.5 -15.5t-36.5 15.5t-14.5 35.5z" />
    <glyph glyph-name="igrave" unicode="&#xec;" horiz-adv-x="250" 
d="M159 468v-468h-68v468h68zM99 564l-132 144h91l100 -144h-59z" />
    <glyph glyph-name="iacute" unicode="&#xed;" horiz-adv-x="250" 
d="M159 468v-468h-68v468h68zM282 708l-132 -144h-59l100 144h91z" />
    <glyph glyph-name="icircumflex" unicode="&#xee;" horiz-adv-x="250" 
d="M159 468v-468h-68v468h68zM167 708l109 -144h-66l-83 108l-83 -108h-66l109 144h80z" />
    <glyph glyph-name="idieresis" unicode="&#xef;" horiz-adv-x="250" 
d="M159 468v-468h-68v468h68zM-21 647q0 20 14.5 35.5t36.5 15.5t36.5 -15.5t14.5 -35.5t-14.5 -35.5t-36.5 -15.5t-36.5 15.5t-14.5 35.5zM171 647q0 20 14.5 35.5t36.5 15.5t36.5 -15.5t14.5 -35.5t-14.5 -35.5t-36.5 -15.5t-36.5 15.5t-14.5 35.5z" />
    <glyph glyph-name="eth" unicode="&#xf0;" horiz-adv-x="611" 
d="M120 234q0 -80 48.5 -133t127.5 -53q80 0 128.5 53t48.5 133t-48.5 133t-128.5 53q-79 0 -127.5 -53t-48.5 -133zM455 714l-103 -54q86 -80 139.5 -187t53.5 -221q0 -48 -13.5 -92.5t-41.5 -84t-78 -63.5t-116 -24q-108 0 -178 70t-70 176t70 176t178 70q80 0 150 -58
l2 2q-57 120 -156 205l-112 -57l-36 36l110 56q-29 28 -100 77l59 37q60 -44 100 -82l102 53z" />
    <glyph glyph-name="ntilde" unicode="&#xf1;" horiz-adv-x="581" 
d="M86 468h65q4 -50 4 -80h2q19 40 64.5 66t95.5 26q87 0 132.5 -52t45.5 -141v-287h-68v259q0 79 -28.5 121.5t-98.5 42.5q-59 0 -100.5 -47.5t-41.5 -135.5v-240h-68v365q0 60 -4 103zM174 576h-43q18 104 92 104q27 0 73 -23q50 -23 67 -23q37 0 49 50h43
q-18 -104 -92 -104q-29 0 -73 23t-67 23q-37 0 -49 -50z" />
    <glyph glyph-name="ograve" unicode="&#xf2;" horiz-adv-x="611" 
d="M555 234q0 -106 -70.5 -176t-179.5 -70q-108 0 -178.5 70t-70.5 176t70.5 176t178.5 70q109 0 179.5 -70t70.5 -176zM483 234q0 81 -49 135t-129 54q-79 0 -128 -54t-49 -135q0 -80 49 -134t128 -54q80 0 129 53.5t49 134.5zM285 564l-132 144h91l100 -144h-59z" />
    <glyph glyph-name="oacute" unicode="&#xf3;" horiz-adv-x="611" 
d="M555 234q0 -106 -70.5 -176t-179.5 -70q-108 0 -178.5 70t-70.5 176t70.5 176t178.5 70q109 0 179.5 -70t70.5 -176zM483 234q0 81 -49 135t-129 54q-79 0 -128 -54t-49 -135q0 -80 49 -134t128 -54q80 0 129 53.5t49 134.5zM455 708l-132 -144h-59l100 144h91z" />
    <glyph glyph-name="ocircumflex" unicode="&#xf4;" horiz-adv-x="611" 
d="M555 234q0 -106 -70.5 -176t-179.5 -70q-108 0 -178.5 70t-70.5 176t70.5 176t178.5 70q109 0 179.5 -70t70.5 -176zM483 234q0 81 -49 135t-129 54q-79 0 -128 -54t-49 -135q0 -80 49 -134t128 -54q80 0 129 53.5t49 134.5zM345 708l109 -144h-66l-83 108l-83 -108h-66
l109 144h80z" />
    <glyph glyph-name="otilde" unicode="&#xf5;" horiz-adv-x="611" 
d="M555 234q0 -106 -70.5 -176t-179.5 -70q-108 0 -178.5 70t-70.5 176t70.5 176t178.5 70q109 0 179.5 -70t70.5 -176zM483 234q0 81 -49 135t-129 54q-79 0 -128 -54t-49 -135q0 -80 49 -134t128 -54q80 0 129 53.5t49 134.5zM186 576h-43q18 104 92 104q27 0 73 -23
q50 -23 67 -23q37 0 49 50h43q-18 -104 -92 -104q-29 0 -73 23t-67 23q-37 0 -49 -50z" />
    <glyph glyph-name="odieresis" unicode="&#xf6;" horiz-adv-x="611" 
d="M555 234q0 -106 -70.5 -176t-179.5 -70q-108 0 -178.5 70t-70.5 176t70.5 176t178.5 70q109 0 179.5 -70t70.5 -176zM483 234q0 81 -49 135t-129 54q-79 0 -128 -54t-49 -135q0 -80 49 -134t128 -54q80 0 129 53.5t49 134.5zM158 647q0 20 14.5 35.5t36.5 15.5
t36.5 -15.5t14.5 -35.5t-14.5 -35.5t-36.5 -15.5t-36.5 15.5t-14.5 35.5zM350 647q0 20 14.5 35.5t36.5 15.5t36.5 -15.5t14.5 -35.5t-14.5 -35.5t-36.5 -15.5t-36.5 15.5t-14.5 35.5z" />
    <glyph glyph-name="divide" unicode="&#xf7;" horiz-adv-x="666" 
d="M588 333v-60h-510v60h510zM387 465q0 -22 -15.5 -38t-38.5 -16t-38.5 16t-15.5 38t15.5 38t38.5 16t38.5 -16t15.5 -38zM387 141q0 -22 -15.5 -38t-38.5 -16t-38.5 16t-15.5 38t15.5 38t38.5 16t38.5 -16t15.5 -38z" />
    <glyph glyph-name="oslash" unicode="&#xf8;" horiz-adv-x="611" 
d="M450 351l-262 -269q49 -39 115 -39q82 0 132.5 54.5t50.5 136.5q0 74 -36 117zM159 116l262 269q-40 40 -116 40q-81 0 -130.5 -54.5t-49.5 -136.5q0 -73 34 -118zM561 465l-66 -68q60 -68 60 -163q0 -106 -71 -176t-180 -70q-92 0 -157 52l-67 -68l-32 31l66 68
q-58 67 -58 163q0 106 70 176t178 70q91 0 159 -52l66 68z" />
    <glyph glyph-name="ugrave" unicode="&#xf9;" horiz-adv-x="581" 
d="M495 0h-65q-4 50 -4 80h-2q-19 -40 -64.5 -66t-95.5 -26q-87 0 -132.5 52t-45.5 141v287h68v-259q0 -79 28.5 -121.5t98.5 -42.5q59 0 100.5 47.5t41.5 135.5v240h68v-365q0 -60 4 -103zM277 564l-132 144h91l100 -144h-59z" />
    <glyph glyph-name="uacute" unicode="&#xfa;" horiz-adv-x="581" 
d="M495 0h-65q-4 50 -4 80h-2q-19 -40 -64.5 -66t-95.5 -26q-87 0 -132.5 52t-45.5 141v287h68v-259q0 -79 28.5 -121.5t98.5 -42.5q59 0 100.5 47.5t41.5 135.5v240h68v-365q0 -60 4 -103zM432 708l-132 -144h-59l100 144h91z" />
    <glyph glyph-name="ucircumflex" unicode="&#xfb;" horiz-adv-x="581" 
d="M495 0h-65q-4 50 -4 80h-2q-19 -40 -64.5 -66t-95.5 -26q-87 0 -132.5 52t-45.5 141v287h68v-259q0 -79 28.5 -121.5t98.5 -42.5q59 0 100.5 47.5t41.5 135.5v240h68v-365q0 -60 4 -103zM329 708l109 -144h-66l-83 108l-83 -108h-66l109 144h80z" />
    <glyph glyph-name="udieresis" unicode="&#xfc;" horiz-adv-x="581" 
d="M495 0h-65q-4 50 -4 80h-2q-19 -40 -64.5 -66t-95.5 -26q-87 0 -132.5 52t-45.5 141v287h68v-259q0 -79 28.5 -121.5t98.5 -42.5q59 0 100.5 47.5t41.5 135.5v240h68v-365q0 -60 4 -103zM142 647q0 20 14.5 35.5t36.5 15.5t36.5 -15.5t14.5 -35.5t-14.5 -35.5
t-36.5 -15.5t-36.5 15.5t-14.5 35.5zM334 647q0 20 14.5 35.5t36.5 15.5t36.5 -15.5t14.5 -35.5t-14.5 -35.5t-36.5 -15.5t-36.5 15.5t-14.5 35.5z" />
    <glyph glyph-name="yacute" unicode="&#xfd;" horiz-adv-x="488" 
d="M92 468l159 -395h2l145 395h74l-233 -589q-23 -59 -56.5 -89t-90.5 -30q-31 0 -61 6l7 62q24 -8 50 -8q33 0 53.5 20.5t36.5 62.5l38 98l-200 467h76zM399 708l-132 -144h-59l100 144h91z" />
    <glyph glyph-name="thorn" unicode="&#xfe;" horiz-adv-x="633" 
d="M334 -12q-53 0 -99.5 23t-74.5 68h-2v-319h-66v996h66v-369h2q29 45 75.5 69t98.5 24q104 0 173.5 -70t69.5 -176t-69.5 -176t-173.5 -70zM505 234q0 80 -48.5 133t-128.5 53q-79 0 -127.5 -53t-48.5 -133t48.5 -133t127.5 -53q80 0 128.5 53t48.5 133z" />
    <glyph glyph-name="ydieresis" unicode="&#xff;" horiz-adv-x="488" 
d="M92 468l159 -395h2l145 395h74l-233 -589q-23 -59 -56.5 -89t-90.5 -30q-31 0 -61 6l7 62q24 -8 50 -8q33 0 53.5 20.5t36.5 62.5l38 98l-200 467h76zM105 647q0 20 14.5 35.5t36.5 15.5t36.5 -15.5t14.5 -35.5t-14.5 -35.5t-36.5 -15.5t-36.5 15.5t-14.5 35.5zM297 647
q0 20 14.5 35.5t36.5 15.5t36.5 -15.5t14.5 -35.5t-14.5 -35.5t-36.5 -15.5t-36.5 15.5t-14.5 35.5z" />
    <glyph glyph-name="Amacron" unicode="&#x100;" horiz-adv-x="700" 
d="M166 186l-77 -186h-79l306 708h70l304 -708h-80l-78 186h-366zM349 628l-156 -376h312zM486 854v-54h-270v54h270z" />
    <glyph glyph-name="amacron" unicode="&#x101;" horiz-adv-x="534" 
d="M385 287v15q0 121 -125 121q-84 0 -139 -55l-38 45q67 67 184 67q80 0 131 -44t51 -126v-205q0 -63 8 -105h-61q-7 40 -7 76h-2q-61 -88 -170 -88q-63 0 -112.5 35.5t-49.5 106.5q0 35 12 61.5t36 43.5t52 27.5t69 16t76.5 7t84.5 1.5zM385 234h-20q-48 0 -85.5 -3.5
t-75 -13.5t-58.5 -31t-21 -53q0 -46 32 -67.5t78 -21.5q69 0 109.5 45t40.5 110v35zM405 654v-54h-270v54h270z" />
    <glyph glyph-name="Abreve" unicode="&#x102;" horiz-adv-x="700" 
d="M166 186l-77 -186h-79l306 708h70l304 -708h-80l-78 186h-366zM349 628l-156 -376h312zM454 908h44q-4 -61 -44.5 -96.5t-102.5 -35.5t-102.5 35.5t-44.5 96.5h44q6 -38 35 -58t68 -20t68 20t35 58z" />
    <glyph glyph-name="abreve" unicode="&#x103;" horiz-adv-x="534" 
d="M385 287v15q0 121 -125 121q-84 0 -139 -55l-38 45q67 67 184 67q80 0 131 -44t51 -126v-205q0 -63 8 -105h-61q-7 40 -7 76h-2q-61 -88 -170 -88q-63 0 -112.5 35.5t-49.5 106.5q0 35 12 61.5t36 43.5t52 27.5t69 16t76.5 7t84.5 1.5zM385 234h-20q-48 0 -85.5 -3.5
t-75 -13.5t-58.5 -31t-21 -53q0 -46 32 -67.5t78 -21.5q69 0 109.5 45t40.5 110v35zM376 708h44q-4 -61 -44.5 -96.5t-102.5 -35.5t-102.5 35.5t-44.5 96.5h44q6 -38 35 -58t68 -20t68 20t35 58z" />
    <glyph glyph-name="Aogonek" unicode="&#x104;" horiz-adv-x="700" 
d="M682 -147l19 -40q-38 -36 -90 -36q-36 0 -63 24t-27 61q0 66 89 138l-78 186h-366l-77 -186h-79l306 708h70l304 -708h-32q-41 -41 -59 -67.5t-18 -53.5q0 -21 14.5 -34.5t35.5 -13.5q31 0 51 22zM349 628l-156 -376h312z" />
    <glyph glyph-name="aogonek" unicode="&#x105;" horiz-adv-x="534" 
d="M470 -147l19 -40q-38 -36 -90 -36q-37 0 -63.5 24t-26.5 61q0 66 89 138h-2q-7 40 -7 76h-2q-61 -88 -170 -88q-63 0 -112.5 35.5t-49.5 106.5q0 35 12 61.5t36 43.5t52 27.5t69 16t76.5 7t84.5 1.5v15q0 121 -125 121q-84 0 -139 -55l-38 45q67 67 184 67q80 0 131 -44
t51 -126v-205q0 -63 8 -105h-11q-41 -41 -59 -67.5t-18 -53.5q0 -21 14.5 -34.5t35.5 -13.5q31 0 51 22zM385 234h-20q-48 0 -85.5 -3.5t-75 -13.5t-58.5 -31t-21 -53q0 -46 32 -67.5t78 -21.5q69 0 109.5 45t40.5 110v35z" />
    <glyph glyph-name="Cacute" unicode="&#x106;" horiz-adv-x="720" 
d="M634 150l56 -36q-38 -58 -106.5 -95t-158.5 -37q-160 0 -264.5 105.5t-104.5 266.5t105 266.5t264 105.5q78 0 146.5 -30.5t105.5 -81.5l-60 -44q-25 38 -76.5 65.5t-114.5 27.5q-133 0 -213.5 -90t-80.5 -219t81 -219t213 -90q138 0 208 105zM560 908l-132 -144h-59
l100 144h91z" />
    <glyph glyph-name="cacute" unicode="&#x107;" horiz-adv-x="500" 
d="M480 399l-53 -38q-17 27 -49.5 44.5t-70.5 17.5q-80 0 -129.5 -53.5t-49.5 -135.5q0 -81 49 -134.5t129 -53.5q81 0 127 61l51 -38q-66 -81 -178 -81t-181 69.5t-69 176.5t69 176.5t181 69.5q50 0 97.5 -21t76.5 -60zM441 708l-132 -144h-59l100 144h91z" />
    <glyph glyph-name="Ccircumflex" unicode="&#x108;" horiz-adv-x="720" 
d="M634 150l56 -36q-38 -58 -106.5 -95t-158.5 -37q-160 0 -264.5 105.5t-104.5 266.5t105 266.5t264 105.5q78 0 146.5 -30.5t105.5 -81.5l-60 -44q-25 38 -76.5 65.5t-114.5 27.5q-133 0 -213.5 -90t-80.5 -219t81 -219t213 -90q138 0 208 105zM464 908l109 -144h-66
l-83 108l-83 -108h-66l109 144h80z" />
    <glyph glyph-name="ccircumflex" unicode="&#x109;" horiz-adv-x="500" 
d="M480 399l-53 -38q-17 27 -49.5 44.5t-70.5 17.5q-80 0 -129.5 -53.5t-49.5 -135.5q0 -81 49 -134.5t129 -53.5q81 0 127 61l51 -38q-66 -81 -178 -81t-181 69.5t-69 176.5t69 176.5t181 69.5q50 0 97.5 -21t76.5 -60zM343 708l109 -144h-66l-83 108l-83 -108h-66l109 144
h80z" />
    <glyph glyph-name="Cdotaccent" unicode="&#x10a;" horiz-adv-x="720" 
d="M634 150l56 -36q-38 -58 -106.5 -95t-158.5 -37q-160 0 -264.5 105.5t-104.5 266.5t105 266.5t264 105.5q78 0 146.5 -30.5t105.5 -81.5l-60 -44q-25 38 -76.5 65.5t-114.5 27.5q-133 0 -213.5 -90t-80.5 -219t81 -219t213 -90q138 0 208 105zM463 848q0 -20 -14.5 -34
t-33.5 -14t-33.5 14t-14.5 34t14.5 34t33.5 14t33.5 -14t14.5 -34z" />
    <glyph glyph-name="cdotaccent" unicode="&#x10b;" horiz-adv-x="500" 
d="M480 399l-53 -38q-17 27 -49.5 44.5t-70.5 17.5q-80 0 -129.5 -53.5t-49.5 -135.5q0 -81 49 -134.5t129 -53.5q81 0 127 61l51 -38q-66 -81 -178 -81t-181 69.5t-69 176.5t69 176.5t181 69.5q50 0 97.5 -21t76.5 -60zM343 648q0 -20 -14.5 -34t-33.5 -14t-33.5 14
t-14.5 34t14.5 34t33.5 14t33.5 -14t14.5 -34z" />
    <glyph glyph-name="Ccaron" unicode="&#x10c;" horiz-adv-x="720" 
d="M634 150l56 -36q-38 -58 -106.5 -95t-158.5 -37q-160 0 -264.5 105.5t-104.5 266.5t105 266.5t264 105.5q78 0 146.5 -30.5t105.5 -81.5l-60 -44q-25 38 -76.5 65.5t-114.5 27.5q-133 0 -213.5 -90t-80.5 -219t81 -219t213 -90q138 0 208 105zM572 908l-109 -144h-80
l-109 144h66l83 -108l83 108h66z" />
    <glyph glyph-name="ccaron" unicode="&#x10d;" horiz-adv-x="500" 
d="M480 399l-53 -38q-17 27 -49.5 44.5t-70.5 17.5q-80 0 -129.5 -53.5t-49.5 -135.5q0 -81 49 -134.5t129 -53.5q81 0 127 61l51 -38q-66 -81 -178 -81t-181 69.5t-69 176.5t69 176.5t181 69.5q50 0 97.5 -21t76.5 -60zM453 708l-109 -144h-80l-109 144h66l83 -108l83 108
h66z" />
    <glyph glyph-name="Dcaron" unicode="&#x10e;" horiz-adv-x="757" 
d="M94 0v708h235q68 0 133 -22.5t119 -65t87 -112t33 -154.5t-33 -154.5t-87 -112t-119 -65t-133 -22.5h-235zM166 644v-580h143q77 0 138.5 24.5t99.5 66t58 92.5t20 107t-20 107t-58 92.5t-99.5 66t-138.5 24.5h-143zM496 908l-109 -144h-80l-109 144h66l83 -108l83 108
h66z" />
    <glyph glyph-name="dcaron" unicode="&#x10f;" horiz-adv-x="675" 
d="M475 79q-29 -43 -77 -67t-100 -24q-108 0 -175 70.5t-67 175.5t67 175.5t175 70.5q52 0 100 -24.5t77 -68.5h2v369h68v-756h-68v79h-2zM128 234q0 -81 47.5 -134.5t129.5 -53.5q78 0 129 53.5t51 134.5t-51 135t-129 54q-82 0 -129.5 -54t-47.5 -135zM734 708l-76 -185
h-57l62 185h71z" />
    <glyph glyph-name="Dcroat" unicode="&#x110;" horiz-adv-x="757" 
d="M86 0v347h-73v54h73v307h235q68 0 133 -22.5t119 -65t87 -112t33 -154.5t-33 -154.5t-87 -112t-119 -65t-133 -22.5h-235zM158 347v-281h140q78 0 140 24t100 65t57.5 92t19.5 107t-19.5 107t-57.5 92t-100 65t-140 24h-140v-241h258v-54h-258z" />
    <glyph glyph-name="dcroat" unicode="&#x111;" horiz-adv-x="637" 
d="M321 620h156v136h68v-136h56v-50h-56v-570h-68v79h-2q-29 -43 -77 -67t-100 -24q-108 0 -175 70.5t-67 175.5t67 175.5t175 70.5q52 0 100 -24.5t77 -68.5h2v183h-156v50zM128 234q0 -81 47.5 -134.5t129.5 -53.5q78 0 129 53.5t51 134.5t-51 135t-129 54
q-82 0 -129.5 -54t-47.5 -135z" />
    <glyph glyph-name="Emacron" unicode="&#x112;" horiz-adv-x="592" 
d="M166 337v-273h379v-64h-451v708h439v-64h-367v-244h343v-63h-343zM452 854v-54h-270v54h270z" />
    <glyph glyph-name="emacron" unicode="&#x113;" horiz-adv-x="572" 
d="M128 270h319q-3 68 -43.5 110.5t-111.5 42.5q-66 0 -112.5 -45.5t-51.5 -107.5zM516 248q0 -20 -1 -32h-388q2 -71 51 -120.5t120 -49.5q49 0 89 23.5t61 57.5l51 -40q-78 -99 -201 -99q-104 0 -173 70t-69 176q0 105 68 175.5t168 70.5q106 0 165 -65.5t59 -166.5z
M431 654v-54h-270v54h270z" />
    <glyph glyph-name="Ebreve" unicode="&#x114;" horiz-adv-x="592" 
d="M166 337v-273h379v-64h-451v708h439v-64h-367v-244h343v-63h-343zM419 908h44q-4 -61 -44.5 -96.5t-102.5 -35.5t-102.5 35.5t-44.5 96.5h44q6 -38 35 -58t68 -20t68 20t35 58z" />
    <glyph glyph-name="ebreve" unicode="&#x115;" horiz-adv-x="572" 
d="M128 270h319q-3 68 -43.5 110.5t-111.5 42.5q-66 0 -112.5 -45.5t-51.5 -107.5zM516 248q0 -20 -1 -32h-388q2 -71 51 -120.5t120 -49.5q49 0 89 23.5t61 57.5l51 -40q-78 -99 -201 -99q-104 0 -173 70t-69 176q0 105 68 175.5t168 70.5q106 0 165 -65.5t59 -166.5z
M397 708h44q-4 -61 -44.5 -96.5t-102.5 -35.5t-102.5 35.5t-44.5 96.5h44q6 -38 35 -58t68 -20t68 20t35 58z" />
    <glyph glyph-name="Edotaccent" unicode="&#x116;" horiz-adv-x="592" 
d="M166 337v-273h379v-64h-451v708h439v-64h-367v-244h343v-63h-343zM369 848q0 -20 -14.5 -34t-33.5 -14t-33.5 14t-14.5 34t14.5 34t33.5 14t33.5 -14t14.5 -34z" />
    <glyph glyph-name="edotaccent" unicode="&#x117;" horiz-adv-x="572" 
d="M128 270h319q-3 68 -43.5 110.5t-111.5 42.5q-66 0 -112.5 -45.5t-51.5 -107.5zM516 248q0 -20 -1 -32h-388q2 -71 51 -120.5t120 -49.5q49 0 89 23.5t61 57.5l51 -40q-78 -99 -201 -99q-104 0 -173 70t-69 176q0 105 68 175.5t168 70.5q106 0 165 -65.5t59 -166.5z
M342 648q0 -20 -14.5 -34t-33.5 -14t-33.5 14t-14.5 34t14.5 34t33.5 14t33.5 -14t14.5 -34z" />
    <glyph glyph-name="Eogonek" unicode="&#x118;" horiz-adv-x="592" 
d="M553 -147l19 -40q-38 -36 -90 -36q-36 0 -63 24t-27 61q0 66 89 138h-387v708h439v-64h-367v-244h343v-63h-343v-273h379v-64h-16q-41 -41 -59 -67.5t-18 -53.5q0 -21 14.5 -34.5t35.5 -13.5q31 0 51 22z" />
    <glyph glyph-name="eogonek" unicode="&#x119;" horiz-adv-x="572" 
d="M380 -147l19 -40q-38 -36 -90 -36q-37 0 -63.5 24t-26.5 61q0 62 74 126q-102 2 -169.5 71.5t-67.5 174.5t68 175.5t168 70.5q106 0 165 -65.5t59 -166.5q0 -20 -1 -32h-388q2 -71 51 -120.5t120 -49.5q49 0 89 23.5t61 57.5l51 -40q-61 -78 -151 -94
q-36 -37 -52.5 -62.5t-16.5 -51.5q0 -21 14.5 -34.5t35.5 -13.5q31 0 51 22zM128 270h319q-3 68 -43.5 110.5t-111.5 42.5q-66 0 -112.5 -45.5t-51.5 -107.5z" />
    <glyph glyph-name="Ecaron" unicode="&#x11a;" horiz-adv-x="592" 
d="M166 337v-273h379v-64h-451v708h439v-64h-367v-244h343v-63h-343zM466 908l-109 -144h-80l-109 144h66l83 -108l83 108h66z" />
    <glyph glyph-name="ecaron" unicode="&#x11b;" horiz-adv-x="572" 
d="M128 270h319q-3 68 -43.5 110.5t-111.5 42.5q-66 0 -112.5 -45.5t-51.5 -107.5zM516 248q0 -20 -1 -32h-388q2 -71 51 -120.5t120 -49.5q49 0 89 23.5t61 57.5l51 -40q-78 -99 -201 -99q-104 0 -173 70t-69 176q0 105 68 175.5t168 70.5q106 0 165 -65.5t59 -166.5z
M443 708l-109 -144h-80l-109 144h66l83 -108l83 108h66z" />
    <glyph glyph-name="Gcircumflex" unicode="&#x11c;" horiz-adv-x="779" 
d="M681 631l-50 -50q-77 82 -205 82q-132 0 -213 -90t-81 -219q0 -128 81 -218t213 -90q121 0 191 46v215h-165v63h237v-319q-115 -69 -264 -69q-160 0 -264.5 105.5t-104.5 266.5t105 266.5t264 105.5t256 -95zM470 908l109 -144h-66l-83 108l-83 -108h-66l109 144h80z" />
    <glyph glyph-name="gcircumflex" unicode="&#x11d;" horiz-adv-x="632" 
d="M66 -146l49 52q29 -37 78 -61.5t101 -24.5q95 0 139 51t44 133v88h-2q-26 -42 -75.5 -67t-101.5 -25q-108 0 -175 67t-67 171q0 102 67.5 172t174.5 70q53 0 101.5 -24.5t75.5 -68.5h2v81h68v-464q0 -43 -11.5 -82t-37.5 -77.5t-78.5 -61.5t-126.5 -23q-64 0 -123.5 25
t-101.5 69zM128 240q0 -77 47.5 -129.5t129.5 -52.5q79 0 129.5 50.5t50.5 131.5q0 75 -51.5 129t-128.5 54q-82 0 -129.5 -53t-47.5 -130zM348 708l109 -144h-66l-83 108l-83 -108h-66l109 144h80z" />
    <glyph glyph-name="Gbreve" unicode="&#x11e;" horiz-adv-x="779" 
d="M681 631l-50 -50q-77 82 -205 82q-132 0 -213 -90t-81 -219q0 -128 81 -218t213 -90q121 0 191 46v215h-165v63h237v-319q-115 -69 -264 -69q-160 0 -264.5 105.5t-104.5 266.5t105 266.5t264 105.5t256 -95zM529 908h44q-4 -61 -44.5 -96.5t-102.5 -35.5t-102.5 35.5
t-44.5 96.5h44q6 -38 35 -58t68 -20t68 20t35 58z" />
    <glyph glyph-name="gbreve" unicode="&#x11f;" horiz-adv-x="632" 
d="M66 -146l49 52q29 -37 78 -61.5t101 -24.5q95 0 139 51t44 133v88h-2q-26 -42 -75.5 -67t-101.5 -25q-108 0 -175 67t-67 171q0 102 67.5 172t174.5 70q53 0 101.5 -24.5t75.5 -68.5h2v81h68v-464q0 -43 -11.5 -82t-37.5 -77.5t-78.5 -61.5t-126.5 -23q-64 0 -123.5 25
t-101.5 69zM128 240q0 -77 47.5 -129.5t129.5 -52.5q79 0 129.5 50.5t50.5 131.5q0 75 -51.5 129t-128.5 54q-82 0 -129.5 -53t-47.5 -130zM413 708h44q-4 -61 -44.5 -96.5t-102.5 -35.5t-102.5 35.5t-44.5 96.5h44q6 -38 35 -58t68 -20t68 20t35 58z" />
    <glyph glyph-name="Gdotaccent" unicode="&#x120;" horiz-adv-x="779" 
d="M681 631l-50 -50q-77 82 -205 82q-132 0 -213 -90t-81 -219q0 -128 81 -218t213 -90q121 0 191 46v215h-165v63h237v-319q-115 -69 -264 -69q-160 0 -264.5 105.5t-104.5 266.5t105 266.5t264 105.5t256 -95zM473 848q0 -20 -14.5 -34t-33.5 -14t-33.5 14t-14.5 34
t14.5 34t33.5 14t33.5 -14t14.5 -34z" />
    <glyph glyph-name="gdotaccent" unicode="&#x121;" horiz-adv-x="632" 
d="M66 -146l49 52q29 -37 78 -61.5t101 -24.5q95 0 139 51t44 133v88h-2q-26 -42 -75.5 -67t-101.5 -25q-108 0 -175 67t-67 171q0 102 67.5 172t174.5 70q53 0 101.5 -24.5t75.5 -68.5h2v81h68v-464q0 -43 -11.5 -82t-37.5 -77.5t-78.5 -61.5t-126.5 -23q-64 0 -123.5 25
t-101.5 69zM128 240q0 -77 47.5 -129.5t129.5 -52.5q79 0 129.5 50.5t50.5 131.5q0 75 -51.5 129t-128.5 54q-82 0 -129.5 -53t-47.5 -130zM355 648q0 -20 -14.5 -34t-33.5 -14t-33.5 14t-14.5 34t14.5 34t33.5 14t33.5 -14t14.5 -34z" />
    <glyph glyph-name="Gcommaaccent" unicode="&#x122;" horiz-adv-x="783" 
d="M681 631l-50 -50q-77 82 -205 82q-132 0 -213 -90t-81 -219q0 -128 81 -218t213 -90q121 0 191 46v215h-165v63h237v-319q-115 -69 -264 -69q-160 0 -264.5 105.5t-104.5 266.5t105 266.5t264 105.5t256 -95zM476 -45l-76 -185h-57l62 185h71z" />
    <glyph glyph-name="gcommaaccent" unicode="&#x123;" horiz-adv-x="632" 
d="M66 -146l49 52q29 -37 78 -61.5t101 -24.5q95 0 139 51t44 133v88h-2q-26 -42 -75.5 -67t-101.5 -25q-108 0 -175 67t-67 171q0 102 67.5 172t174.5 70q53 0 101.5 -24.5t75.5 -68.5h2v81h68v-464q0 -43 -11.5 -82t-37.5 -77.5t-78.5 -61.5t-126.5 -23q-64 0 -123.5 25
t-101.5 69zM128 240q0 -77 47.5 -129.5t129.5 -52.5q79 0 129.5 50.5t50.5 131.5q0 75 -51.5 129t-128.5 54q-82 0 -129.5 -53t-47.5 -130zM281 564l76 185h57l-62 -185h-71z" />
    <glyph glyph-name="Hcircumflex" unicode="&#x124;" horiz-adv-x="718" 
d="M94 0v708h72v-307h386v307h72v-708h-72v335h-386v-335h-72zM398 908l109 -144h-66l-83 108l-83 -108h-66l109 144h80z" />
    <glyph glyph-name="hcircumflex" unicode="&#x125;" horiz-adv-x="583" 
d="M160 391h2q18 40 62.5 64.5t94.5 24.5q87 0 132.5 -52t45.5 -141v-287h-68v259q0 79 -28.5 121.5t-98.5 42.5q-59 0 -100.5 -47.5t-41.5 -135.5v-240h-68v756h68v-365zM328 940l109 -144h-66l-83 108l-83 -108h-66l109 144h80z" />
    <glyph glyph-name="Hbar" unicode="&#x126;" horiz-adv-x="718" 
d="M94 0v708h72v-158h386v158h72v-708h-72v335h-386v-335h-72zM166 401h386v99h-386v-99z" />
    <glyph glyph-name="hbar" unicode="&#x127;" horiz-adv-x="583" 
d="M38 620h54v136h68v-136h158v-50h-158v-179h2q18 40 62.5 64.5t94.5 24.5q87 0 132.5 -52t45.5 -141v-287h-68v259q0 79 -28.5 121.5t-98.5 42.5q-59 0 -100.5 -47.5t-41.5 -135.5v-240h-68v570h-54v50z" />
    <glyph glyph-name="Itilde" unicode="&#x128;" horiz-adv-x="260" 
d="M166 708v-708h-72v708h72zM12 776h-43q18 104 92 104q27 0 73 -23q50 -23 67 -23q37 0 49 50h43q-18 -104 -92 -104q-29 0 -73 23t-67 23q-37 0 -49 -50z" />
    <glyph glyph-name="itilde" unicode="&#x129;" horiz-adv-x="250" 
d="M159 468v-468h-68v468h68zM8 576h-43q18 104 92 104q27 0 73 -23q50 -23 67 -23q37 0 49 50h43q-18 -104 -92 -104q-29 0 -73 23t-67 23q-37 0 -49 -50z" />
    <glyph glyph-name="Imacron" unicode="&#x12a;" horiz-adv-x="260" 
d="M166 708v-708h-72v708h72zM266 854v-54h-270v54h270z" />
    <glyph glyph-name="imacron" unicode="&#x12b;" horiz-adv-x="250" 
d="M159 468v-468h-68v468h68zM261 654v-54h-270v54h270z" />
    <glyph glyph-name="Ibreve" unicode="&#x12c;" horiz-adv-x="260" 
d="M166 708v-708h-72v708h72zM233 908h44q-4 -61 -44.5 -96.5t-102.5 -35.5t-102.5 35.5t-44.5 96.5h44q6 -38 35 -58t68 -20t68 20t35 58z" />
    <glyph glyph-name="ibreve" unicode="&#x12d;" horiz-adv-x="250" 
d="M159 468v-468h-68v468h68zM228 708h44q-4 -61 -44.5 -96.5t-102.5 -35.5t-102.5 35.5t-44.5 96.5h44q6 -38 35 -58t68 -20t68 20t35 58z" />
    <glyph glyph-name="Iogonek" unicode="&#x12e;" horiz-adv-x="260" 
d="M184 -147l19 -40q-38 -36 -90 -36q-37 0 -63.5 24t-26.5 61q0 66 89 138h-18v708h72v-708h-6q-41 -41 -59 -67.5t-18 -53.5q0 -21 14.5 -34.5t35.5 -13.5q31 0 51 22z" />
    <glyph glyph-name="iogonek" unicode="&#x12f;" horiz-adv-x="250" 
d="M179 -147l19 -40q-38 -36 -90 -36q-36 0 -63 24t-27 61q0 66 89 138h-16v468h68v-468h-4q-41 -41 -59 -67.5t-18 -53.5q0 -21 14.5 -34.5t35.5 -13.5q31 0 51 22zM173 648q0 -20 -14.5 -34t-33.5 -14t-33.5 14t-14.5 34t14.5 34t33.5 14t33.5 -14t14.5 -34z" />
    <glyph glyph-name="Idotaccent" unicode="&#x130;" horiz-adv-x="260" 
d="M166 708v-708h-72v708h72zM179 848q0 -20 -14.5 -34t-33.5 -14t-33.5 14t-14.5 34t14.5 34t33.5 14t33.5 -14t14.5 -34z" />
    <glyph glyph-name="dotlessi" unicode="&#x131;" horiz-adv-x="250" 
d="M159 468v-468h-68v468h68z" />
    <glyph glyph-name="IJ" unicode="&#x132;" horiz-adv-x="734" 
d="M166 708v-708h-72v708h72zM267 126l67 18q9 -43 39.5 -71t75.5 -28q125 0 125 164v499h72v-504q0 -30 -4.5 -58.5t-17.5 -59t-33.5 -53t-54.5 -37t-79 -14.5q-75 0 -126 40t-64 104z" />
    <glyph glyph-name="ij" unicode="&#x133;" horiz-adv-x="498" 
d="M159 468v-468h-68v468h68zM173 648q0 -20 -14.5 -34t-33.5 -14t-33.5 14t-14.5 34t14.5 34t33.5 14t33.5 -14t14.5 -34zM220 -233l10 57q20 -6 43 -6q40 0 53 25t13 75v550h68v-561q0 -147 -133 -147q-30 0 -54 7zM421 648q0 -20 -14.5 -34t-33.5 -14t-33.5 14t-14.5 34
t14.5 34t33.5 14t33.5 -14t14.5 -34z" />
    <glyph glyph-name="Jcircumflex" unicode="&#x134;" horiz-adv-x="492" 
d="M25 126l67 18q9 -43 39.5 -71t75.5 -28q125 0 125 164v499h72v-504q0 -30 -4.5 -58.5t-17.5 -59t-33.5 -53t-54.5 -37t-79 -14.5q-75 0 -126 40t-64 104zM407 908l109 -144h-66l-83 108l-83 -108h-66l109 144h80z" />
    <glyph glyph-name="jcircumflex" unicode="&#x135;" horiz-adv-x="251" 
d="M-27 -233l10 57q20 -6 43 -6q40 0 53 25t13 75v550h68v-561q0 -147 -133 -147q-30 0 -54 7zM166 708l109 -144h-66l-83 108l-83 -108h-66l109 144h80z" />
    <glyph glyph-name="Kcommaaccent" unicode="&#x136;" horiz-adv-x="628" 
d="M166 708v-318h1l337 318h103l-357 -321l377 -387h-106l-354 377h-1v-377h-72v708h72zM388 -45l-76 -185h-57l62 185h71z" />
    <glyph glyph-name="kcommaaccent" unicode="&#x137;" horiz-adv-x="510" 
d="M160 756v-499h3l216 211h98l-236 -214l260 -254h-100l-238 246h-3v-246h-68v756h68zM329 -45l-76 -185h-57l62 185h71z" />
    <glyph glyph-name="kgreenlandic" unicode="&#x138;" horiz-adv-x="510" 
d="M160 468v-211h3l216 211h98l-236 -214l260 -254h-100l-238 246h-3v-246h-68v468h68z" />
    <glyph glyph-name="Lacute" unicode="&#x139;" horiz-adv-x="510" 
d="M166 708v-644h330v-64h-402v708h72zM291 908l-132 -144h-59l100 144h91z" />
    <glyph glyph-name="lacute" unicode="&#x13a;" horiz-adv-x="252" 
d="M160 756v-756h-68v756h68zM285 936l-132 -144h-59l100 144h91z" />
    <glyph glyph-name="Lcommaaccent" unicode="&#x13b;" horiz-adv-x="510" 
d="M166 708v-644h330v-64h-402v708h72zM347 -45l-76 -185h-57l62 185h71z" />
    <glyph glyph-name="lcommaaccent" unicode="&#x13c;" horiz-adv-x="252" 
d="M160 756v-756h-68v756h68zM179 -45l-76 -185h-57l62 185h71z" />
    <glyph glyph-name="Lcaron" unicode="&#x13d;" horiz-adv-x="510" 
d="M166 708v-644h330v-64h-402v708h72zM376 708l-76 -185h-57l62 185h71z" />
    <glyph glyph-name="lcaron" unicode="&#x13e;" horiz-adv-x="291" 
d="M160 756v-756h-68v756h68zM350 708l-76 -185h-57l62 185h71z" />
    <glyph glyph-name="Ldot" unicode="&#x13f;" horiz-adv-x="510" 
d="M166 708v-644h330v-64h-402v708h72zM377 428q0 -20 -14.5 -34t-33.5 -14t-33.5 14t-14.5 34t14.5 34t33.5 14t33.5 -14t14.5 -34z" />
    <glyph glyph-name="ldot" unicode="&#x140;" horiz-adv-x="312" 
d="M160 756v-756h-68v756h68zM312 458q0 -20 -14.5 -34t-33.5 -14t-33.5 14t-14.5 34t14.5 34t33.5 14t33.5 -14t14.5 -34z" />
    <glyph glyph-name="Lslash" unicode="&#x141;" horiz-adv-x="510" 
d="M166 708v-346l216 186v-70l-216 -186v-228h330v-64h-402v242l-82 -70v70l82 70v396h72z" />
    <glyph glyph-name="lslash" unicode="&#x142;" horiz-adv-x="252" 
d="M158 756v-298l81 84v-73l-81 -83v-386h-66v331l-81 -83v73l81 82v353h66z" />
    <glyph glyph-name="Nacute" unicode="&#x143;" horiz-adv-x="764" 
d="M184 708l412 -603h2v603h72v-708h-90l-412 609h-2v-609h-72v708h90zM535 908l-132 -144h-59l100 144h91z" />
    <glyph glyph-name="nacute" unicode="&#x144;" horiz-adv-x="581" 
d="M86 468h65q4 -50 4 -80h2q19 40 64.5 66t95.5 26q87 0 132.5 -52t45.5 -141v-287h-68v259q0 79 -28.5 121.5t-98.5 42.5q-59 0 -100.5 -47.5t-41.5 -135.5v-240h-68v365q0 60 -4 103zM439 708l-132 -144h-59l100 144h91z" />
    <glyph glyph-name="Ncommaaccent" unicode="&#x145;" horiz-adv-x="764" 
d="M184 708l412 -603h2v603h72v-708h-90l-412 609h-2v-609h-72v708h90zM425 -45l-76 -185h-57l62 185h71z" />
    <glyph glyph-name="ncommaaccent" unicode="&#x146;" horiz-adv-x="581" 
d="M86 468h65q4 -50 4 -80h2q19 40 64.5 66t95.5 26q87 0 132.5 -52t45.5 -141v-287h-68v259q0 79 -28.5 121.5t-98.5 42.5q-59 0 -100.5 -47.5t-41.5 -135.5v-240h-68v365q0 60 -4 103zM342 -45l-76 -185h-57l62 185h71z" />
    <glyph glyph-name="Ncaron" unicode="&#x147;" horiz-adv-x="764" 
d="M184 708l412 -603h2v603h72v-708h-90l-412 609h-2v-609h-72v708h90zM532 908l-109 -144h-80l-109 144h66l83 -108l83 108h66z" />
    <glyph glyph-name="ncaron" unicode="&#x148;" horiz-adv-x="581" 
d="M86 468h65q4 -50 4 -80h2q19 40 64.5 66t95.5 26q87 0 132.5 -52t45.5 -141v-287h-68v259q0 79 -28.5 121.5t-98.5 42.5q-59 0 -100.5 -47.5t-41.5 -135.5v-240h-68v365q0 60 -4 103zM442 708l-109 -144h-80l-109 144h66l83 -108l83 108h66z" />
    <glyph glyph-name="Eng" unicode="&#x14a;" horiz-adv-x="764" 
d="M94 0v708h90l412 -584h2v584h72v-801q0 -147 -133 -147q-30 0 -54 7l10 57q19 -6 43 -6q40 0 53 25t13 75v72l-434 619h-2v-609h-72z" />
    <glyph glyph-name="eng" unicode="&#x14b;" horiz-adv-x="581" 
d="M308 -233l10 57q20 -6 43 -6q40 0 53 25t13 75v341q0 79 -28.5 121.5t-98.5 42.5q-59 0 -100.5 -47.5t-41.5 -135.5v-240h-68v365q0 60 -4 103h65q4 -50 4 -80h2q19 40 64.5 66t95.5 26q87 0 132.5 -52t45.5 -141v-380q0 -147 -133 -147q-30 0 -54 7z" />
    <glyph glyph-name="Omacron" unicode="&#x14c;" horiz-adv-x="850" 
d="M794 354q0 -161 -105 -266.5t-264 -105.5t-264 105.5t-105 266.5t105 266.5t264 105.5t264 -105.5t105 -266.5zM718 354q0 129 -80.5 219t-212.5 90t-212.5 -90t-80.5 -219t80.5 -218.5t212.5 -89.5t212.5 89.5t80.5 218.5zM564 854v-54h-270v54h270z" />
    <glyph glyph-name="omacron" unicode="&#x14d;" horiz-adv-x="611" 
d="M555 234q0 -106 -70.5 -176t-179.5 -70q-108 0 -178.5 70t-70.5 176t70.5 176t178.5 70q109 0 179.5 -70t70.5 -176zM483 234q0 81 -49 135t-129 54q-79 0 -128 -54t-49 -135q0 -80 49 -134t128 -54q80 0 129 53.5t49 134.5zM442 654v-54h-270v54h270z" />
    <glyph glyph-name="Obreve" unicode="&#x14e;" horiz-adv-x="850" 
d="M794 354q0 -161 -105 -266.5t-264 -105.5t-264 105.5t-105 266.5t105 266.5t264 105.5t264 -105.5t105 -266.5zM718 354q0 129 -80.5 219t-212.5 90t-212.5 -90t-80.5 -219t80.5 -218.5t212.5 -89.5t212.5 89.5t80.5 218.5zM531 908h44q-4 -61 -44.5 -96.5t-102.5 -35.5
t-102.5 35.5t-44.5 96.5h44q6 -38 35 -58t68 -20t68 20t35 58z" />
    <glyph glyph-name="obreve" unicode="&#x14f;" horiz-adv-x="611" 
d="M555 234q0 -106 -70.5 -176t-179.5 -70q-108 0 -178.5 70t-70.5 176t70.5 176t178.5 70q109 0 179.5 -70t70.5 -176zM483 234q0 81 -49 135t-129 54q-79 0 -128 -54t-49 -135q0 -80 49 -134t128 -54q80 0 129 53.5t49 134.5zM410 708h44q-4 -61 -44.5 -96.5t-102.5 -35.5
t-102.5 35.5t-44.5 96.5h44q6 -38 35 -58t68 -20t68 20t35 58z" />
    <glyph glyph-name="Ohungarumlaut" unicode="&#x150;" horiz-adv-x="850" 
d="M794 354q0 -161 -105 -266.5t-264 -105.5t-264 105.5t-105 266.5t105 266.5t264 105.5t264 -105.5t105 -266.5zM718 354q0 129 -80.5 219t-212.5 90t-212.5 -90t-80.5 -219t80.5 -218.5t212.5 -89.5t212.5 89.5t80.5 218.5zM501 908l-133 -144h-59l101 144h91zM671 908
l-132 -144h-59l100 144h91z" />
    <glyph glyph-name="ohungarumlaut" unicode="&#x151;" horiz-adv-x="611" 
d="M555 234q0 -106 -70.5 -176t-179.5 -70q-108 0 -178.5 70t-70.5 176t70.5 176t178.5 70q109 0 179.5 -70t70.5 -176zM483 234q0 81 -49 135t-129 54q-79 0 -128 -54t-49 -135q0 -80 49 -134t128 -54q80 0 129 53.5t49 134.5zM388 708l-133 -144h-59l101 144h91zM558 708
l-132 -144h-59l100 144h91z" />
    <glyph glyph-name="OE" unicode="&#x152;" horiz-adv-x="992" 
d="M443 708h490v-64h-333v-244h309v-63h-309v-273h345v-64h-502q-68 0 -133 22.5t-119 65t-87 112t-33 154.5t33 154.5t87 112t119 65t133 22.5zM463 644q-77 0 -138.5 -24.5t-99.5 -66t-58 -92.5t-20 -107t20 -107t58 -92.5t99.5 -66t138.5 -24.5h65v580h-65z" />
    <glyph glyph-name="oe" unicode="&#x153;" horiz-adv-x="994" 
d="M713 480q107 0 166 -65.5t59 -166.5q0 -20 -1 -32h-390q2 -71 51.5 -120.5t121.5 -49.5q49 0 89 23.5t61 57.5l51 -40q-78 -99 -202 -99q-67 0 -120 30t-84 84q-32 -54 -86.5 -84t-124.5 -30q-108 0 -178 70t-70 176t70 176t178 70q70 0 124 -30t86 -84q31 53 83 83.5
t116 30.5zM483 234q0 81 -49.5 135t-129.5 54q-79 0 -128.5 -54.5t-49.5 -134.5t49 -134t129 -54t129.5 54t49.5 134zM550 270h319q-3 68 -43.5 110.5t-111.5 42.5q-66 0 -112.5 -45.5t-51.5 -107.5z" />
    <glyph glyph-name="Racute" unicode="&#x154;" horiz-adv-x="599" 
d="M166 331v-331h-72v708h208q112 0 177 -45.5t65 -143.5q0 -77 -50.5 -125t-130.5 -57l207 -337h-88l-196 331h-120zM166 646v-253h125q87 0 134 32t47 94q0 127 -178 127h-128zM422 908l-132 -144h-59l100 144h91z" />
    <glyph glyph-name="racute" unicode="&#x155;" horiz-adv-x="360" 
d="M90 365q0 60 -4 103h65q4 -50 4 -80h2q20 41 60.5 66.5t89.5 25.5q27 0 45 -5l-9 -64q-16 6 -48 6q-59 0 -98 -44.5t-39 -132.5v-240h-68v365zM307 708l-132 -144h-59l100 144h91z" />
    <glyph glyph-name="Rcommaaccent" unicode="&#x156;" horiz-adv-x="599" 
d="M166 331v-331h-72v708h208q112 0 177 -45.5t65 -143.5q0 -77 -50.5 -125t-130.5 -57l207 -337h-88l-196 331h-120zM166 646v-253h125q87 0 134 32t47 94q0 127 -178 127h-128zM366 -45l-76 -185h-57l62 185h71z" />
    <glyph glyph-name="rcommaaccent" unicode="&#x157;" horiz-adv-x="360" 
d="M90 365q0 60 -4 103h65q4 -50 4 -80h2q20 41 60.5 66.5t89.5 25.5q27 0 45 -5l-9 -64q-16 6 -48 6q-59 0 -98 -44.5t-39 -132.5v-240h-68v365zM176 -45l-76 -185h-57l62 185h71z" />
    <glyph glyph-name="Rcaron" unicode="&#x158;" horiz-adv-x="599" 
d="M166 331v-331h-72v708h208q112 0 177 -45.5t65 -143.5q0 -77 -50.5 -125t-130.5 -57l207 -337h-88l-196 331h-120zM166 646v-253h125q87 0 134 32t47 94q0 127 -178 127h-128zM437 908l-109 -144h-80l-109 144h66l83 -108l83 108h66z" />
    <glyph glyph-name="rcaron" unicode="&#x159;" horiz-adv-x="360" 
d="M90 365q0 60 -4 103h65q4 -50 4 -80h2q20 41 60.5 66.5t89.5 25.5q27 0 45 -5l-9 -64q-16 6 -48 6q-59 0 -98 -44.5t-39 -132.5v-240h-68v365zM364 708l-109 -144h-80l-109 144h66l83 -108l83 108h66z" />
    <glyph glyph-name="Sacute" unicode="&#x15a;" horiz-adv-x="564" 
d="M494 640l-57 -46q-50 71 -146 71q-59 0 -105 -35t-46 -98q0 -26 9.5 -47t20.5 -33t36.5 -25t40 -18t47.5 -16q34 -11 44.5 -14.5t40 -15.5t41 -20.5t32 -25.5t29 -34t16 -42t7.5 -55q0 -99 -69 -151.5t-162 -52.5q-67 0 -126.5 27t-96.5 78l62 46q25 -40 67 -64.5
t95 -24.5q61 0 109 36.5t48 100.5q0 29 -10.5 51.5t-23.5 36.5t-40.5 27.5t-45 19.5t-53.5 17q-42 13 -70.5 26t-58.5 35t-45.5 56.5t-15.5 80.5q0 65 35.5 110.5t85 65t105.5 19.5q67 0 120 -24.5t80 -61.5zM434 908l-132 -144h-59l100 144h91z" />
    <glyph glyph-name="sacute" unicode="&#x15b;" horiz-adv-x="444" 
d="M391 396l-52 -39q-15 30 -46 48t-69 18q-41 0 -70 -18.5t-29 -54.5q0 -32 26 -50t86 -30q83 -17 122.5 -50t39.5 -87q0 -74 -51.5 -109.5t-124.5 -35.5q-123 0 -185 91l54 40q19 -32 54.5 -52.5t75.5 -20.5q48 0 79 19.5t31 62.5q0 35 -32.5 54t-105.5 36q-26 6 -45 13
t-41.5 21t-35 37.5t-12.5 54.5q0 67 48.5 101.5t118.5 34.5q50 0 96 -22.5t68 -61.5zM380 708l-132 -144h-59l100 144h91z" />
    <glyph glyph-name="Scircumflex" unicode="&#x15c;" horiz-adv-x="564" 
d="M494 640l-57 -46q-50 71 -146 71q-59 0 -105 -35t-46 -98q0 -26 9.5 -47t20.5 -33t36.5 -25t40 -18t47.5 -16q34 -11 44.5 -14.5t40 -15.5t41 -20.5t32 -25.5t29 -34t16 -42t7.5 -55q0 -99 -69 -151.5t-162 -52.5q-67 0 -126.5 27t-96.5 78l62 46q25 -40 67 -64.5
t95 -24.5q61 0 109 36.5t48 100.5q0 29 -10.5 51.5t-23.5 36.5t-40.5 27.5t-45 19.5t-53.5 17q-42 13 -70.5 26t-58.5 35t-45.5 56.5t-15.5 80.5q0 65 35.5 110.5t85 65t105.5 19.5q67 0 120 -24.5t80 -61.5zM333 908l109 -144h-66l-83 108l-83 -108h-66l109 144h80z" />
    <glyph glyph-name="scircumflex" unicode="&#x15d;" horiz-adv-x="444" 
d="M391 396l-52 -39q-15 30 -46 48t-69 18q-41 0 -70 -18.5t-29 -54.5q0 -32 26 -50t86 -30q83 -17 122.5 -50t39.5 -87q0 -74 -51.5 -109.5t-124.5 -35.5q-123 0 -185 91l54 40q19 -32 54.5 -52.5t75.5 -20.5q48 0 79 19.5t31 62.5q0 35 -32.5 54t-105.5 36q-26 6 -45 13
t-41.5 21t-35 37.5t-12.5 54.5q0 67 48.5 101.5t118.5 34.5q50 0 96 -22.5t68 -61.5zM270 708l109 -144h-66l-83 108l-83 -108h-66l109 144h80z" />
    <glyph glyph-name="Scedilla" unicode="&#x15e;" horiz-adv-x="564" 
d="M494 640l-57 -46q-50 71 -146 71q-59 0 -105 -35t-46 -98q0 -26 9.5 -47t20.5 -33t36.5 -25t40 -18t47.5 -16q34 -11 44.5 -14.5t40 -15.5t41 -20.5t32 -25.5t29 -34t16 -42t7.5 -55q0 -92 -59.5 -144t-145.5 -59l-36 -58q13 4 35 4q33 0 57.5 -19t24.5 -53
q0 -46 -35 -66.5t-83 -20.5q-51 0 -94 20l16 36q31 -14 72 -14q21 0 42.5 11t21.5 33q0 39 -54 39q-22 0 -43 -8l-18 15l51 81q-62 3 -117 29.5t-89 74.5l62 46q25 -40 67 -64.5t95 -24.5q61 0 109 36.5t48 100.5q0 29 -10.5 51.5t-23.5 36.5t-40.5 27.5t-45 19.5t-53.5 17
q-42 13 -70.5 26t-58.5 35t-45.5 56.5t-15.5 80.5q0 65 35.5 110.5t85 65t105.5 19.5q67 0 120 -24.5t80 -61.5z" />
    <glyph glyph-name="scedilla" unicode="&#x15f;" horiz-adv-x="444" 
d="M391 396l-52 -39q-15 30 -46 48t-69 18q-41 0 -70 -18.5t-29 -54.5q0 -32 26 -50t86 -30q83 -17 122.5 -50t39.5 -87q0 -66 -42 -101t-106 -42l-40 -65q13 4 35 4q33 0 57.5 -19t24.5 -53q0 -46 -35 -66.5t-83 -20.5q-51 0 -94 20l16 36q31 -14 72 -14q21 0 42.5 11
t21.5 33q0 39 -54 39q-22 0 -43 -8l-18 15l54 87q-113 7 -169 90l54 40q19 -32 54.5 -52.5t75.5 -20.5q48 0 79 19.5t31 62.5q0 35 -32.5 54t-105.5 36q-26 6 -45 13t-41.5 21t-35 37.5t-12.5 54.5q0 67 48.5 101.5t118.5 34.5q50 0 96 -22.5t68 -61.5z" />
    <glyph glyph-name="Scaron" unicode="&#x160;" horiz-adv-x="564" 
d="M494 640l-57 -46q-50 71 -146 71q-59 0 -105 -35t-46 -98q0 -26 9.5 -47t20.5 -33t36.5 -25t40 -18t47.5 -16q34 -11 44.5 -14.5t40 -15.5t41 -20.5t32 -25.5t29 -34t16 -42t7.5 -55q0 -99 -69 -151.5t-162 -52.5q-67 0 -126.5 27t-96.5 78l62 46q25 -40 67 -64.5
t95 -24.5q61 0 109 36.5t48 100.5q0 29 -10.5 51.5t-23.5 36.5t-40.5 27.5t-45 19.5t-53.5 17q-42 13 -70.5 26t-58.5 35t-45.5 56.5t-15.5 80.5q0 65 35.5 110.5t85 65t105.5 19.5q67 0 120 -24.5t80 -61.5zM435 908l-109 -144h-80l-109 144h66l83 -108l83 108h66z" />
    <glyph glyph-name="scaron" unicode="&#x161;" horiz-adv-x="444" 
d="M391 396l-52 -39q-15 30 -46 48t-69 18q-41 0 -70 -18.5t-29 -54.5q0 -32 26 -50t86 -30q83 -17 122.5 -50t39.5 -87q0 -74 -51.5 -109.5t-124.5 -35.5q-123 0 -185 91l54 40q19 -32 54.5 -52.5t75.5 -20.5q48 0 79 19.5t31 62.5q0 35 -32.5 54t-105.5 36q-26 6 -45 13
t-41.5 21t-35 37.5t-12.5 54.5q0 67 48.5 101.5t118.5 34.5q50 0 96 -22.5t68 -61.5zM379 708l-109 -144h-80l-109 144h66l83 -108l83 108h66z" />
    <glyph glyph-name="uni0162" unicode="&#x162;" horiz-adv-x="570" 
d="M321 644v-644h-72v644h-237v64h546v-64h-237zM338 -45l-76 -185h-57l62 185h71z" />
    <glyph glyph-name="uni0163" unicode="&#x163;" horiz-adv-x="317" 
d="M301 468v-57h-132v-273q0 -49 18 -67.5t52 -18.5q29 0 59 15l3 -59q-37 -14 -80 -14q-48 0 -84 28t-36 97v292h-97v57h97v132h68v-132h132zM250 -45l-76 -185h-57l62 185h71z" />
    <glyph glyph-name="Tcaron" unicode="&#x164;" horiz-adv-x="570" 
d="M321 644v-644h-72v644h-237v64h546v-64h-237zM434 908l-109 -144h-80l-109 144h66l83 -108l83 108h66z" />
    <glyph glyph-name="tcaron" unicode="&#x165;" horiz-adv-x="327" 
d="M301 468v-57h-132v-273q0 -49 18 -67.5t52 -18.5q29 0 59 15l3 -59q-37 -14 -80 -14q-48 0 -84 28t-36 97v292h-97v57h97v132h68v-132h132zM358 731l-76 -185h-57l62 185h71z" />
    <glyph glyph-name="Tbar" unicode="&#x166;" horiz-adv-x="570" 
d="M73 543h176v101h-237v64h546v-64h-237v-101h166v-50h-166v-493h-72v493h-176v50z" />
    <glyph glyph-name="tbar" unicode="&#x167;" horiz-adv-x="317" 
d="M12 314h89v97h-97v57h97v132h68v-132h132v-57h-132v-97h123v-50h-123v-126q0 -49 18 -67.5t52 -18.5q29 0 59 15l3 -59q-37 -14 -80 -14q-48 0 -84 28t-36 97v145h-89v50z" />
    <glyph glyph-name="Utilde" unicode="&#x168;" horiz-adv-x="710" 
d="M355 -18q-61 0 -108.5 18.5t-76.5 46.5t-47.5 67t-25.5 75.5t-7 74.5v444h72v-436q0 -96 46.5 -161t146.5 -65t146.5 65t46.5 161v436h72v-444q0 -38 -7 -74.5t-25.5 -75.5t-47.5 -67t-76.5 -46.5t-108.5 -18.5zM236 776h-43q18 104 92 104q27 0 73 -23q50 -23 67 -23
q37 0 49 50h43q-18 -104 -92 -104q-29 0 -73 23t-67 23q-37 0 -49 -50z" />
    <glyph glyph-name="utilde" unicode="&#x169;" horiz-adv-x="581" 
d="M495 0h-65q-4 50 -4 80h-2q-19 -40 -64.5 -66t-95.5 -26q-87 0 -132.5 52t-45.5 141v287h68v-259q0 -79 28.5 -121.5t98.5 -42.5q59 0 100.5 47.5t41.5 135.5v240h68v-365q0 -60 4 -103zM172 576h-43q18 104 92 104q27 0 73 -23q50 -23 67 -23q37 0 49 50h43
q-18 -104 -92 -104q-29 0 -73 23t-67 23q-37 0 -49 -50z" />
    <glyph glyph-name="Umacron" unicode="&#x16a;" horiz-adv-x="710" 
d="M355 -18q-61 0 -108.5 18.5t-76.5 46.5t-47.5 67t-25.5 75.5t-7 74.5v444h72v-436q0 -96 46.5 -161t146.5 -65t146.5 65t46.5 161v436h72v-444q0 -38 -7 -74.5t-25.5 -75.5t-47.5 -67t-76.5 -46.5t-108.5 -18.5zM491 854v-54h-270v54h270z" />
    <glyph glyph-name="umacron" unicode="&#x16b;" horiz-adv-x="581" 
d="M495 0h-65q-4 50 -4 80h-2q-19 -40 -64.5 -66t-95.5 -26q-87 0 -132.5 52t-45.5 141v287h68v-259q0 -79 28.5 -121.5t98.5 -42.5q59 0 100.5 47.5t41.5 135.5v240h68v-365q0 -60 4 -103zM425 654v-54h-270v54h270z" />
    <glyph glyph-name="Ubreve" unicode="&#x16c;" horiz-adv-x="710" 
d="M355 -18q-61 0 -108.5 18.5t-76.5 46.5t-47.5 67t-25.5 75.5t-7 74.5v444h72v-436q0 -96 46.5 -161t146.5 -65t146.5 65t46.5 161v436h72v-444q0 -38 -7 -74.5t-25.5 -75.5t-47.5 -67t-76.5 -46.5t-108.5 -18.5zM458 908h44q-4 -61 -44.5 -96.5t-102.5 -35.5t-102.5 35.5
t-44.5 96.5h44q6 -38 35 -58t68 -20t68 20t35 58z" />
    <glyph glyph-name="ubreve" unicode="&#x16d;" horiz-adv-x="581" 
d="M495 0h-65q-4 50 -4 80h-2q-19 -40 -64.5 -66t-95.5 -26q-87 0 -132.5 52t-45.5 141v287h68v-259q0 -79 28.5 -121.5t98.5 -42.5q59 0 100.5 47.5t41.5 135.5v240h68v-365q0 -60 4 -103zM395 708h44q-4 -61 -44.5 -96.5t-102.5 -35.5t-102.5 35.5t-44.5 96.5h44
q6 -38 35 -58t68 -20t68 20t35 58z" />
    <glyph glyph-name="Uring" unicode="&#x16e;" horiz-adv-x="710" 
d="M355 -18q-61 0 -108.5 18.5t-76.5 46.5t-47.5 67t-25.5 75.5t-7 74.5v444h72v-436q0 -96 46.5 -161t146.5 -65t146.5 65t46.5 161v436h72v-444q0 -38 -7 -74.5t-25.5 -75.5t-47.5 -67t-76.5 -46.5t-108.5 -18.5zM453 850q0 -40 -28.5 -67.5t-67.5 -27.5t-67.5 27.5
t-28.5 67.5t28.5 67.5t67.5 27.5t67.5 -27.5t28.5 -67.5zM417 850q0 25 -17.5 42t-42.5 17t-42.5 -17t-17.5 -42t17.5 -42t42.5 -17t42.5 17t17.5 42z" />
    <glyph glyph-name="uring" unicode="&#x16f;" horiz-adv-x="581" 
d="M495 0h-65q-4 50 -4 80h-2q-19 -40 -64.5 -66t-95.5 -26q-87 0 -132.5 52t-45.5 141v287h68v-259q0 -79 28.5 -121.5t98.5 -42.5q59 0 100.5 47.5t41.5 135.5v240h68v-365q0 -60 4 -103zM386 650q0 -40 -28.5 -67.5t-67.5 -27.5t-67.5 27.5t-28.5 67.5t28.5 67.5
t67.5 27.5t67.5 -27.5t28.5 -67.5zM350 650q0 25 -17.5 42t-42.5 17t-42.5 -17t-17.5 -42t17.5 -42t42.5 -17t42.5 17t17.5 42z" />
    <glyph glyph-name="Uhungarumlaut" unicode="&#x170;" horiz-adv-x="710" 
d="M355 -18q-61 0 -108.5 18.5t-76.5 46.5t-47.5 67t-25.5 75.5t-7 74.5v444h72v-436q0 -96 46.5 -161t146.5 -65t146.5 65t46.5 161v436h72v-444q0 -38 -7 -74.5t-25.5 -75.5t-47.5 -67t-76.5 -46.5t-108.5 -18.5zM425 908l-133 -144h-59l101 144h91zM595 908l-132 -144
h-59l100 144h91z" />
    <glyph glyph-name="uhungarumlaut" unicode="&#x171;" horiz-adv-x="581" 
d="M495 0h-65q-4 50 -4 80h-2q-19 -40 -64.5 -66t-95.5 -26q-87 0 -132.5 52t-45.5 141v287h68v-259q0 -79 28.5 -121.5t98.5 -42.5q59 0 100.5 47.5t41.5 135.5v240h68v-365q0 -60 4 -103zM362 708l-133 -144h-59l101 144h91zM532 708l-132 -144h-59l100 144h91z" />
    <glyph glyph-name="Uogonek" unicode="&#x172;" horiz-adv-x="710" 
d="M355 -18q-61 0 -108.5 18.5t-76.5 46.5t-47.5 67t-25.5 75.5t-7 74.5v444h72v-436q0 -96 46.5 -161t146.5 -65t146.5 65t46.5 161v436h72v-444q0 -44 -9.5 -85t-31.5 -82t-64 -70.5t-99 -39.5q-34 -34 -49 -58.5t-15 -49.5q0 -21 14.5 -34.5t35.5 -13.5q31 0 51 22
l19 -40q-38 -36 -90 -36q-36 0 -63 24t-27 61q0 60 68 120h-5z" />
    <glyph glyph-name="uogonek" unicode="&#x173;" horiz-adv-x="581" 
d="M503 -147l19 -40q-38 -36 -90 -36q-36 0 -63 24t-27 61q0 66 89 138h-1q-4 50 -4 80h-2q-19 -40 -64.5 -66t-95.5 -26q-87 0 -132.5 52t-45.5 141v287h68v-259q0 -79 28.5 -121.5t98.5 -42.5q59 0 100.5 47.5t41.5 135.5v240h68v-365q0 -60 4 -103h-16q-41 -41 -59 -67.5
t-18 -53.5q0 -21 14.5 -34.5t35.5 -13.5q31 0 51 22z" />
    <glyph glyph-name="Wcircumflex" unicode="&#x174;" horiz-adv-x="972" 
d="M90 708l175 -609h2l177 609h86l177 -609h2l173 609h76l-209 -708h-84l-178 608h-2l-178 -608h-84l-209 708h76zM526 908l109 -144h-66l-83 108l-83 -108h-66l109 144h80z" />
    <glyph glyph-name="wcircumflex" unicode="&#x175;" horiz-adv-x="746" 
d="M26 468h73l113 -380h2l126 380h66l128 -380h2l112 380h72l-148 -468h-74l-125 379h-2l-123 -379h-74zM412 708l109 -144h-66l-83 108l-83 -108h-66l109 144h80z" />
    <glyph glyph-name="Ycircumflex" unicode="&#x176;" horiz-adv-x="602" 
d="M337 305v-305h-72v305l-265 403h90l213 -343l215 343h84zM343 908l109 -144h-66l-83 108l-83 -108h-66l109 144h80z" />
    <glyph glyph-name="ycircumflex" unicode="&#x177;" horiz-adv-x="488" 
d="M92 468l159 -395h2l145 395h74l-233 -589q-23 -59 -56.5 -89t-90.5 -30q-31 0 -61 6l7 62q24 -8 50 -8q33 0 53.5 20.5t36.5 62.5l38 98l-200 467h76zM292 708l109 -144h-66l-83 108l-83 -108h-66l109 144h80z" />
    <glyph glyph-name="Ydieresis" unicode="&#x178;" horiz-adv-x="602" 
d="M337 305v-305h-72v305l-265 403h90l213 -343l215 343h84zM156 847q0 20 14.5 35.5t36.5 15.5t36.5 -15.5t14.5 -35.5t-14.5 -35.5t-36.5 -15.5t-36.5 15.5t-14.5 35.5zM348 847q0 20 14.5 35.5t36.5 15.5t36.5 -15.5t14.5 -35.5t-14.5 -35.5t-36.5 -15.5t-36.5 15.5
t-14.5 35.5z" />
    <glyph glyph-name="Zacute" unicode="&#x179;" horiz-adv-x="572" 
d="M535 708v-60l-413 -584h419v-64h-510v60l414 584h-403v64h493zM431 908l-132 -144h-59l100 144h91z" />
    <glyph glyph-name="zacute" unicode="&#x17a;" horiz-adv-x="442" 
d="M401 468v-48l-280 -361h290v-59h-380v48l279 363h-265v57h356zM373 708l-132 -144h-59l100 144h91z" />
    <glyph glyph-name="Zdotaccent" unicode="&#x17b;" horiz-adv-x="572" 
d="M535 708v-60l-413 -584h419v-64h-510v60l414 584h-403v64h493zM333 848q0 -20 -14.5 -34t-33.5 -14t-33.5 14t-14.5 34t14.5 34t33.5 14t33.5 -14t14.5 -34z" />
    <glyph glyph-name="zdotaccent" unicode="&#x17c;" horiz-adv-x="442" 
d="M401 468v-48l-280 -361h290v-59h-380v48l279 363h-265v57h356zM270 648q0 -20 -14.5 -34t-33.5 -14t-33.5 14t-14.5 34t14.5 34t33.5 14t33.5 -14t14.5 -34z" />
    <glyph glyph-name="Zcaron" unicode="&#x17d;" horiz-adv-x="572" 
d="M535 708v-60l-413 -584h419v-64h-510v60l414 584h-403v64h493zM436 908l-109 -144h-80l-109 144h66l83 -108l83 108h66z" />
    <glyph glyph-name="zcaron" unicode="&#x17e;" horiz-adv-x="442" 
d="M401 468v-48l-280 -361h290v-59h-380v48l279 363h-265v57h356zM374 708l-109 -144h-80l-109 144h66l83 -108l83 108h66z" />
    <glyph glyph-name="florin" unicode="&#x192;" horiz-adv-x="580" 
d="M442 419v-54h-119l-67 -352q-13 -67 -47.5 -109.5t-107.5 -42.5q-47 0 -78 18l27 55q24 -13 53 -13q42 0 59.5 28.5t26.5 77.5l63 338h-108v54h119l27 144q29 157 152 157q55 0 95 -29l-34 -48q-24 17 -57 17q-71 0 -90 -116l-22 -125h108z" />
    <glyph glyph-name="Scommaaccent" unicode="&#x218;" horiz-adv-x="564" 
d="M494 640l-57 -46q-50 71 -146 71q-59 0 -105 -35t-46 -98q0 -26 9.5 -47t20.5 -33t36.5 -25t40 -18t47.5 -16q34 -11 44.5 -14.5t40 -15.5t41 -20.5t32 -25.5t29 -34t16 -42t7.5 -55q0 -99 -69 -151.5t-162 -52.5q-67 0 -126.5 27t-96.5 78l62 46q25 -40 67 -64.5
t95 -24.5q61 0 109 36.5t48 100.5q0 29 -10.5 51.5t-23.5 36.5t-40.5 27.5t-45 19.5t-53.5 17q-42 13 -70.5 26t-58.5 35t-45.5 56.5t-15.5 80.5q0 65 35.5 110.5t85 65t105.5 19.5q67 0 120 -24.5t80 -61.5zM338 -45l-76 -185h-57l62 185h71z" />
    <glyph glyph-name="scommaaccent" unicode="&#x219;" horiz-adv-x="444" 
d="M391 396l-52 -39q-15 30 -46 48t-69 18q-41 0 -70 -18.5t-29 -54.5q0 -32 26 -50t86 -30q83 -17 122.5 -50t39.5 -87q0 -74 -51.5 -109.5t-124.5 -35.5q-123 0 -185 91l54 40q19 -32 54.5 -52.5t75.5 -20.5q48 0 79 19.5t31 62.5q0 35 -32.5 54t-105.5 36q-26 6 -45 13
t-41.5 21t-35 37.5t-12.5 54.5q0 67 48.5 101.5t118.5 34.5q50 0 96 -22.5t68 -61.5zM273 -45l-76 -185h-57l62 185h71z" />
    <glyph glyph-name="uni021A" unicode="&#x21a;" horiz-adv-x="570" 
d="M321 644v-644h-72v644h-237v64h546v-64h-237zM338 -45l-76 -185h-57l62 185h71z" />
    <glyph glyph-name="uni021B" unicode="&#x21b;" horiz-adv-x="317" 
d="M301 468v-57h-132v-273q0 -49 18 -67.5t52 -18.5q29 0 59 15l3 -59q-37 -14 -80 -14q-48 0 -84 28t-36 97v292h-97v57h97v132h68v-132h132zM250 -45l-76 -185h-57l62 185h71z" />
    <glyph glyph-name="dotlessj" unicode="&#x237;" horiz-adv-x="251" 
d="M-27 -233l10 57q20 -6 43 -6q40 0 53 25t13 75v550h68v-561q0 -147 -133 -147q-30 0 -54 7z" />
    <glyph glyph-name="circumflex" unicode="&#x2c6;" 
d="M160 708l109 -144h-66l-83 108l-83 -108h-66l109 144h80z" />
    <glyph glyph-name="caron" unicode="&#x2c7;" 
d="M269 708l-109 -144h-80l-109 144h66l83 -108l83 108h66z" />
    <glyph glyph-name="uni02C9" unicode="&#x2c9;" 
d="M255 854v-54h-270v54h270z" />
    <glyph glyph-name="breve" unicode="&#x2d8;" 
d="M223 708h44q-4 -61 -44.5 -96.5t-102.5 -35.5t-102.5 35.5t-44.5 96.5h44q6 -38 35 -58t68 -20t68 20t35 58z" />
    <glyph glyph-name="dotaccent" unicode="&#x2d9;" 
d="M168 648q0 -20 -14.5 -34t-33.5 -14t-33.5 14t-14.5 34t14.5 34t33.5 14t33.5 -14t14.5 -34z" />
    <glyph glyph-name="ring" unicode="&#x2da;" 
d="M216 650q0 -40 -28.5 -67.5t-67.5 -27.5t-67.5 27.5t-28.5 67.5t28.5 67.5t67.5 27.5t67.5 -27.5t28.5 -67.5zM180 650q0 25 -17.5 42t-42.5 17t-42.5 -17t-17.5 -42t17.5 -42t42.5 -17t42.5 17t17.5 42z" />
    <glyph glyph-name="ogonek" unicode="&#x2db;" 
d="M191 -147l19 -40q-38 -36 -90 -36q-36 0 -63 24t-27 61q0 66 89 138h48q-41 -41 -59 -67.5t-18 -53.5q0 -21 14.5 -34.5t35.5 -13.5q31 0 51 22z" />
    <glyph glyph-name="tilde" unicode="&#x2dc;" 
d="M1 576h-43q18 104 92 104q27 0 73 -23q50 -23 67 -23q37 0 49 50h43q-18 -104 -92 -104q-29 0 -73 23t-67 23q-37 0 -49 -50z" />
    <glyph glyph-name="hungarumlaut" unicode="&#x2dd;" 
d="M131 708l-133 -144h-59l101 144h91zM301 708l-132 -144h-59l100 144h91z" />
    <glyph glyph-name="uni0374" unicode="&#x374;" horiz-adv-x="257" 
d="M198 728l-82 -184h-57l52 184h87z" />
    <glyph glyph-name="uni0375" unicode="&#x375;" horiz-adv-x="257" 
d="M59 -164l82 184h57l-52 -184h-87z" />
    <glyph glyph-name="uni037E" unicode="&#x37e;" horiz-adv-x="300" 
d="M204 420q0 -22 -15.5 -38t-38.5 -16t-38.5 16t-15.5 38t15.5 38t38.5 16t38.5 -16t15.5 -38zM199 95l-81 -235h-60l67 235h74z" />
    <glyph glyph-name="tonos" unicode="&#x384;" horiz-adv-x="257" 
d="M198 708l-80 -144h-59l47 144h92z" />
    <glyph glyph-name="dieresistonos" unicode="&#x385;" horiz-adv-x="306" 
d="M-27 638q0 20 14.5 35.5t36.5 15.5t36.5 -15.5t14.5 -35.5t-14.5 -35.5t-36.5 -15.5t-36.5 15.5t-14.5 35.5zM231 638q0 20 14.5 35.5t36.5 15.5t36.5 -15.5t14.5 -35.5t-14.5 -35.5t-36.5 -15.5t-36.5 15.5t-14.5 35.5zM213 708l-60 -144h-51l25 144h86z" />
    <glyph glyph-name="Alphatonos" unicode="&#x386;" horiz-adv-x="700" 
d="M166 186l-77 -186h-79l306 708h70l304 -708h-80l-78 186h-366zM349 628l-156 -376h312zM196 708l-80 -144h-59l47 144h92z" />
    <glyph glyph-name="anoteleia" unicode="&#x387;" horiz-adv-x="260" 
d="M184 314q0 -22 -15.5 -38t-38.5 -16t-38.5 16t-15.5 38t15.5 38t38.5 16t38.5 -16t15.5 -38z" />
    <glyph glyph-name="Epsilontonos" unicode="&#x388;" horiz-adv-x="592" 
d="M166 337v-273h379v-64h-451v708h439v-64h-367v-244h343v-63h-343zM20 708l-80 -144h-59l47 144h92z" />
    <glyph glyph-name="Etatonos" unicode="&#x389;" horiz-adv-x="718" 
d="M94 0v708h72v-307h386v307h72v-708h-72v335h-386v-335h-72zM20 708l-80 -144h-59l47 144h92z" />
    <glyph glyph-name="Iotatonos" unicode="&#x38a;" horiz-adv-x="260" 
d="M166 708v-708h-72v708h72zM20 708l-80 -144h-59l47 144h92z" />
    <glyph glyph-name="Omicrontonos" unicode="&#x38c;" horiz-adv-x="850" 
d="M794 354q0 -161 -105 -266.5t-264 -105.5t-264 105.5t-105 266.5t105 266.5t264 105.5t264 -105.5t105 -266.5zM718 354q0 129 -80.5 219t-212.5 90t-212.5 -90t-80.5 -219t80.5 -218.5t212.5 -89.5t212.5 89.5t80.5 218.5zM80 708l-80 -144h-59l47 144h92z" />
    <glyph glyph-name="Upsilontonos" unicode="&#x38e;" horiz-adv-x="602" 
d="M337 305v-305h-72v305l-265 403h90l213 -343l215 343h84zM-50 708l-80 -144h-59l47 144h92z" />
    <glyph glyph-name="Omegatonos" unicode="&#x38f;" horiz-adv-x="773" 
d="M387 663q-118 0 -184.5 -73.5t-66.5 -183.5q0 -99 51.5 -164t139.5 -87v-155h-260v60h202v46q-98 31 -153.5 110.5t-55.5 188.5q0 147 94 234t233 87q141 0 233.5 -88t92.5 -233q0 -109 -55 -188.5t-154 -110.5v-46h202v-60h-260v155q90 22 140.5 87.5t50.5 163.5
q0 108 -65.5 182.5t-184.5 74.5zM60 708l-80 -144h-59l47 144h92z" />
    <glyph glyph-name="iotadieresistonos" unicode="&#x390;" horiz-adv-x="316" 
d="M154 468v-330q0 -49 18 -67.5t52 -18.5q29 0 59 15l3 -59q-37 -14 -80 -14q-48 0 -84 28t-36 97v349h68zM-32 638q0 20 14.5 35.5t36.5 15.5t36.5 -15.5t14.5 -35.5t-14.5 -35.5t-36.5 -15.5t-36.5 15.5t-14.5 35.5zM226 638q0 20 14.5 35.5t36.5 15.5t36.5 -15.5
t14.5 -35.5t-14.5 -35.5t-36.5 -15.5t-36.5 15.5t-14.5 35.5zM208 708l-60 -144h-51l25 144h86z" />
    <glyph glyph-name="Alpha" unicode="&#x391;" horiz-adv-x="700" 
d="M166 186l-77 -186h-79l306 708h70l304 -708h-80l-78 186h-366zM349 628l-156 -376h312z" />
    <glyph glyph-name="Beta" unicode="&#x392;" horiz-adv-x="636" 
d="M94 0v708h211q44 0 82 -8.5t72 -28t54 -56.5t20 -88q0 -56 -34.5 -97.5t-90.5 -54.5v-2q71 -8 115.5 -55t44.5 -122q0 -89 -71 -142.5t-193 -53.5h-210zM166 646v-248h145q61 0 105.5 30t44.5 94t-47 94t-123 30h-125zM166 339v-277h134q85 0 140 34t55 104q0 69 -47 104
t-135 35h-147z" />
    <glyph glyph-name="Gamma" unicode="&#x393;" horiz-adv-x="542" 
d="M166 644v-644h-72v708h407v-64h-335z" />
    <glyph glyph-name="uni0394" unicode="&#x394;" horiz-adv-x="698" 
d="M673 0h-648v49l290 659h70l288 -659v-49zM587 65l-239 562l-238 -562h477z" />
    <glyph glyph-name="Epsilon" unicode="&#x395;" horiz-adv-x="592" 
d="M166 337v-273h379v-64h-451v708h439v-64h-367v-244h343v-63h-343z" />
    <glyph glyph-name="Zeta" unicode="&#x396;" horiz-adv-x="572" 
d="M535 708v-60l-413 -584h419v-64h-510v60l414 584h-403v64h493z" />
    <glyph glyph-name="Eta" unicode="&#x397;" horiz-adv-x="718" 
d="M94 0v708h72v-307h386v307h72v-708h-72v335h-386v-335h-72z" />
    <glyph glyph-name="Theta" unicode="&#x398;" horiz-adv-x="850" 
d="M794 354q0 -161 -105 -266.5t-264 -105.5t-264 105.5t-105 266.5t105 266.5t264 105.5t264 -105.5t105 -266.5zM718 354q0 129 -80.5 219t-212.5 90t-212.5 -90t-80.5 -219t80.5 -218.5t212.5 -89.5t212.5 89.5t80.5 218.5zM630 328h-404v59h404v-59z" />
    <glyph glyph-name="Iota" unicode="&#x399;" horiz-adv-x="260" 
d="M166 708v-708h-72v708h72z" />
    <glyph glyph-name="Kappa" unicode="&#x39a;" horiz-adv-x="628" 
d="M166 708v-318h1l337 318h103l-357 -321l377 -387h-106l-354 377h-1v-377h-72v708h72z" />
    <glyph glyph-name="Lambda" unicode="&#x39b;" horiz-adv-x="700" 
d="M590 0l-251 628l-250 -628h-79l296 708h70l294 -708h-80z" />
    <glyph glyph-name="Mu" unicode="&#x39c;" horiz-adv-x="886" 
d="M204 708l240 -586h1l237 586h110v-708h-72v615h-2l-256 -615h-38l-256 615h-2v-615h-72v708h110z" />
    <glyph glyph-name="Nu" unicode="&#x39d;" horiz-adv-x="764" 
d="M184 708l412 -603h2v603h72v-708h-90l-412 609h-2v-609h-72v708h90z" />
    <glyph glyph-name="Xi" unicode="&#x39e;" horiz-adv-x="616" 
d="M91 334v64h434v-64h-434zM47 0v66h522v-66h-522zM47 642v66h522v-66h-522z" />
    <glyph glyph-name="Omicron" unicode="&#x39f;" horiz-adv-x="850" 
d="M794 354q0 -161 -105 -266.5t-264 -105.5t-264 105.5t-105 266.5t105 266.5t264 105.5t264 -105.5t105 -266.5zM718 354q0 129 -80.5 219t-212.5 90t-212.5 -90t-80.5 -219t80.5 -218.5t212.5 -89.5t212.5 89.5t80.5 218.5z" />
    <glyph glyph-name="Pi" unicode="&#x3a0;" horiz-adv-x="708" 
d="M94 0v708h520v-708h-72v644h-376v-644h-72z" />
    <glyph glyph-name="Rho" unicode="&#x3a1;" horiz-adv-x="580" 
d="M94 0v708h200q111 0 175 -48t64 -141t-65 -141.5t-176 -48.5h-126v-329h-72zM166 646v-256h122q84 0 128.5 33t44.5 96q0 127 -173 127h-122z" />
    <glyph glyph-name="Sigma" unicode="&#x3a3;" horiz-adv-x="585" 
d="M550 0h-510v62l221 311l-213 270v65h493v-64h-404l212 -268l-221 -312h422v-64z" />
    <glyph glyph-name="Tau" unicode="&#x3a4;" horiz-adv-x="570" 
d="M321 644v-644h-72v644h-237v64h546v-64h-237z" />
    <glyph glyph-name="Upsilon" unicode="&#x3a5;" horiz-adv-x="602" 
d="M337 305v-305h-72v305l-265 403h90l213 -343l215 343h84z" />
    <glyph glyph-name="Phi" unicode="&#x3a6;" horiz-adv-x="861" 
d="M466 -41h-72v61q-92 4 -161 33.5t-107.5 78t-57 104.5t-18.5 121q0 46 9.5 89t34.5 86.5t63 76.5t99 55.5t138 25.5v61h72v-61q93 -4 162 -34.5t107.5 -79t56.5 -103.5t18 -116q0 -45 -8.5 -86.5t-32 -86.5t-60.5 -79t-99.5 -57.5t-143.5 -27.5v-61zM126 357
q0 -126 67.5 -196.5t200.5 -77.5v544q-131 -7 -199.5 -76.5t-68.5 -193.5zM734 357q0 123 -68 193t-200 77v-544q127 6 197.5 74t70.5 200z" />
    <glyph glyph-name="Chi" unicode="&#x3a7;" horiz-adv-x="634" 
d="M615 0h-92q-70 105 -208 317l-206 -317h-90q218 323 252 373l-227 335h89l184 -284l184 284h85l-226 -336z" />
    <glyph glyph-name="Psi" unicode="&#x3a8;" horiz-adv-x="798" 
d="M363 177v531h72v-531q113 7 167 52t54 148v331h72v-343q0 -119 -69.5 -182t-223.5 -70v-113h-72v113q-150 8 -221.5 68t-71.5 184v343h72v-331q0 -103 53.5 -148t167.5 -52z" />
    <glyph glyph-name="uni03A9" unicode="&#x3a9;" horiz-adv-x="773" 
d="M387 663q-118 0 -184.5 -73.5t-66.5 -183.5q0 -99 51.5 -164t139.5 -87v-155h-260v60h202v46q-98 31 -153.5 110.5t-55.5 188.5q0 147 94 234t233 87q141 0 233.5 -88t92.5 -233q0 -109 -55 -188.5t-154 -110.5v-46h202v-60h-260v155q90 22 140.5 87.5t50.5 163.5
q0 108 -65.5 182.5t-184.5 74.5z" />
    <glyph glyph-name="Iotadieresis" unicode="&#x3aa;" horiz-adv-x="260" 
d="M166 708v-708h-72v708h72zM-17 847q0 20 14.5 35.5t36.5 15.5t36.5 -15.5t14.5 -35.5t-14.5 -35.5t-36.5 -15.5t-36.5 15.5t-14.5 35.5zM175 847q0 20 14.5 35.5t36.5 15.5t36.5 -15.5t14.5 -35.5t-14.5 -35.5t-36.5 -15.5t-36.5 15.5t-14.5 35.5z" />
    <glyph glyph-name="Upsilondieresis" unicode="&#x3ab;" horiz-adv-x="602" 
d="M337 305v-305h-72v305l-265 403h90l213 -343l215 343h84zM156 847q0 20 14.5 35.5t36.5 15.5t36.5 -15.5t14.5 -35.5t-14.5 -35.5t-36.5 -15.5t-36.5 15.5t-14.5 35.5zM348 847q0 20 14.5 35.5t36.5 15.5t36.5 -15.5t14.5 -35.5t-14.5 -35.5t-36.5 -15.5t-36.5 15.5
t-14.5 35.5z" />
    <glyph glyph-name="alphatonos" unicode="&#x3ac;" horiz-adv-x="688" 
d="M296 46q79 0 128.5 55t49.5 133q0 79 -50 134t-128 55q-72 0 -120 -54t-48 -135q0 -87 50.5 -137.5t117.5 -50.5zM501 114h-2q-22 -53 -75.5 -89.5t-127.5 -36.5q-105 0 -172.5 70.5t-67.5 175.5q0 104 67 175t173 71q52 0 92.5 -14.5t64.5 -38.5t37.5 -46t20.5 -45h2
l41 132h72l-89 -257l32 -100q9 -27 18 -40.5t15.5 -16t17.5 -2.5q10 0 25 5l3 -56q-19 -7 -44 -7q-36 0 -54.5 18.5t-36.5 68.5zM427 708l-80 -144h-59l47 144h92z" />
    <glyph glyph-name="epsilontonos" unicode="&#x3ad;" horiz-adv-x="488" 
d="M55 125q0 44 24.5 74.5t68.5 40.5v2q-73 24 -73 102q0 65 51.5 100.5t141.5 35.5q135 0 180 -57l-53 -38q-44 37 -129 37q-119 0 -119 -77q0 -43 30.5 -59t83.5 -16h98v-57h-109q-57 0 -89.5 -17t-32.5 -64q0 -42 35 -64t98 -22q62 0 93.5 14t57.5 42l51 -38
q-62 -76 -210 -76q-97 0 -147.5 35t-50.5 102zM389 708l-80 -144h-59l47 144h92z" />
    <glyph glyph-name="etatonos" unicode="&#x3ae;" horiz-adv-x="585" 
d="M87 468h64q8 -31 8 -93h2q22 51 65.5 78t96.5 27q86 0 131 -52t45 -141v-527h-68v499q0 79 -28.5 121.5t-98.5 42.5q-59 0 -100.5 -47.5t-41.5 -135.5v-240h-68v365q0 74 -7 103zM388 708l-80 -144h-59l47 144h92z" />
    <glyph glyph-name="iotatonos" unicode="&#x3af;" horiz-adv-x="316" 
d="M154 468v-330q0 -49 18 -67.5t52 -18.5q29 0 59 15l3 -59q-37 -14 -80 -14q-48 0 -84 28t-36 97v349h68zM234 708l-80 -144h-59l47 144h92z" />
    <glyph glyph-name="upsilondieresistonos" unicode="&#x3b0;" horiz-adv-x="571" 
d="M505 258q0 -270 -219 -270q-200 0 -200 202v278h68v-267q0 -155 132 -155q40 0 68.5 14t43.5 33.5t23 50t10 53t2 52.5q0 120 -43 219h73q42 -91 42 -210zM111 638q0 20 14.5 35.5t36.5 15.5t36.5 -15.5t14.5 -35.5t-14.5 -35.5t-36.5 -15.5t-36.5 15.5t-14.5 35.5z
M369 638q0 20 14.5 35.5t36.5 15.5t36.5 -15.5t14.5 -35.5t-14.5 -35.5t-36.5 -15.5t-36.5 15.5t-14.5 35.5zM351 708l-60 -144h-51l25 144h86z" />
    <glyph glyph-name="alpha" unicode="&#x3b1;" horiz-adv-x="688" 
d="M296 46q79 0 128.5 55t49.5 133q0 79 -50 134t-128 55q-72 0 -120 -54t-48 -135q0 -87 50.5 -137.5t117.5 -50.5zM501 114h-2q-22 -53 -75.5 -89.5t-127.5 -36.5q-105 0 -172.5 70.5t-67.5 175.5q0 104 67 175t173 71q52 0 92.5 -14.5t64.5 -38.5t37.5 -46t20.5 -45h2
l41 132h72l-89 -257l32 -100q9 -27 18 -40.5t15.5 -16t17.5 -2.5q10 0 25 5l3 -56q-19 -7 -44 -7q-36 0 -54.5 18.5t-36.5 68.5z" />
    <glyph glyph-name="beta" unicode="&#x3b2;" horiz-adv-x="638" 
d="M158 510v-266q0 -54 18.5 -94.5t48.5 -62t61.5 -31.5t62.5 -10q72 0 117.5 48t45.5 122q0 173 -198 173h-84v58h78q70 0 108.5 33t38.5 99q0 61 -37.5 96.5t-104.5 35.5q-155 0 -155 -201zM352 -12q-62 0 -113.5 26.5t-77.5 64.5h-3v-319h-68v754q0 115 55.5 184.5
t173.5 69.5q101 0 154 -54t53 -131q0 -57 -28 -98t-70 -54v-2q154 -39 154 -210q0 -94 -63.5 -162.5t-166.5 -68.5z" />
    <glyph glyph-name="gamma" unicode="&#x3b3;" horiz-adv-x="555" 
d="M332 -207h-68v180l-128 325q-30 76 -46 95t-58 20l9 61q51 1 81.5 -16.5t50.5 -69.5l125 -324h3l168 404h70l-207 -491v-184z" />
    <glyph glyph-name="delta" unicode="&#x3b4;" horiz-adv-x="595" 
d="M470 236q-1 87 -49 139t-122 52q-47 0 -82 -18t-54.5 -47.5t-28.5 -61t-9 -63.5q0 -83 48 -137t121 -54q83 0 129.5 55.5t46.5 134.5zM56 231q0 95 52.5 163t154.5 79v2l-9 4q-106 47 -106 138q0 67 46 109t144 42q105 0 171 -36l-28 -57q-59 32 -141 32q-121 0 -121 -87
q0 -38 26.5 -64t104.5 -59q104 -44 146.5 -106t42.5 -156q0 -115 -72 -181t-173 -66q-43 0 -84 14.5t-76 43t-56.5 76.5t-21.5 109z" />
    <glyph glyph-name="epsilon" unicode="&#x3b5;" horiz-adv-x="488" 
d="M55 125q0 44 24.5 74.5t68.5 40.5v2q-73 24 -73 102q0 65 51.5 100.5t141.5 35.5q135 0 180 -57l-53 -38q-44 37 -129 37q-119 0 -119 -77q0 -43 30.5 -59t83.5 -16h98v-57h-109q-57 0 -89.5 -17t-32.5 -64q0 -42 35 -64t98 -22q62 0 93.5 14t57.5 42l51 -38
q-62 -76 -210 -76q-97 0 -147.5 35t-50.5 102z" />
    <glyph glyph-name="zeta" unicode="&#x3b6;" horiz-adv-x="445" 
d="M114 262q0 -74 39.5 -113.5t136.5 -71.5q85 -28 117.5 -61t32.5 -93q0 -65 -49.5 -101t-132.5 -38v59q117 9 117 82q0 32 -19 50.5t-85 40.5q-45 15 -72.5 26t-61 31t-51.5 43.5t-31 60t-13 82.5q0 122 78 239.5t211 194.5v2h-254v61h362v-61q-325 -183 -325 -433z" />
    <glyph glyph-name="eta" unicode="&#x3b7;" horiz-adv-x="585" 
d="M87 468h64q8 -31 8 -93h2q22 51 65.5 78t96.5 27q86 0 131 -52t45 -141v-527h-68v499q0 79 -28.5 121.5t-98.5 42.5q-59 0 -100.5 -47.5t-41.5 -135.5v-240h-68v365q0 74 -7 103z" />
    <glyph glyph-name="theta" unicode="&#x3b8;" horiz-adv-x="624" 
d="M312 768q128 0 188 -103t60 -285q0 -392 -248 -392t-248 392q0 80 11.5 145.5t38.5 122.5t77 88.5t121 31.5zM312 46q87 0 131.5 80t46.5 225h-356q6 -305 178 -305zM312 711q-60 0 -100.5 -41.5t-58 -106t-19.5 -150.5h356q-2 135 -47 216.5t-131 81.5z" />
    <glyph glyph-name="iota" unicode="&#x3b9;" horiz-adv-x="316" 
d="M154 468v-330q0 -49 18 -67.5t52 -18.5q29 0 59 15l3 -59q-37 -14 -80 -14q-48 0 -84 28t-36 97v349h68z" />
    <glyph glyph-name="kappa" unicode="&#x3ba;" horiz-adv-x="552" 
d="M160 116v-116h-68v468h68v-257h1l186 203q32 35 52.5 47.5t50.5 12.5q24 0 43 -8l-11 -59q-12 4 -28 4q-15 0 -28.5 -10t-46.5 -46l-60 -67l205 -288h-77l-171 241z" />
    <glyph glyph-name="lambda" unicode="&#x3bb;" horiz-adv-x="577" 
d="M429 89l-122 332h-2l-199 -421h-76l248 501l-49 129q-18 47 -30.5 62.5t-36.5 15.5q-17 0 -32 -6l-9 57q19 9 52 9q45 0 70 -23.5t50 -92.5l208 -562q9 -25 15 -31.5t22 -6.5q9 0 21 5l3 -56q-19 -7 -41 -7q-21 0 -34.5 4.5t-24 19t-16.5 28t-17 43.5z" />
    <glyph glyph-name="uni03BC" unicode="&#x3bc;" horiz-adv-x="597" 
d="M90 468h68v-262q0 -161 124 -161q69 0 107 52t38 128v243h68v-373q0 -23 5.5 -33t22.5 -10q13 0 26 5l3 -56q-23 -7 -45 -7q-73 0 -75 86h-2q-20 -41 -65 -66.5t-94 -25.5q-80 0 -111 48h-2v-276h-68v708z" />
    <glyph glyph-name="nu" unicode="&#x3bd;" horiz-adv-x="490" 
d="M242 62h5l66 147q46 103 58.5 147t13.5 112h70q-1 -66 -15.5 -115.5t-51.5 -129.5l-102 -223h-85l-185 468h76z" />
    <glyph glyph-name="xi" unicode="&#x3be;" horiz-adv-x="499" 
d="M55 242q0 60 36 109.5t99 69.5v3q-49 14 -74.5 50.5t-25.5 87.5q0 97 84 131v2h-94v61h394v-62h-69q-139 0 -196 -31.5t-57 -96.5q0 -62 47.5 -86t131.5 -24h99v-66h-98q-209 0 -209 -147q0 -63 37 -97t121 -61q99 -31 140.5 -64.5t41.5 -94.5q0 -68 -49.5 -104
t-132.5 -38v59q117 8 117 81q0 38 -27 55t-117 47q-64 22 -105 46t-60.5 52t-26.5 54.5t-7 63.5z" />
    <glyph glyph-name="omicron" unicode="&#x3bf;" horiz-adv-x="611" 
d="M555 234q0 -106 -70.5 -176t-179.5 -70q-108 0 -178.5 70t-70.5 176t70.5 176t178.5 70q109 0 179.5 -70t70.5 -176zM483 234q0 81 -49 135t-129 54q-79 0 -128 -54t-49 -135q0 -80 49 -134t128 -54q80 0 129 53.5t49 134.5z" />
    <glyph glyph-name="pi" unicode="&#x3c0;" horiz-adv-x="631" 
d="M476 408v-295q0 -61 50 -61q17 0 37 5l3 -56q-28 -7 -50 -7q-65 0 -86 29.5t-21 95.5v289h-183l-62 -408h-68l65 408h-121v60h556v-60h-120z" />
    <glyph glyph-name="rho" unicode="&#x3c1;" horiz-adv-x="625" 
d="M148 -240h-68v472q0 107 65.5 177.5t177.5 70.5q65 0 114.5 -23.5t77 -61t41 -78.5t13.5 -83q0 -106 -66.5 -176t-171.5 -70q-55 0 -103 24t-77 67h-3v-319zM497 234q0 81 -47.5 135t-129.5 54q-78 0 -129 -54t-51 -135t51 -134.5t129 -53.5q82 0 129.5 53.5t47.5 134.5z
" />
    <glyph glyph-name="sigma1" unicode="&#x3c2;" horiz-adv-x="510" 
d="M54 254q0 41 13 79.5t39.5 72t75.5 54t113 20.5q69 0 121 -19.5t79 -50.5l-53 -38q-46 48 -151 48q-48 0 -83 -16t-51.5 -42t-23.5 -51.5t-7 -51.5q0 -71 40 -110.5t136 -71.5q85 -28 117.5 -61t32.5 -93q0 -65 -49.5 -101t-132.5 -38v59q117 9 117 80q0 35 -18.5 53
t-85.5 40q-45 15 -72.5 26t-61 31t-51.5 42.5t-31 58t-13 80.5z" />
    <glyph glyph-name="sigma" unicode="&#x3c3;" horiz-adv-x="633" 
d="M598 408h-145v-2q39 -22 64 -69t25 -105q0 -112 -69 -178t-173 -66q-103 0 -173.5 67t-70.5 171q0 103 66 172.5t175 69.5h301v-60zM473 230q0 75 -47 128t-124 53q-81 0 -127.5 -53.5t-46.5 -127.5q0 -80 47.5 -132t125.5 -52q75 0 123.5 51.5t48.5 132.5z" />
    <glyph glyph-name="tau" unicode="&#x3c4;" horiz-adv-x="496" 
d="M427 67l3 -59q-40 -14 -91 -14q-72 0 -105.5 35.5t-33.5 95.5v283h-169v60h435v-60h-198v-275q0 -81 83 -81q44 0 76 15z" />
    <glyph glyph-name="upsilon" unicode="&#x3c5;" horiz-adv-x="571" 
d="M505 258q0 -270 -219 -270q-200 0 -200 202v278h68v-267q0 -155 132 -155q40 0 68.5 14t43.5 33.5t23 50t10 53t2 52.5q0 120 -43 219h73q42 -91 42 -210z" />
    <glyph glyph-name="phi" unicode="&#x3c6;" horiz-adv-x="714" 
d="M391 -240h-68v221q-123 1 -195 70t-72 183q0 48 14.5 90.5t44.5 79.5t83.5 59.5t124.5 23.5v147h68v-147q135 -3 201 -75.5t66 -177.5q0 -113 -71 -182.5t-196 -70.5v-221zM127 234q0 -96 53 -146t143 -50v393q-103 -1 -149.5 -58t-46.5 -139zM587 234q0 82 -46 139
t-150 58v-393q92 0 144 51.5t52 144.5z" />
    <glyph glyph-name="chi" unicode="&#x3c7;" horiz-adv-x="561" 
d="M35 -240l215 362l-117 224q-20 40 -36.5 53.5t-55.5 13.5l9 61q63 0 88 -17.5t55 -75.5l100 -195l156 282h79l-197 -341l151 -287q9 -17 17 -22.5t22 -5.5q15 0 27 5l3 -56q-19 -7 -47 -7q-36 0 -54 15.5t-40 58.5l-123 236l-174 -304h-78z" />
    <glyph glyph-name="psi" unicode="&#x3c8;" horiz-adv-x="720" 
d="M396 -240h-68v221q-117 0 -179.5 46t-62.5 167v274h68v-264q0 -84 34.5 -124.5t123.5 -40.5h16v595h68v-595h9q177 0 177 204q0 127 -43 225h73q42 -88 42 -225q0 -126 -65 -194t-187 -68h-6v-221z" />
    <glyph glyph-name="omega" unicode="&#x3c9;" horiz-adv-x="770" 
d="M351 201v160h68v-160q0 -82 30.5 -118.5t79.5 -36.5q51 0 79 44.5t28 116.5q0 132 -80 242l62 26q37 -45 63.5 -114t26.5 -152q0 -115 -50.5 -168t-128.5 -53q-59 0 -95 33.5t-48 80.5h-2q-11 -45 -47 -79.5t-96 -34.5q-84 0 -131.5 57t-47.5 164q0 156 90 266l62 -26
q-80 -110 -80 -242q0 -36 7.5 -69t33 -62.5t66.5 -29.5q110 0 110 155z" />
    <glyph glyph-name="iotadieresis" unicode="&#x3ca;" horiz-adv-x="316" 
d="M154 468v-330q0 -49 18 -67.5t52 -18.5q29 0 59 15l3 -59q-37 -14 -80 -14q-48 0 -84 28t-36 97v349h68zM-25 647q0 20 14.5 35.5t36.5 15.5t36.5 -15.5t14.5 -35.5t-14.5 -35.5t-36.5 -15.5t-36.5 15.5t-14.5 35.5zM167 647q0 20 14.5 35.5t36.5 15.5t36.5 -15.5
t14.5 -35.5t-14.5 -35.5t-36.5 -15.5t-36.5 15.5t-14.5 35.5z" />
    <glyph glyph-name="upsilondieresis" unicode="&#x3cb;" horiz-adv-x="571" 
d="M505 258q0 -270 -219 -270q-200 0 -200 202v278h68v-267q0 -155 132 -155q40 0 68.5 14t43.5 33.5t23 50t10 53t2 52.5q0 120 -43 219h73q42 -91 42 -210zM131 647q0 20 14.5 35.5t36.5 15.5t36.5 -15.5t14.5 -35.5t-14.5 -35.5t-36.5 -15.5t-36.5 15.5t-14.5 35.5z
M323 647q0 20 14.5 35.5t36.5 15.5t36.5 -15.5t14.5 -35.5t-14.5 -35.5t-36.5 -15.5t-36.5 15.5t-14.5 35.5z" />
    <glyph glyph-name="omicrontonos" unicode="&#x3cc;" horiz-adv-x="611" 
d="M555 234q0 -106 -70.5 -176t-179.5 -70q-108 0 -178.5 70t-70.5 176t70.5 176t178.5 70q109 0 179.5 -70t70.5 -176zM483 234q0 81 -49 135t-129 54q-79 0 -128 -54t-49 -135q0 -80 49 -134t128 -54q80 0 129 53.5t49 134.5zM424 708l-80 -144h-59l47 144h92z" />
    <glyph glyph-name="upsilontonos" unicode="&#x3cd;" horiz-adv-x="571" 
d="M505 258q0 -270 -219 -270q-200 0 -200 202v278h68v-267q0 -155 132 -155q40 0 68.5 14t43.5 33.5t23 50t10 53t2 52.5q0 120 -43 219h73q42 -91 42 -210zM388 708l-80 -144h-59l47 144h92z" />
    <glyph glyph-name="omegatonos" unicode="&#x3ce;" horiz-adv-x="770" 
d="M351 201v160h68v-160q0 -82 30.5 -118.5t79.5 -36.5q51 0 79 44.5t28 116.5q0 132 -80 242l62 26q37 -45 63.5 -114t26.5 -152q0 -115 -50.5 -168t-128.5 -53q-59 0 -95 33.5t-48 80.5h-2q-11 -45 -47 -79.5t-96 -34.5q-84 0 -131.5 57t-47.5 164q0 156 90 266l62 -26
q-80 -110 -80 -242q0 -36 7.5 -69t33 -62.5t66.5 -29.5q110 0 110 155zM495 708l-80 -144h-59l47 144h92z" />
    <glyph glyph-name="uni0400" unicode="&#x400;" horiz-adv-x="592" 
d="M94 0v708h439v-64h-367v-244h343v-63h-343v-273h379v-64h-451zM316 764l-132 144h91l100 -144h-59z" />
    <glyph glyph-name="uni0401" unicode="&#x401;" horiz-adv-x="592" 
d="M94 0v708h439v-64h-367v-244h343v-63h-343v-273h379v-64h-451zM169 847q0 20 14.5 35.5t36.5 15.5t36.5 -15.5t14.5 -35.5t-14.5 -35.5t-36.5 -15.5t-36.5 15.5t-14.5 35.5zM361 847q0 20 14.5 35.5t36.5 15.5t36.5 -15.5t14.5 -35.5t-14.5 -35.5t-36.5 -15.5t-36.5 15.5
t-14.5 35.5z" />
    <glyph glyph-name="uni0402" unicode="&#x402;" horiz-adv-x="794" 
d="M498 -9q-45 0 -83 8l11 63q30 -7 66 -7q88 0 136 36.5t48 109.5t-48.5 112.5t-143.5 39.5q-104 0 -163 -24v-329h-72v644h-237v64h546v-64h-237v-251q77 22 167 22q122 0 191.5 -54.5t69.5 -158.5t-67.5 -157.5t-183.5 -53.5z" />
    <glyph glyph-name="uni0403" unicode="&#x403;" horiz-adv-x="508" 
d="M94 0v708h402v-64h-330v-644h-72zM439 908l-132 -144h-59l100 144h91z" />
    <glyph glyph-name="uni0404" unicode="&#x404;" horiz-adv-x="720" 
d="M425 -18q-160 0 -264.5 105.5t-104.5 266.5t105 266.5t264 105.5q78 0 146.5 -30.5t105.5 -81.5l-60 -44q-25 38 -76.5 65.5t-114.5 27.5q-120 0 -198 -75t-93 -188h355v-63h-357q5 -123 85.5 -207.5t207.5 -84.5q138 0 208 105l56 -36q-38 -58 -106.5 -95t-158.5 -37z
" />
    <glyph glyph-name="uni0405" unicode="&#x405;" horiz-adv-x="564" 
d="M273 -18q-67 0 -126.5 27t-96.5 78l62 46q25 -40 67 -64.5t95 -24.5q61 0 109 36.5t48 100.5q0 29 -10.5 51.5t-23.5 36.5t-40.5 27.5t-45 19.5t-53.5 17q-42 13 -70.5 26t-58.5 35t-45.5 56.5t-15.5 80.5q0 65 35.5 110.5t85 65t105.5 19.5q67 0 120 -24.5t80 -61.5
l-57 -46q-50 71 -146 71q-59 0 -105 -35t-46 -98q0 -26 9.5 -47t20.5 -33t36.5 -25t40 -18t47.5 -16q34 -11 44.5 -14.5t40 -15.5t41 -20.5t32 -25.5t29 -34t16 -42t7.5 -55q0 -99 -69 -151.5t-162 -52.5z" />
    <glyph glyph-name="uni0406" unicode="&#x406;" horiz-adv-x="260" 
d="M94 0v708h72v-708h-72z" />
    <glyph glyph-name="uni0407" unicode="&#x407;" horiz-adv-x="260" 
d="M94 0v708h72v-708h-72zM-17 847q0 20 14.5 35.5t36.5 15.5t36.5 -15.5t14.5 -35.5t-14.5 -35.5t-36.5 -15.5t-36.5 15.5t-14.5 35.5zM175 847q0 20 14.5 35.5t36.5 15.5t36.5 -15.5t14.5 -35.5t-14.5 -35.5t-36.5 -15.5t-36.5 15.5t-14.5 35.5z" />
    <glyph glyph-name="uni0408" unicode="&#x408;" horiz-adv-x="492" 
d="M215 -18q-75 0 -126 40t-64 104l67 18q9 -43 39.5 -71t75.5 -28q125 0 125 164v499h72v-504q0 -30 -4.5 -58.5t-17.5 -59t-33.5 -53t-54.5 -37t-79 -14.5z" />
    <glyph glyph-name="uni0409" unicode="&#x409;" horiz-adv-x="1070" 
d="M69 -7q-36 0 -68 9l13 65q26 -8 43 -8q61 0 96.5 48t52 155.5t16.5 292.5v153h424v-307h124q117 0 186 -51.5t69 -149.5t-67.5 -149t-185.5 -51h-198v645h-282v-126q0 -271 -50 -398.5t-173 -127.5zM646 62h118q188 0 188 137q0 68 -48.5 104t-139.5 36h-118v-277z" />
    <glyph glyph-name="uni040A" unicode="&#x40a;" horiz-adv-x="1048" 
d="M94 0v708h72v-307h386v307h72v-307h124q117 0 186 -51.5t69 -149.5t-67.5 -149t-185.5 -51h-198v339h-386v-339h-72zM624 62h118q188 0 188 137q0 68 -48.5 104t-139.5 36h-118v-277z" />
    <glyph glyph-name="uni040B" unicode="&#x40b;" horiz-adv-x="794" 
d="M249 0v644h-237v64h546v-64h-237v-251q77 22 164 22q117 0 173 -47t56 -144v-224h-72v217q0 134 -154 134q-113 0 -167 -22v-329h-72z" />
    <glyph glyph-name="uni040C" unicode="&#x40c;" horiz-adv-x="628" 
d="M94 0v708h72v-318h1l337 318h103l-357 -321l377 -387h-106l-354 377h-1v-377h-72zM479 908l-132 -144h-59l100 144h91z" />
    <glyph glyph-name="uni040D" unicode="&#x40d;" horiz-adv-x="733" 
d="M94 0v708h72v-596h2l390 596h81v-708h-72v602h-2l-390 -602h-81zM356 764l-132 144h91l100 -144h-59z" />
    <glyph glyph-name="uni040E" unicode="&#x40e;" horiz-adv-x="625" 
d="M128 -8q-34 0 -63 6l11 68q22 -8 51 -8q34 0 57.5 19t46.5 60l47 87l-275 484h84l231 -411l225 411h79l-329 -595q-34 -60 -71 -90.5t-94 -30.5zM317 776q-61 0 -100.5 34.5t-45.5 93.5l46 9q7 -38 34.5 -60.5t65.5 -22.5t65.5 22.5t34.5 60.5l46 -9q-6 -59 -45.5 -93.5
t-100.5 -34.5z" />
    <glyph glyph-name="uni040F" unicode="&#x40f;" horiz-adv-x="718" 
d="M325 -174v174h-231v708h72v-644h386v644h72v-708h-231v-174h-68z" />
    <glyph glyph-name="uni0410" unicode="&#x410;" horiz-adv-x="700" 
d="M10 0l306 708h70l304 -708h-80l-78 186h-366l-77 -186h-79zM193 252h312l-156 376z" />
    <glyph glyph-name="uni0411" unicode="&#x411;" horiz-adv-x="630" 
d="M94 0v708h421v-64h-349v-243h141q117 0 186 -51.5t69 -149.5t-67.5 -149t-185.5 -51h-215zM166 62h135q188 0 188 137q0 68 -48.5 104t-139.5 36h-135v-277z" />
    <glyph glyph-name="uni0412" unicode="&#x412;" horiz-adv-x="636" 
d="M94 0v708h211q44 0 82 -8.5t72 -28t54 -56.5t20 -88q0 -56 -34.5 -97.5t-90.5 -54.5v-2q71 -8 115.5 -55t44.5 -122q0 -89 -71 -142.5t-193 -53.5h-210zM166 62h134q85 0 140 34t55 104q0 69 -47 104t-135 35h-147v-277zM166 398h145q61 0 105.5 30t44.5 94t-47 94
t-123 30h-125v-248z" />
    <glyph glyph-name="uni0413" unicode="&#x413;" horiz-adv-x="508" 
d="M94 0v708h402v-64h-330v-644h-72z" />
    <glyph glyph-name="uni0414" unicode="&#x414;" horiz-adv-x="750" 
d="M16 -174v238h57q124 129 124 452v192h435v-644h80v-238h-68v174h-560v-174h-68zM164 64h396v580h-293v-128q0 -313 -103 -452z" />
    <glyph glyph-name="uni0415" unicode="&#x415;" horiz-adv-x="592" 
d="M94 0v708h439v-64h-367v-244h343v-63h-343v-273h379v-64h-451z" />
    <glyph glyph-name="uni0416" unicode="&#x416;" horiz-adv-x="970" 
d="M1 0l364 387l-344 321h103l324 -318h1v318h72v-318h1l324 318h103l-344 -321l364 -387h-106l-341 377h-1v-377h-72v377h-1l-341 -377h-106z" />
    <glyph glyph-name="uni0417" unicode="&#x417;" horiz-adv-x="582" 
d="M266 -18q-70 0 -133 27t-103 78l62 46q25 -39 71.5 -64t103.5 -25q69 0 121.5 42t52.5 110q0 74 -57 108.5t-140 34.5h-41v62h41q79 0 127 33t48 104q0 53 -46 90t-107 37q-102 0 -153 -71l-55 45q28 38 81 62.5t124 24.5q102 0 163 -50t61 -141q0 -61 -35.5 -104
t-92.5 -58v-2q67 -13 111 -60t44 -115q0 -98 -72 -156t-176 -58z" />
    <glyph glyph-name="uni0418" unicode="&#x418;" horiz-adv-x="733" 
d="M94 0v708h72v-596h2l390 596h81v-708h-72v602h-2l-390 -602h-81z" />
    <glyph glyph-name="uni0419" unicode="&#x419;" horiz-adv-x="733" 
d="M94 0v708h72v-596h2l390 596h81v-708h-72v602h-2l-390 -602h-81zM366 776q-61 0 -100.5 34.5t-45.5 93.5l46 9q7 -38 34.5 -60.5t65.5 -22.5t65.5 22.5t34.5 60.5l46 -9q-6 -59 -45.5 -93.5t-100.5 -34.5z" />
    <glyph glyph-name="uni041A" unicode="&#x41a;" horiz-adv-x="628" 
d="M94 0v708h72v-318h1l337 318h103l-357 -321l377 -387h-106l-354 377h-1v-377h-72z" />
    <glyph glyph-name="uni041B" unicode="&#x41b;" horiz-adv-x="740" 
d="M69 -7q-36 0 -68 9l13 65q26 -8 43 -8q61 0 96.5 48t52 155.5t16.5 292.5v153h424v-708h-72v645h-282v-126q0 -271 -50 -398.5t-173 -127.5z" />
    <glyph glyph-name="uni041C" unicode="&#x41c;" horiz-adv-x="886" 
d="M94 0v708h110l240 -586h1l237 586h110v-708h-72v615h-2l-256 -615h-38l-256 615h-2v-615h-72z" />
    <glyph glyph-name="uni041D" unicode="&#x41d;" horiz-adv-x="718" 
d="M94 0v708h72v-307h386v307h72v-708h-72v335h-386v-335h-72z" />
    <glyph glyph-name="uni041E" unicode="&#x41e;" horiz-adv-x="850" 
d="M425 -18q-159 0 -264 105.5t-105 266.5t105 266.5t264 105.5t264 -105.5t105 -266.5t-105 -266.5t-264 -105.5zM425 46q132 0 212.5 89.5t80.5 218.5t-80.5 219t-212.5 90t-212.5 -90t-80.5 -219t80.5 -218.5t212.5 -89.5z" />
    <glyph glyph-name="uni041F" unicode="&#x41f;" horiz-adv-x="718" 
d="M94 0v708h530v-708h-72v644h-386v-644h-72z" />
    <glyph glyph-name="uni0420" unicode="&#x420;" horiz-adv-x="580" 
d="M94 0v708h200q111 0 175 -48t64 -141t-65 -141.5t-176 -48.5h-126v-329h-72zM166 390h122q84 0 128.5 33t44.5 96q0 127 -173 127h-122v-256z" />
    <glyph glyph-name="uni0421" unicode="&#x421;" horiz-adv-x="720" 
d="M425 -18q-160 0 -264.5 105.5t-104.5 266.5t105 266.5t264 105.5q78 0 146.5 -30.5t105.5 -81.5l-60 -44q-25 38 -76.5 65.5t-114.5 27.5q-133 0 -213.5 -90t-80.5 -219t81 -219t213 -90q138 0 208 105l56 -36q-38 -58 -106.5 -95t-158.5 -37z" />
    <glyph glyph-name="uni0422" unicode="&#x422;" horiz-adv-x="570" 
d="M249 0v644h-237v64h546v-64h-237v-644h-72z" />
    <glyph glyph-name="uni0423" unicode="&#x423;" horiz-adv-x="625" 
d="M128 -8q-34 0 -63 6l11 68q22 -8 51 -8q34 0 57.5 19t46.5 60l47 87l-275 484h84l231 -411l225 411h79l-329 -595q-34 -60 -71 -90.5t-94 -30.5z" />
    <glyph glyph-name="uni0424" unicode="&#x424;" horiz-adv-x="840" 
d="M384 -19v85q-152 2 -243 85t-91 214q0 134 92.5 214t241.5 84v63h72v-63q149 -4 241.5 -84t92.5 -214q0 -131 -91 -214t-243 -85v-85h-72zM384 129v471q-122 -4 -190 -69.5t-68 -166.5q0 -104 66.5 -166t191.5 -69zM456 129q125 7 191.5 69t66.5 166q0 101 -68 166.5
t-190 69.5v-471z" />
    <glyph glyph-name="uni0425" unicode="&#x425;" horiz-adv-x="649" 
d="M19 0l260 372l-237 336h90l194 -286l193 286h86l-235 -337l260 -371h-90l-216 319l-215 -319h-90z" />
    <glyph glyph-name="uni0426" unicode="&#x426;" horiz-adv-x="742" 
d="M636 -174v174h-542v708h72v-644h386v644h72v-644h80v-238h-68z" />
    <glyph glyph-name="uni0427" unicode="&#x427;" horiz-adv-x="640" 
d="M474 0v295q-77 -22 -164 -22q-117 0 -173 47t-56 144v244h72v-237q0 -134 154 -134q113 0 167 22v349h72v-708h-72z" />
    <glyph glyph-name="uni0428" unicode="&#x428;" horiz-adv-x="1050" 
d="M94 0v708h72v-644h323v644h72v-644h323v644h72v-708h-862z" />
    <glyph glyph-name="uni0429" unicode="&#x429;" horiz-adv-x="1074" 
d="M968 -174v174h-874v708h72v-644h323v644h72v-644h323v644h72v-644h80v-238h-68z" />
    <glyph glyph-name="uni042A" unicode="&#x42a;" horiz-adv-x="690" 
d="M194 0v644h-182v64h254v-307h124q117 0 186 -51.5t69 -149.5t-67.5 -149t-185.5 -51h-198zM266 62h118q188 0 188 137q0 68 -48.5 104t-139.5 36h-118v-277z" />
    <glyph glyph-name="uni042B" unicode="&#x42b;" horiz-adv-x="818" 
d="M94 0v708h72v-307h124q117 0 186 -51.5t69 -149.5t-67.5 -149t-185.5 -51h-198zM166 62h118q188 0 188 137q0 68 -48.5 104t-139.5 36h-118v-277zM652 0v708h72v-708h-72z" />
    <glyph glyph-name="uni042C" unicode="&#x42c;" horiz-adv-x="590" 
d="M94 0v708h72v-307h124q117 0 186 -51.5t69 -149.5t-67.5 -149t-185.5 -51h-198zM166 62h118q188 0 188 137q0 68 -48.5 104t-139.5 36h-118v-277z" />
    <glyph glyph-name="uni042D" unicode="&#x42d;" horiz-adv-x="720" 
d="M295 -18q-90 0 -158.5 37t-106.5 95l56 36q70 -105 208 -105q127 0 207.5 84.5t85.5 207.5h-357v63h355q-15 113 -93 188t-198 75q-63 0 -114.5 -27.5t-76.5 -65.5l-60 44q37 51 105.5 81.5t146.5 30.5q159 0 264 -105.5t105 -266.5t-104.5 -266.5t-264.5 -105.5z" />
    <glyph glyph-name="uni042E" unicode="&#x42e;" horiz-adv-x="1060" 
d="M662 -18q-147 0 -241.5 101t-100.5 254h-154v-337h-72v708h72v-308h156q15 142 108 234t232 92q151 0 246.5 -106.5t95.5 -265.5t-95.5 -265.5t-246.5 -106.5zM662 46q122 0 194 90.5t72 217.5t-72 218t-194 91q-123 0 -194.5 -91t-71.5 -218t71.5 -217.5t194.5 -90.5z
" />
    <glyph glyph-name="uni042F" unicode="&#x42f;" horiz-adv-x="600" 
d="M39 0l192 313q-83 15 -129.5 64.5t-46.5 130.5q0 98 67.5 149t185.5 51h198v-708h-72v307h-125l-182 -307h-88zM316 369h118v277h-118q-188 0 -188 -137q0 -68 48.5 -104t139.5 -36z" />
    <glyph glyph-name="uni0430" unicode="&#x430;" horiz-adv-x="534" 
d="M217 -12q-63 0 -112.5 35.5t-49.5 106.5q0 35 12 61.5t36 43.5t52 27.5t69 16t76.5 7t84.5 1.5v15q0 121 -125 121q-84 0 -139 -55l-38 45q67 67 184 67q80 0 131 -44t51 -126v-205q0 -63 8 -105h-61q-7 40 -7 76h-2q-61 -88 -170 -88zM235 44q69 0 109.5 45t40.5 110v35
h-20q-48 0 -85.5 -3.5t-75 -13.5t-58.5 -31t-21 -53q0 -46 32 -67.5t78 -21.5z" />
    <glyph glyph-name="uni0431" unicode="&#x431;" horiz-adv-x="619" 
d="M313 -12q-140 0 -204 98q-44 67 -44 221q0 94 7.5 155.5t29 117.5t65.5 86.5t112 38.5l142 17q36 4 56.5 14t27.5 32l49 -15q-11 -40 -36.5 -59.5t-75.5 -26.5l-133 -17q-104 -13 -145 -71.5t-43 -217.5h3q59 119 206 119q103 0 168 -69.5t65 -176.5q0 -106 -70.5 -176
t-179.5 -70zM313 46q80 0 129 53.5t49 134.5t-49 135t-129 54q-79 0 -128 -54t-49 -135q0 -80 49 -134t128 -54z" />
    <glyph glyph-name="uni0432" unicode="&#x432;" horiz-adv-x="539" 
d="M90 0v468h219q64 0 107.5 -28t43.5 -92q0 -37 -22.5 -64.5t-59.5 -35.5v-1q47 -5 76 -36t29 -81q0 -59 -47 -94.5t-127 -35.5h-219zM158 58h143q49 0 80.5 19t31.5 59q0 79 -104 79h-151v-157zM158 271h149q35 0 60.5 17t25.5 53q0 71 -98 71h-137v-141z" />
    <glyph glyph-name="uni0433" unicode="&#x433;" horiz-adv-x="420" 
d="M90 0v468h310v-57h-242v-411h-68z" />
    <glyph glyph-name="uni0434" unicode="&#x434;" horiz-adv-x="603" 
d="M24 -152v211h54q75 96 75 285v124h340v-409h75v-211h-63v152h-418v-152h-63zM155 59h271v352h-207v-86q0 -151 -64 -266z" />
    <glyph glyph-name="uni0435" unicode="&#x435;" horiz-adv-x="572" 
d="M298 -12q-104 0 -173 70t-69 176q0 105 68 175.5t168 70.5q106 0 165 -65.5t59 -166.5q0 -20 -1 -32h-388q2 -71 51 -120.5t120 -49.5q49 0 89 23.5t61 57.5l51 -40q-78 -99 -201 -99zM128 270h319q-3 68 -43.5 110.5t-111.5 42.5q-66 0 -112.5 -45.5t-51.5 -107.5z" />
    <glyph glyph-name="uni0436" unicode="&#x436;" horiz-adv-x="744" 
d="M9 0l245 244l-221 224h98l204 -221h3v221h68v-221h3l204 221h98l-221 -224l245 -244h-100l-226 236h-3v-236h-68v236h-3l-226 -236h-100z" />
    <glyph glyph-name="uni0437" unicode="&#x437;" horiz-adv-x="468" 
d="M230 -12q-137 0 -200 92l56 40q18 -32 58 -53t85 -21q48 0 81.5 20.5t33.5 66.5q0 42 -40.5 62.5t-98.5 20.5h-32v54h30q56 0 90.5 20t34.5 63q0 70 -109 70q-36 0 -69 -18t-51 -47l-53 38q23 39 70 61.5t105 22.5q77 0 126 -33.5t49 -92.5q0 -39 -27.5 -68.5
t-70.5 -38.5v-2q51 -8 82.5 -39t31.5 -76q0 -66 -50.5 -104t-131.5 -38z" />
    <glyph glyph-name="uni0438" unicode="&#x438;" horiz-adv-x="600" 
d="M90 0v468h68v-374h1l277 374h74v-468h-67v378h-2l-277 -378h-74z" />
    <glyph glyph-name="uni0439" unicode="&#x439;" horiz-adv-x="600" 
d="M90 0v468h68v-374h1l277 374h74v-468h-67v378h-2l-277 -378h-74zM296 576q-61 0 -100.5 34.5t-45.5 93.5l46 9q7 -38 34.5 -60.5t65.5 -22.5t65.5 22.5t34.5 60.5l46 -9q-6 -59 -45.5 -93.5t-100.5 -34.5z" />
    <glyph glyph-name="uni043A" unicode="&#x43a;" horiz-adv-x="510" 
d="M92 0v468h68v-221h3l216 221h98l-236 -224l260 -244h-100l-238 236h-3v-236h-68z" />
    <glyph glyph-name="uni043B" unicode="&#x43b;" horiz-adv-x="582" 
d="M60 -5q-29 0 -51 6l8 59q15 -5 32 -5q55 0 81.5 58.5t26.5 196.5v158h335v-468h-68v411h-201v-125q0 -141 -37.5 -216t-125.5 -75z" />
    <glyph glyph-name="uni043C" unicode="&#x43c;" horiz-adv-x="722" 
d="M90 0v468h98l173 -367h1l172 367h98v-468h-68v387h-2l-184 -387h-35l-184 387h-1v-387h-68z" />
    <glyph glyph-name="uni043D" unicode="&#x43d;" horiz-adv-x="585" 
d="M90 0v468h68v-196h269v196h68v-468h-68v215h-269v-215h-68z" />
    <glyph glyph-name="uni043E" unicode="&#x43e;" horiz-adv-x="611" 
d="M305 -12q-108 0 -178.5 70t-70.5 176t70.5 176t178.5 70q109 0 179.5 -70t70.5 -176t-70.5 -176t-179.5 -70zM305 46q80 0 129 53.5t49 134.5t-49 135t-129 54q-79 0 -128 -54t-49 -135q0 -80 49 -134t128 -54z" />
    <glyph glyph-name="uni043F" unicode="&#x43f;" horiz-adv-x="578" 
d="M90 0v468h398v-468h-68v411h-262v-411h-68z" />
    <glyph glyph-name="uni0440" unicode="&#x440;" horiz-adv-x="635" 
d="M90 -240v708h68v-81h3q28 44 76 68.5t100 24.5q108 0 175 -70.5t67 -175.5t-67 -175.5t-175 -70.5q-51 0 -99 24t-77 67h-3v-319h-68zM330 46q82 0 129.5 53.5t47.5 134.5t-47.5 135t-129.5 54q-78 0 -129 -54t-51 -135t51 -134.5t129 -53.5z" />
    <glyph glyph-name="uni0441" unicode="&#x441;" horiz-adv-x="500" 
d="M306 -12q-112 0 -181 69.5t-69 176.5t69 176.5t181 69.5q50 0 97.5 -21t76.5 -60l-53 -38q-17 27 -49.5 44.5t-70.5 17.5q-80 0 -129.5 -53.5t-49.5 -135.5q0 -81 49 -134.5t129 -53.5q81 0 127 61l51 -38q-66 -81 -178 -81z" />
    <glyph glyph-name="uni0442" unicode="&#x442;" horiz-adv-x="446" 
d="M189 0v411h-169v57h406v-57h-169v-411h-68z" />
    <glyph glyph-name="uni0443" unicode="&#x443;" horiz-adv-x="488" 
d="M92 -240q-31 0 -61 6l7 62q24 -8 50 -8q33 0 53.5 20.5t36.5 62.5l38 98l-200 467h76l159 -395h2l145 395h74l-233 -589q-23 -59 -56.5 -89t-90.5 -30z" />
    <glyph glyph-name="uni0444" unicode="&#x444;" horiz-adv-x="712" 
d="M322 -240v226q-126 0 -199 66t-73 180q0 113 73 179.5t199 66.5v278h68v-278q126 0 199 -66.5t73 -179.5q0 -114 -73 -180t-199 -66v-226h-68zM322 44v377q-96 -1 -148 -50.5t-52 -137.5q0 -91 51.5 -140t148.5 -49zM390 44q97 0 148.5 49t51.5 140q0 88 -52 137.5
t-148 50.5v-377z" />
    <glyph glyph-name="uni0445" unicode="&#x445;" horiz-adv-x="484" 
d="M16 0l184 242l-173 226h87l128 -178l128 178h82l-170 -223l186 -245h-88l-139 195l-143 -195h-82z" />
    <glyph glyph-name="uni0446" unicode="&#x446;" horiz-adv-x="598" 
d="M500 -152v152h-410v468h68v-409h262v409h68v-409h75v-211h-63z" />
    <glyph glyph-name="uni0447" unicode="&#x447;" horiz-adv-x="527" 
d="M369 0v192q-62 -18 -137 -18q-158 0 -158 150v144h68v-136q0 -59 26 -80t80 -21q56 0 121 17v220h68v-468h-68z" />
    <glyph glyph-name="uni0448" unicode="&#x448;" horiz-adv-x="838" 
d="M90 0v468h68v-409h227v409h68v-409h227v409h68v-468h-658z" />
    <glyph glyph-name="uni0449" unicode="&#x449;" horiz-adv-x="858" 
d="M760 -152v152h-670v468h68v-409h227v409h68v-409h227v409h68v-409h75v-211h-63z" />
    <glyph glyph-name="uni044A" unicode="&#x44a;" horiz-adv-x="570" 
d="M160 0v411h-140v57h208v-176h113q87 0 135.5 -38t48.5 -109q0 -70 -47.5 -107.5t-135.5 -37.5h-182zM228 59h121q106 0 106 86q0 90 -106 90h-121v-176z" />
    <glyph glyph-name="uni044B" unicode="&#x44b;" horiz-adv-x="705" 
d="M90 0v468h68v-176h113q87 0 135.5 -38t48.5 -109q0 -70 -47.5 -107.5t-135.5 -37.5h-182zM158 59h121q106 0 106 86q0 90 -106 90h-121v-176zM547 0v468h68v-468h-68z" />
    <glyph glyph-name="uni044C" unicode="&#x44c;" horiz-adv-x="500" 
d="M90 0v468h68v-176h113q87 0 135.5 -38t48.5 -109q0 -70 -47.5 -107.5t-135.5 -37.5h-182zM158 59h121q106 0 106 86q0 90 -106 90h-121v-176z" />
    <glyph glyph-name="uni044D" unicode="&#x44d;" horiz-adv-x="503" 
d="M197 -12q-117 0 -181 79l49 40q50 -63 132 -63q77 0 125.5 48t53.5 123h-225v57h223q-11 69 -58 111t-118 42q-78 0 -132 -63l-46 42q60 76 179 76q113 0 180.5 -68t67.5 -178t-68.5 -178t-181.5 -68z" />
    <glyph glyph-name="uni044E" unicode="&#x44e;" horiz-adv-x="800" 
d="M504 -12q-100 0 -166.5 63.5t-73.5 163.5h-106v-215h-68v468h68v-196h108q13 92 78.5 150t159.5 58q105 0 172.5 -70t67.5 -176t-67.5 -176t-172.5 -70zM504 46q76 0 122 53.5t46 134.5t-46 135t-122 54t-122 -54t-46 -135t46 -134.5t122 -53.5z" />
    <glyph glyph-name="uni044F" unicode="&#x44f;" horiz-adv-x="539" 
d="M60 0l125 190q-54 12 -84.5 46.5t-30.5 89.5q0 68 48 105t130 37h201v-468h-68v184h-123l-115 -184h-83zM252 242h129v169h-129q-113 0 -113 -85q0 -84 113 -84z" />
    <glyph glyph-name="uni0450" unicode="&#x450;" horiz-adv-x="572" 
d="M298 -12q-104 0 -173 70t-69 176q0 105 68 175.5t168 70.5q106 0 165 -65.5t59 -166.5q0 -20 -1 -32h-388q2 -71 51 -120.5t120 -49.5q49 0 89 23.5t61 57.5l51 -40q-78 -99 -201 -99zM128 270h319q-3 68 -43.5 110.5t-111.5 42.5q-66 0 -112.5 -45.5t-51.5 -107.5z
M282 564l-132 144h91l100 -144h-59z" />
    <glyph glyph-name="uni0451" unicode="&#x451;" horiz-adv-x="572" 
d="M298 -12q-104 0 -173 70t-69 176q0 105 68 175.5t168 70.5q106 0 165 -65.5t59 -166.5q0 -20 -1 -32h-388q2 -71 51 -120.5t120 -49.5q49 0 89 23.5t61 57.5l51 -40q-78 -99 -201 -99zM128 270h319q-3 68 -43.5 110.5t-111.5 42.5q-66 0 -112.5 -45.5t-51.5 -107.5z
M152 647q0 20 14.5 35.5t36.5 15.5t36.5 -15.5t14.5 -35.5t-14.5 -35.5t-36.5 -15.5t-36.5 15.5t-14.5 35.5zM344 647q0 20 14.5 35.5t36.5 15.5t36.5 -15.5t14.5 -35.5t-14.5 -35.5t-36.5 -15.5t-36.5 15.5t-14.5 35.5z" />
    <glyph glyph-name="uni0452" unicode="&#x452;" horiz-adv-x="583" 
d="M343 -240q-37 0 -61 7l12 60q24 -7 47 -7q51 0 69.5 31t18.5 89v319q0 79 -28.5 121.5t-98.5 42.5q-59 0 -100.5 -47.5t-41.5 -135.5v-240h-68v570h-84v50h84v136h68v-136h158v-50h-158v-179h2q18 40 62.5 64.5t94.5 24.5q87 0 132.5 -52t45.5 -141v-355
q0 -81 -39.5 -126.5t-114.5 -45.5z" />
    <glyph glyph-name="uni0453" unicode="&#x453;" horiz-adv-x="420" 
d="M90 0v468h310v-57h-242v-411h-68zM384 708l-132 -144h-59l100 144h91z" />
    <glyph glyph-name="uni0454" unicode="&#x454;" horiz-adv-x="503" 
d="M306 -12q-113 0 -181.5 68t-68.5 178t67.5 178t180.5 68q119 0 179 -76l-46 -42q-54 63 -132 63q-71 0 -118 -42t-58 -111h243v-57h-245q5 -75 53.5 -123t125.5 -48q82 0 132 63l49 -40q-64 -79 -181 -79z" />
    <glyph glyph-name="uni0455" unicode="&#x455;" horiz-adv-x="444" 
d="M223 -12q-123 0 -185 91l54 40q19 -32 54.5 -52.5t75.5 -20.5q48 0 79 19.5t31 62.5q0 35 -32.5 54t-105.5 36q-26 6 -45 13t-41.5 21t-35 37.5t-12.5 54.5q0 67 48.5 101.5t118.5 34.5q50 0 96 -22.5t68 -61.5l-52 -39q-15 30 -46 48t-69 18q-41 0 -70 -18.5t-29 -54.5
q0 -32 26 -50t86 -30q83 -17 122.5 -50t39.5 -87q0 -74 -51.5 -109.5t-124.5 -35.5z" />
    <glyph glyph-name="uni0456" unicode="&#x456;" horiz-adv-x="250" 
d="M91 0v468h68v-468h-68zM125 600q-19 0 -33.5 14t-14.5 34t14.5 34t33.5 14t33.5 -14t14.5 -34t-14.5 -34t-33.5 -14z" />
    <glyph glyph-name="uni0457" unicode="&#x457;" horiz-adv-x="250" 
d="M-22 647q0 20 14.5 35.5t36.5 15.5t36.5 -15.5t14.5 -35.5t-14.5 -35.5t-36.5 -15.5t-36.5 15.5t-14.5 35.5zM170 647q0 20 14.5 35.5t36.5 15.5t36.5 -15.5t14.5 -35.5t-14.5 -35.5t-36.5 -15.5t-36.5 15.5t-14.5 35.5zM159 468v-468h-68v468h68z" />
    <glyph glyph-name="uni0458" unicode="&#x458;" horiz-adv-x="251" 
d="M27 -240q-30 0 -54 7l10 57q20 -6 43 -6q40 0 53 25t13 75v550h68v-561q0 -147 -133 -147zM126 600q-19 0 -33.5 14t-14.5 34t14.5 34t33.5 14t33.5 -14t14.5 -34t-14.5 -34t-33.5 -14z" />
    <glyph glyph-name="uni0459" unicode="&#x459;" horiz-adv-x="834" 
d="M60 -5q-29 0 -51 6l8 59q15 -5 32 -5q55 0 81.5 58.5t26.5 196.5v158h335v-176h113q87 0 135.5 -38t48.5 -109q0 -70 -47.5 -107.5t-135.5 -37.5h-182v411h-201v-125q0 -141 -37.5 -216t-125.5 -75zM492 59h121q106 0 106 86q0 90 -106 90h-121v-176z" />
    <glyph glyph-name="uni045A" unicode="&#x45a;" horiz-adv-x="837" 
d="M90 0v468h68v-188h269v188h68v-188h113q88 0 136 -35.5t48 -105.5q0 -69 -47 -104t-136 -35h-182v223h-269v-223h-68zM495 59h121q106 0 106 80q0 84 -106 84h-121v-164z" />
    <glyph glyph-name="uni045B" unicode="&#x45b;" horiz-adv-x="583" 
d="M92 0v570h-84v50h84v136h68v-136h158v-50h-158v-179h2q18 40 62.5 64.5t94.5 24.5q87 0 132.5 -52t45.5 -141v-287h-68v259q0 79 -28.5 121.5t-98.5 42.5q-59 0 -100.5 -47.5t-41.5 -135.5v-240h-68z" />
    <glyph glyph-name="uni045C" unicode="&#x45c;" horiz-adv-x="510" 
d="M92 0v468h68v-221h3l216 221h98l-236 -224l260 -244h-100l-238 236h-3v-236h-68zM420 708l-132 -144h-59l100 144h91z" />
    <glyph glyph-name="uni045D" unicode="&#x45d;" horiz-adv-x="600" 
d="M90 0v468h68v-374h1l277 374h74v-468h-67v378h-2l-277 -378h-74zM293 564l-132 144h91l100 -144h-59z" />
    <glyph glyph-name="uni045E" unicode="&#x45e;" horiz-adv-x="488" 
d="M92 -240q-31 0 -61 6l7 62q24 -8 50 -8q33 0 53.5 20.5t36.5 62.5l38 98l-200 467h76l159 -395h2l145 395h74l-233 -589q-23 -59 -56.5 -89t-90.5 -30zM252 576q-61 0 -100.5 34.5t-45.5 93.5l46 9q7 -38 34.5 -60.5t65.5 -22.5t65.5 22.5t34.5 60.5l46 -9
q-6 -59 -45.5 -93.5t-100.5 -34.5z" />
    <glyph glyph-name="uni045F" unicode="&#x45f;" horiz-adv-x="578" 
d="M258 -152v152h-168v468h68v-409h262v409h68v-468h-167v-152h-63z" />
    <glyph glyph-name="uni0490" unicode="&#x490;" horiz-adv-x="508" 
d="M94 0v708h334v144h68v-208h-330v-644h-72z" />
    <glyph glyph-name="uni0491" unicode="&#x491;" horiz-adv-x="420" 
d="M90 0v468h247v124h63v-181h-242v-411h-68z" />
    <glyph glyph-name="Wgrave" unicode="&#x1e80;" horiz-adv-x="972" 
d="M90 708l175 -609h2l177 609h86l177 -609h2l173 609h76l-209 -708h-84l-178 608h-2l-178 -608h-84l-209 708h76zM464 764l-132 144h91l100 -144h-59z" />
    <glyph glyph-name="wgrave" unicode="&#x1e81;" horiz-adv-x="746" 
d="M26 468h73l113 -380h2l126 380h66l128 -380h2l112 380h72l-148 -468h-74l-125 379h-2l-123 -379h-74zM339 564l-132 144h91l100 -144h-59z" />
    <glyph glyph-name="Wacute" unicode="&#x1e82;" horiz-adv-x="972" 
d="M90 708l175 -609h2l177 609h86l177 -609h2l173 609h76l-209 -708h-84l-178 608h-2l-178 -608h-84l-209 708h76zM643 908l-132 -144h-59l100 144h91z" />
    <glyph glyph-name="wacute" unicode="&#x1e83;" horiz-adv-x="746" 
d="M26 468h73l113 -380h2l126 380h66l128 -380h2l112 380h72l-148 -468h-74l-125 379h-2l-123 -379h-74zM539 708l-132 -144h-59l100 144h91z" />
    <glyph glyph-name="Wdieresis" unicode="&#x1e84;" horiz-adv-x="972" 
d="M90 708l175 -609h2l177 609h86l177 -609h2l173 609h76l-209 -708h-84l-178 608h-2l-178 -608h-84l-209 708h76zM339 847q0 20 14.5 35.5t36.5 15.5t36.5 -15.5t14.5 -35.5t-14.5 -35.5t-36.5 -15.5t-36.5 15.5t-14.5 35.5zM531 847q0 20 14.5 35.5t36.5 15.5t36.5 -15.5
t14.5 -35.5t-14.5 -35.5t-36.5 -15.5t-36.5 15.5t-14.5 35.5z" />
    <glyph glyph-name="wdieresis" unicode="&#x1e85;" horiz-adv-x="746" 
d="M26 468h73l113 -380h2l126 380h66l128 -380h2l112 380h72l-148 -468h-74l-125 379h-2l-123 -379h-74zM225 647q0 20 14.5 35.5t36.5 15.5t36.5 -15.5t14.5 -35.5t-14.5 -35.5t-36.5 -15.5t-36.5 15.5t-14.5 35.5zM417 647q0 20 14.5 35.5t36.5 15.5t36.5 -15.5
t14.5 -35.5t-14.5 -35.5t-36.5 -15.5t-36.5 15.5t-14.5 35.5z" />
    <glyph glyph-name="Ygrave" unicode="&#x1ef2;" horiz-adv-x="602" 
d="M337 305v-305h-72v305l-265 403h90l213 -343l215 343h84zM284 764l-132 144h91l100 -144h-59z" />
    <glyph glyph-name="ygrave" unicode="&#x1ef3;" horiz-adv-x="488" 
d="M92 468l159 -395h2l145 395h74l-233 -589q-23 -59 -56.5 -89t-90.5 -30q-31 0 -61 6l7 62q24 -8 50 -8q33 0 53.5 20.5t36.5 62.5l38 98l-200 467h76zM230 564l-132 144h91l100 -144h-59z" />
    <glyph glyph-name="uni2010" unicode="&#x2010;" horiz-adv-x="320" 
d="M272 271v-57h-224v57h224z" />
    <glyph glyph-name="endash" unicode="&#x2013;" horiz-adv-x="400" 
d="M370 271v-57h-340v57h340z" />
    <glyph glyph-name="emdash" unicode="&#x2014;" horiz-adv-x="600" 
d="M570 271v-57h-540v57h540z" />
    <glyph glyph-name="afii00208" unicode="&#x2015;" horiz-adv-x="600" 
d="M570 271v-57h-540v57h540z" />
    <glyph glyph-name="quoteleft" unicode="&#x2018;" horiz-adv-x="222" 
d="M42 473l81 235h57l-67 -235h-71z" />
    <glyph glyph-name="quoteright" unicode="&#x2019;" horiz-adv-x="222" 
d="M180 708l-81 -235h-57l67 235h71z" />
    <glyph glyph-name="quotesinglbase" unicode="&#x201a;" horiz-adv-x="222" 
d="M180 95l-81 -235h-57l67 235h71z" />
    <glyph glyph-name="quotedblleft" unicode="&#x201c;" horiz-adv-x="387" 
d="M42 473l81 235h57l-67 -235h-71zM207 473l81 235h57l-67 -235h-71z" />
    <glyph glyph-name="quotedblright" unicode="&#x201d;" horiz-adv-x="387" 
d="M345 708l-81 -235h-57l67 235h71zM180 708l-81 -235h-57l67 235h71z" />
    <glyph glyph-name="quotedblbase" unicode="&#x201e;" horiz-adv-x="387" 
d="M345 95l-81 -235h-57l67 235h71zM180 95l-81 -235h-57l67 235h71z" />
    <glyph glyph-name="dagger" unicode="&#x2020;" horiz-adv-x="556" 
d="M311 708v-204h204v-60h-204v-570h-66v570h-204v60h204v204h66z" />
    <glyph glyph-name="daggerdbl" unicode="&#x2021;" horiz-adv-x="556" 
d="M311 708v-192h195v-60h-195v-330h195v-60h-195v-192h-66v192h-195v60h195v330h-195v60h195v192h66z" />
    <glyph glyph-name="bullet" unicode="&#x2022;" horiz-adv-x="500" 
d="M73 354q0 74 51.5 125.5t125.5 51.5t125.5 -51.5t51.5 -125.5t-51.5 -125.5t-125.5 -51.5t-125.5 51.5t-51.5 125.5z" />
    <glyph glyph-name="ellipsis" unicode="&#x2026;" horiz-adv-x="1000" 
d="M221 48q0 -22 -15.5 -38t-38.5 -16t-38.5 16t-15.5 38t15.5 38t38.5 16t38.5 -16t15.5 -38zM554 48q0 -22 -15.5 -38t-38.5 -16t-38.5 16t-15.5 38t15.5 38t38.5 16t38.5 -16t15.5 -38zM887 48q0 -22 -15.5 -38t-38.5 -16t-38.5 16t-15.5 38t15.5 38t38.5 16t38.5 -16
t15.5 -38z" />
    <glyph glyph-name="perthousand" unicode="&#x2030;" horiz-adv-x="1000" 
d="M331 566q0 -63 -45 -108.5t-108 -45.5t-108 45.5t-45 108.5t45 108.5t108 45.5t108 -45.5t45 -108.5zM277 566q0 41 -29 70.5t-70 29.5t-70 -29.5t-29 -70.5t29 -70.5t70 -29.5t70 29.5t29 70.5zM625 142q0 -63 -45 -108.5t-108 -45.5t-108 45.5t-45 108.5t45 108.5
t108 45.5t108 -45.5t45 -108.5zM571 142q0 41 -29 70.5t-70 29.5t-70 -29.5t-29 -70.5t29 -70.5t70 -29.5t70 29.5t29 70.5zM975 142q0 -63 -45 -108.5t-108 -45.5t-108 45.5t-45 108.5t45 108.5t108 45.5t108 -45.5t45 -108.5zM921 142q0 41 -29 70.5t-70 29.5t-70 -29.5
t-29 -70.5t29 -70.5t70 -29.5t70 29.5t29 70.5zM575 712l-450 -743l-52 27l451 743z" />
    <glyph glyph-name="guilsinglleft" unicode="&#x2039;" horiz-adv-x="315" 
d="M131 240l115 -176l-47 -33l-140 209l140 209l47 -33z" />
    <glyph glyph-name="guilsinglright" unicode="&#x203a;" horiz-adv-x="315" 
d="M184 240l-115 176l47 33l140 -209l-140 -209l-47 33z" />
    <glyph glyph-name="interrobang" unicode="&#x203d;" horiz-adv-x="482" 
d="M274 192h-68l-1 345h69l-4 -166h1q10 14 49 55q53 54 53 114q0 56 -36.5 87.5t-91.5 31.5q-53 0 -87.5 -33t-42.5 -85l-67 12q15 77 69 122t131 45q83 0 138.5 -47t55.5 -129q0 -53 -21.5 -89t-66.5 -77t-62.5 -67t-17.5 -67v-52zM300 48q0 -22 -15.5 -38t-38.5 -16
t-38.5 16t-15.5 38t15.5 38t38.5 16t38.5 -16t15.5 -38z" />
    <glyph glyph-name="fraction" unicode="&#x2044;" horiz-adv-x="100" 
d="M297 712l-450 -743l-52 27l451 743z" />
    <glyph glyph-name="zero.superior" unicode="&#x2070;" horiz-adv-x="370" 
d="M327 663q0 -93 -33.5 -155.5t-108.5 -62.5q-40 0 -69 18.5t-44.5 50.5t-22.5 69t-7 80t7 80t22.5 69t44.5 50.5t69 18.5q75 0 108.5 -62.5t33.5 -155.5zM265 663q0 41 -7 76.5t-25.5 62t-47.5 26.5q-43 0 -62 -49t-19 -116q0 -68 19 -116t62 -48q42 0 61 48.5t19 115.5z
" />
    <glyph glyph-name="four.superior" unicode="&#x2074;" horiz-adv-x="370" 
d="M276 452h-55v98h-188v52l175 272h68v-270h60v-54h-60v-98zM221 604v189h-3l-122 -189h125z" />
    <glyph glyph-name="five.superior" unicode="&#x2075;" horiz-adv-x="370" 
d="M318 589q0 -65 -39.5 -104.5t-103.5 -39.5q-48 0 -83 23.5t-51 62.5l55 22q26 -54 79 -54q36 0 59 23.5t23 62.5t-24.5 63t-63.5 24q-40 0 -95 -30l4 232h224v-54h-166l-3 -105q19 8 49 8q61 0 98.5 -37t37.5 -97z" />
    <glyph glyph-name="six.superior" unicode="&#x2076;" horiz-adv-x="370" 
d="M327 582q0 -60 -40.5 -98.5t-100.5 -38.5q-61 0 -101.5 38.5t-40.5 98.5q0 52 39 113l112 179h71l-107 -163l1 -1q16 6 33 6q58 0 96 -37.5t38 -96.5zM267 582q0 35 -22.5 58.5t-58.5 23.5q-37 0 -59.5 -23.5t-22.5 -58.5q0 -36 23 -59.5t59 -23.5q35 0 58 24t23 59z" />
    <glyph glyph-name="seven.superior" unicode="&#x2077;" horiz-adv-x="370" 
d="M152 452h-67l167 368h-191v54h257v-47z" />
    <glyph glyph-name="eight.superior" unicode="&#x2078;" horiz-adv-x="370" 
d="M323 569q0 -55 -40.5 -89.5t-97.5 -34.5t-98 34.5t-41 89.5q0 74 65 106v1q-50 29 -50 90q0 51 36 83t88 32q51 0 87 -32t36 -83q0 -60 -50 -90v-1q30 -14 47.5 -42t17.5 -64zM185 828q-28 0 -46 -18t-18 -46q0 -27 18.5 -45t45.5 -18q26 0 44.5 18t18.5 45q0 28 -18 46
t-45 18zM185 647q-35 0 -57 -21t-22 -53q0 -33 21.5 -53.5t57.5 -20.5q35 0 56.5 20.5t21.5 53.5q0 32 -21.5 53t-56.5 21z" />
    <glyph glyph-name="nine.superior" unicode="&#x2079;" horiz-adv-x="370" 
d="M326 745q0 -52 -39 -115l-112 -178h-71l108 164l-1 1q-12 -6 -34 -6q-57 0 -95.5 38t-38.5 96q0 59 40.5 97.5t101.5 38.5t101 -38.5t40 -97.5zM266 745q0 35 -23 59t-58 24q-36 0 -59 -24t-23 -59t22.5 -58.5t59.5 -23.5q36 0 58.5 23.5t22.5 58.5z" />
    <glyph glyph-name="zero.inferior" unicode="&#x2080;" horiz-adv-x="370" 
d="M327 73q0 -93 -33.5 -155.5t-108.5 -62.5q-40 0 -69 18.5t-44.5 50.5t-22.5 69t-7 80t7 80t22.5 69t44.5 50.5t69 18.5q75 0 108.5 -62.5t33.5 -155.5zM265 73q0 41 -7 76.5t-25.5 62t-47.5 26.5q-43 0 -62 -49t-19 -116q0 -68 19 -116t62 -48q42 0 61 48.5t19 115.5z
" />
    <glyph glyph-name="one.inferior" unicode="&#x2081;" horiz-adv-x="370" 
d="M171 -138v346l-64 -57l-38 41l112 92h51v-422h-61z" />
    <glyph glyph-name="two.inferior" unicode="&#x2082;" horiz-adv-x="370" 
d="M319 -138h-276v57l167 169q43 45 43 86q0 28 -19 45t-48 17q-28 0 -48 -19t-27 -51l-60 9q10 51 47.5 83.5t87.5 32.5q56 0 93.5 -30.5t37.5 -86.5q0 -27 -12 -53t-24 -40t-35 -37l-128 -128h201v-54z" />
    <glyph glyph-name="three.inferior" unicode="&#x2083;" horiz-adv-x="370" 
d="M320 -18q0 -60 -40.5 -93.5t-99.5 -33.5q-102 0 -141 96l57 19q10 -29 32 -45t52 -16q33 0 56.5 19t23.5 54q0 38 -27.5 55.5t-68.5 17.5h-27v51h27q84 0 84 70q0 27 -20 44.5t-49 17.5q-48 0 -75 -50l-50 26q44 77 127 77q55 0 91 -29.5t36 -84.5q0 -63 -57 -93
q69 -26 69 -102z" />
    <glyph glyph-name="four.inferior" unicode="&#x2084;" horiz-adv-x="370" 
d="M276 -138h-55v98h-188v52l175 272h68v-270h60v-54h-60v-98zM221 14v189h-3l-122 -189h125z" />
    <glyph glyph-name="five.inferior" unicode="&#x2085;" horiz-adv-x="370" 
d="M318 -1q0 -65 -39.5 -104.5t-103.5 -39.5q-48 0 -83 23.5t-51 62.5l55 22q26 -54 79 -54q36 0 59 23.5t23 62.5t-24.5 63t-63.5 24q-40 0 -95 -30l4 232h224v-54h-166l-3 -105q19 8 49 8q61 0 98.5 -37t37.5 -97z" />
    <glyph glyph-name="six.inferior" unicode="&#x2086;" horiz-adv-x="370" 
d="M327 -8q0 -60 -40.5 -98.5t-100.5 -38.5q-61 0 -101.5 38.5t-40.5 98.5q0 52 39 113l112 179h71l-107 -163l1 -1q16 6 33 6q58 0 96 -37.5t38 -96.5zM267 -8q0 35 -22.5 58.5t-58.5 23.5q-37 0 -59.5 -23.5t-22.5 -58.5q0 -36 23 -59.5t59 -23.5q35 0 58 24t23 59z" />
    <glyph glyph-name="seven.inferior" unicode="&#x2087;" horiz-adv-x="370" 
d="M152 -138h-67l167 368h-191v54h257v-47z" />
    <glyph glyph-name="eight.inferior" unicode="&#x2088;" horiz-adv-x="370" 
d="M323 -21q0 -55 -40.5 -89.5t-97.5 -34.5t-98 34.5t-41 89.5q0 74 65 106v1q-50 29 -50 90q0 51 36 83t88 32q51 0 87 -32t36 -83q0 -60 -50 -90v-1q30 -14 47.5 -42t17.5 -64zM185 238q-28 0 -46 -18t-18 -46q0 -27 18.5 -45t45.5 -18q26 0 44.5 18t18.5 45q0 28 -18 46
t-45 18zM185 57q-35 0 -57 -21t-22 -53q0 -33 21.5 -53.5t57.5 -20.5q35 0 56.5 20.5t21.5 53.5q0 32 -21.5 53t-56.5 21z" />
    <glyph glyph-name="nine.inferior" unicode="&#x2089;" horiz-adv-x="370" 
d="M326 155q0 -52 -39 -115l-112 -178h-71l108 164l-1 1q-12 -6 -34 -6q-57 0 -95.5 38t-38.5 96q0 59 40.5 97.5t101.5 38.5t101 -38.5t40 -97.5zM266 155q0 35 -23 59t-58 24q-36 0 -59 -24t-23 -59t22.5 -58.5t59.5 -23.5q36 0 58.5 23.5t22.5 58.5z" />
    <glyph glyph-name="Euro" unicode="&#x20ac;" horiz-adv-x="580" 
d="M511 633q-51 30 -127 30q-85 0 -142.5 -51.5t-78.5 -142.5h300l-18 -55h-291q-5 -33 -5 -65q0 -25 4 -57h256l-18 -55h-231q16 -87 78 -139.5t146 -52.5q79 0 136 40l29 -56q-67 -47 -174 -47q-115 0 -191.5 75t-95.5 180h-76l20 55h49q-3 39 -3 56q0 34 4 66h-69l20 55
h57q27 121 107 189t190 68q88 0 149 -32z" />
    <glyph glyph-name="afii61248" unicode="&#x2105;" horiz-adv-x="847" 
d="M219 370q-81 0 -130 49t-49 126q0 76 49 125.5t130 49.5q86 0 131 -63l-49 -36q-29 44 -82 44q-51 0 -81 -34t-30 -86t30 -86t81 -34q53 0 87 44l48 -36q-53 -63 -135 -63zM224 -31l-52 27l451 743l51 -27zM807 163q0 -76 -50 -125.5t-129 -49.5q-78 0 -128.5 49.5
t-50.5 125.5q0 75 50.5 125t128.5 50q79 0 129 -49.5t50 -125.5zM739 163q0 51 -30.5 85.5t-80.5 34.5t-80.5 -34.5t-30.5 -85.5q0 -52 30 -86t81 -34t81 34t30 86z" />
    <glyph glyph-name="afii61289" unicode="&#x2113;" horiz-adv-x="500" 
d="M415 41q-59 -55 -130 -55q-57 0 -92 33t-35 95v114l-58 -62h-2l-26 37l86 84v259q0 81 36.5 128t92.5 47q49 0 79.5 -34.5t30.5 -93.5q0 -142 -171 -318v-150q0 -47 22 -67t53 -20q46 0 88 38h2zM340 588q0 38 -15 61.5t-38 23.5q-25 0 -43 -30t-18 -86v-222
q114 132 114 253z" />
    <glyph glyph-name="uni2116" unicode="&#x2116;" horiz-adv-x="1040" 
d="M94 0v708h95l344 -603h2v603h72v-708h-95l-344 609h-2v-609h-72zM716 302v57h284v-57h-284zM858 420q-66 0 -109 42t-43 106q0 65 43 106.5t109 41.5t109 -41.5t43 -106.5q0 -64 -43 -106t-109 -42zM858 466q44 0 69 30t25 72q0 43 -25 72.5t-69 29.5t-69 -29.5
t-25 -72.5q0 -42 25 -72t69 -30z" />
    <glyph glyph-name="published" unicode="&#x2117;" horiz-adv-x="800" 
d="M20 353q0 157 111.5 267t269.5 110q157 0 268 -110t111 -267q0 -156 -111 -265.5t-268 -109.5q-158 0 -269.5 109.5t-111.5 265.5zM80 353q0 -132 94 -225.5t227 -93.5q132 0 225.5 93.5t93.5 225.5q0 133 -93.5 227t-225.5 94q-133 0 -227 -94t-94 -227zM277 129v437
h157q77 0 119 -37t42 -103q0 -64 -43.5 -102.5t-118.5 -38.5h-90v-156h-66zM343 344h87q49 0 73.5 22t24.5 60t-24.5 59.5t-73.5 21.5h-87v-163z" />
    <glyph glyph-name="trademark" unicode="&#x2122;" horiz-adv-x="1000" 
d="M401 708v-54h-133v-358h-60v358h-136v54h329zM928 708v-412h-60v346h-2l-139 -346h-39l-139 346h-2v-346h-60v412h93l129 -316l129 316h90z" />
    <glyph glyph-name="Omega" unicode="&#x2126;" horiz-adv-x="773" 
d="M387 663q-118 0 -184.5 -73.5t-66.5 -183.5q0 -99 51.5 -164t139.5 -87v-155h-260v60h202v46q-98 31 -153.5 110.5t-55.5 188.5q0 147 94 234t233 87q141 0 233.5 -88t92.5 -233q0 -109 -55 -188.5t-154 -110.5v-46h202v-60h-260v155q90 22 140.5 87.5t50.5 163.5
q0 108 -65.5 182.5t-184.5 74.5z" />
    <glyph glyph-name="estimated" unicode="&#x212e;" horiz-adv-x="500" 
d="M561 259h-404v-181q59 -59 145 -59q122 0 193 120l35 -21q-46 -72 -98 -103.5t-130 -31.5q-115 0 -186.5 79t-71.5 197q0 119 71 197.5t187 78.5q115 0 186.5 -77t72.5 -199zM157 295h291v145q-63 60 -147 60t-144 -60v-145z" />
    <glyph glyph-name="partialdiff" unicode="&#x2202;" horiz-adv-x="496" 
d="M455 363q0 -50 -4.5 -96t-19.5 -99t-38.5 -91t-65.5 -63.5t-97 -25.5q-90 0 -144.5 66t-54.5 158q0 90 52.5 151.5t141.5 61.5q97 0 166 -84q0 9 0.5 26t0.5 26q0 46 -9 90.5t-28.5 87t-56 69t-85.5 26.5q-52 0 -112 -46l-36 43q67 58 145 58q68 0 118.5 -33t76.5 -88.5
t38 -114t12 -122.5zM386 278q-68 91 -155 91q-64 0 -100.5 -46.5t-36.5 -112.5t36.5 -117.5t100.5 -51.5q41 0 72 23.5t47.5 61.5t25 75.5t10.5 76.5z" />
    <glyph glyph-name="Delta" unicode="&#x2206;" horiz-adv-x="698" 
d="M673 0h-648v49l290 659h70l288 -659v-49zM587 65l-239 562l-238 -562h477z" />
    <glyph glyph-name="product" unicode="&#x220f;" horiz-adv-x="711" 
d="M641 -214h-66v938h-438v-938h-66v1000h570v-1000z" />
    <glyph glyph-name="summation" unicode="&#x2211;" horiz-adv-x="604" 
d="M578 -214h-553v55l329 448l-315 441v56h527v-62h-442l309 -435l-328 -442h473v-61z" />
    <glyph glyph-name="minus" unicode="&#x2212;" horiz-adv-x="666" 
d="M588 333v-60h-510v60h510z" />
    <glyph glyph-name="uni2215" unicode="&#x2215;" horiz-adv-x="100" 
d="M297 712l-450 -743l-52 27l451 743z" />
    <glyph glyph-name="uni2219" unicode="&#x2219;" horiz-adv-x="260" 
d="M184 314q0 -22 -15.5 -38t-38.5 -16t-38.5 16t-15.5 38t15.5 38t38.5 16t38.5 -16t15.5 -38z" />
    <glyph glyph-name="radical" unicode="&#x221a;" horiz-adv-x="493" 
d="M502 786l-210 -1000h-66l-164 340l-46 -22l-24 50l100 48l158 -332l189 916h63z" />
    <glyph glyph-name="infinity" unicode="&#x221e;" horiz-adv-x="741" 
d="M700 252q0 -64 -38.5 -106t-101.5 -42q-36 0 -73.5 18.5t-59 36.5t-56.5 52q-9 -7 -33 -28.5t-36.5 -31t-34 -23t-42.5 -19t-44 -5.5q-62 0 -101 41.5t-39 103.5q0 63 38 105.5t100 42.5q28 0 53.5 -8.5t54.5 -30.5t40.5 -32t43.5 -41q5 5 22.5 21.5t24.5 23t23 20.5
t27.5 20t27 14t31 11t31.5 3q63 0 102.5 -41.5t39.5 -104.5zM643 249q0 40 -22 66t-61 26q-9 0 -18.5 -1.5t-19 -6t-17.5 -8.5t-18.5 -11.5t-16.5 -11.5t-17 -14t-15 -13.5t-15.5 -14t-13.5 -12.5q33 -29 47.5 -41t46.5 -28.5t60 -16.5q37 0 58.5 24.5t21.5 62.5zM333 249
q-3 2 -18 15t-21 18t-20.5 16.5t-24 17t-22.5 12t-25 9.5t-24 3q-37 0 -58.5 -26.5t-21.5 -63.5q0 -39 22.5 -63.5t61.5 -24.5q62 0 151 87z" />
    <glyph glyph-name="integral" unicode="&#x222b;" horiz-adv-x="543" 
d="M406 736q0 -16 -10.5 -25t-26.5 -9q-20 0 -32.5 20t-19.5 20q-10 0 -17 -9.5t-10.5 -25.5t-5.5 -34t-2.5 -39t0 -36.5t1 -30t0.5 -16.5v-504q0 -122 -16 -173q-28 -87 -106 -87q-24 0 -42 12t-18 35q0 13 9.5 22.5t23.5 9.5q15 0 23.5 -9.5t14 -19t12.5 -9.5q32 0 32 159
l1 21v495q0 8 -1 43.5t0 53.5t3.5 52t10.5 53t20.5 40t34.5 31t51 10q27 0 48.5 -12.5t21.5 -37.5z" />
    <glyph glyph-name="approxequal" unicode="&#x2248;" horiz-adv-x="666" 
d="M596 402q-6 -58 -37 -97.5t-86 -39.5q-48 0 -145 37q-98 36 -133 36q-32 0 -53 -23.5t-26 -56.5h-45q8 60 38 99.5t86 39.5q45 0 143 -36q97 -37 136 -37q62 0 79 78h43zM596 232q-7 -59 -37.5 -98.5t-86.5 -39.5q-49 0 -144 37q-98 36 -133 36q-32 0 -53 -23.5
t-26 -56.5h-45q9 60 38 100t85 40q44 0 144 -36q95 -37 136 -37q61 0 78 78h44z" />
    <glyph glyph-name="notequal" unicode="&#x2260;" horiz-adv-x="666" 
d="M584 120h-287l-76 -144l-52 27l62 117h-149v60h181l68 130h-249v60h282l77 147l52 -28l-63 -119h154v-60h-186l-69 -130h255v-60z" />
    <glyph glyph-name="lessequal" unicode="&#x2264;" horiz-adv-x="666" 
d="M584 108l-502 188v65l502 189v-65l-419 -157l419 -155v-65zM584 6h-502v59h502v-59z" />
    <glyph glyph-name="greaterequal" unicode="&#x2265;" horiz-adv-x="666" 
d="M584 296l-502 -188v65l420 155l-420 157v65l502 -189v-65zM584 6h-502v59h502v-59z" />
    <glyph glyph-name="lozenge" unicode="&#x25ca;" horiz-adv-x="593" 
d="M498 356l-171 -391h-63l-169 391l169 391h63zM433 356l-137 325l-136 -325l136 -325z" />
    <glyph glyph-name="f_i" unicode="&#xf001;" horiz-adv-x="544" 
d="M288 468v-57h-110v-411h-68v411h-98v57h98v128q0 81 40 126.5t119 45.5q32 0 56 -7l-12 -60q-24 7 -47 7q-51 0 -69.5 -31t-18.5 -89v-120h110zM453 468v-468h-68v468h68zM467 648q0 -20 -14.5 -34t-33.5 -14t-33.5 14t-14.5 34t14.5 34t33.5 14t33.5 -14t14.5 -34z" />
    <glyph glyph-name="f_l" unicode="&#xf002;" horiz-adv-x="544" 
d="M288 468v-57h-110v-411h-68v411h-98v57h98v128q0 81 40 126.5t119 45.5q32 0 56 -7l-12 -60q-24 7 -47 7q-51 0 -69.5 -31t-18.5 -89v-120h110zM452 756v-756h-68v756h68z" />
    <glyph glyph-name="uniF8FF" unicode="&#xf8ff;" horiz-adv-x="512" 
d="M278 117h-56v67h56v-67zM271 234h-46l-2 17q0 56 13 81q15 28 46 59q31 29 40.5 46t9.5 37q0 36 -22.5 60.5t-53.5 24.5q-71 0 -82 -95l-50 8q7 69 43 103t92 34q54 0 89 -36t35 -95q0 -34 -13 -60t-50 -60q-37 -33 -43 -52q-6 -20 -6 -72zM50 50h412v617h-412v-617z
M0 718h512v-718h-512v718z" />
    <glyph glyph-name="grave.cap" 
d="M122 764l-132 144h91l100 -144h-59z" />
    <glyph glyph-name="acute.cap" 
d="M250 908l-132 -144h-59l100 144h91z" />
    <glyph glyph-name="circumflex.cap" 
d="M160 908l109 -144h-66l-83 108l-83 -108h-66l109 144h80z" />
    <glyph glyph-name="caron.cap" 
d="M269 908l-109 -144h-80l-109 144h66l83 -108l83 108h66z" />
    <glyph glyph-name="caron.alt" 
d="M219 708l-76 -185h-57l62 185h71z" />
    <glyph glyph-name="tilde.cap" 
d="M1 776h-43q18 104 92 104q27 0 73 -23q50 -23 67 -23q37 0 49 50h43q-18 -104 -92 -104q-29 0 -73 23t-67 23q-37 0 -49 -50z" />
    <glyph glyph-name="dieresis.cap" 
d="M-27 847q0 20 14.5 35.5t36.5 15.5t36.5 -15.5t14.5 -35.5t-14.5 -35.5t-36.5 -15.5t-36.5 15.5t-14.5 35.5zM165 847q0 20 14.5 35.5t36.5 15.5t36.5 -15.5t14.5 -35.5t-14.5 -35.5t-36.5 -15.5t-36.5 15.5t-14.5 35.5z" />
    <glyph glyph-name="macron.cap" 
d="M255 854v-54h-270v54h270z" />
    <glyph glyph-name="breve.cap" 
d="M223 908h44q-4 -61 -44.5 -96.5t-102.5 -35.5t-102.5 35.5t-44.5 96.5h44q6 -38 35 -58t68 -20t68 20t35 58z" />
    <glyph glyph-name="ring.cap" 
d="M216 850q0 -40 -28.5 -67.5t-67.5 -27.5t-67.5 27.5t-28.5 67.5t28.5 67.5t67.5 27.5t67.5 -27.5t28.5 -67.5zM180 850q0 25 -17.5 42t-42.5 17t-42.5 -17t-17.5 -42t17.5 -42t42.5 -17t42.5 17t17.5 42z" />
    <glyph glyph-name="hungarumlaut.cap" 
d="M131 908l-133 -144h-59l101 144h91zM301 908l-132 -144h-59l100 144h91z" />
    <glyph glyph-name="dotaccent.cap" 
d="M168 848q0 -20 -14.5 -34t-33.5 -14t-33.5 14t-14.5 34t14.5 34t33.5 14t33.5 -14t14.5 -34z" />
    <glyph glyph-name="commaaccent" 
d="M181 -45l-76 -185h-57l62 185h71z" />
    <glyph glyph-name="commaaccent.alt" 
d="M96 564l76 185h57l-62 -185h-71z" />
    <glyph glyph-name="zero.denominator" horiz-adv-x="370" 
d="M327 211q0 -93 -33.5 -155.5t-108.5 -62.5q-40 0 -69 18.5t-44.5 50.5t-22.5 69t-7 80t7 80t22.5 69t44.5 50.5t69 18.5q75 0 108.5 -62.5t33.5 -155.5zM265 211q0 41 -7 76.5t-25.5 62t-47.5 26.5q-43 0 -62 -49t-19 -116q0 -68 19 -116t62 -48q42 0 61 48.5t19 115.5z
" />
    <glyph glyph-name="one.denominator" horiz-adv-x="370" 
d="M171 0v346l-64 -57l-38 41l112 92h51v-422h-61z" />
    <glyph glyph-name="two.denominator" horiz-adv-x="370" 
d="M319 0h-276v57l167 169q43 45 43 86q0 28 -19 45t-48 17q-28 0 -48 -19t-27 -51l-60 9q10 51 47.5 83.5t87.5 32.5q56 0 93.5 -30.5t37.5 -86.5q0 -27 -12 -53t-24 -40t-35 -37l-128 -128h201v-54z" />
    <glyph glyph-name="three.denominator" horiz-adv-x="370" 
d="M320 120q0 -60 -40.5 -93.5t-99.5 -33.5q-102 0 -141 96l57 19q10 -29 32 -45t52 -16q33 0 56.5 19t23.5 54q0 38 -27.5 55.5t-68.5 17.5h-27v51h27q84 0 84 70q0 27 -20 44.5t-49 17.5q-48 0 -75 -50l-50 26q44 77 127 77q55 0 91 -29.5t36 -84.5q0 -63 -57 -93
q69 -26 69 -102z" />
    <glyph glyph-name="four.denominator" horiz-adv-x="370" 
d="M276 0h-55v98h-188v52l175 272h68v-270h60v-54h-60v-98zM221 152v189h-3l-122 -189h125z" />
    <glyph glyph-name="five.denominator" horiz-adv-x="370" 
d="M318 137q0 -65 -39.5 -104.5t-103.5 -39.5q-48 0 -83 23.5t-51 62.5l55 22q26 -54 79 -54q36 0 59 23.5t23 62.5t-24.5 63t-63.5 24q-40 0 -95 -30l4 232h224v-54h-166l-3 -105q19 8 49 8q61 0 98.5 -37t37.5 -97z" />
    <glyph glyph-name="six.denominator" horiz-adv-x="370" 
d="M327 130q0 -60 -40.5 -98.5t-100.5 -38.5q-61 0 -101.5 38.5t-40.5 98.5q0 52 39 113l112 179h71l-107 -163l1 -1q16 6 33 6q58 0 96 -37.5t38 -96.5zM267 130q0 35 -22.5 58.5t-58.5 23.5q-37 0 -59.5 -23.5t-22.5 -58.5q0 -36 23 -59.5t59 -23.5q35 0 58 24t23 59z" />
    <glyph glyph-name="seven.denominator" horiz-adv-x="370" 
d="M152 0h-67l167 368h-191v54h257v-47z" />
    <glyph glyph-name="eight.denominator" horiz-adv-x="370" 
d="M323 117q0 -55 -40.5 -89.5t-97.5 -34.5t-98 34.5t-41 89.5q0 74 65 106v1q-50 29 -50 90q0 51 36 83t88 32q51 0 87 -32t36 -83q0 -60 -50 -90v-1q30 -14 47.5 -42t17.5 -64zM185 376q-28 0 -46 -18t-18 -46q0 -27 18.5 -45t45.5 -18q26 0 44.5 18t18.5 45q0 28 -18 46
t-45 18zM185 195q-35 0 -57 -21t-22 -53q0 -33 21.5 -53.5t57.5 -20.5q35 0 56.5 20.5t21.5 53.5q0 32 -21.5 53t-56.5 21z" />
    <glyph glyph-name="nine.denominator" horiz-adv-x="370" 
d="M326 293q0 -52 -39 -115l-112 -178h-71l108 164l-1 1q-12 -6 -34 -6q-57 0 -95.5 38t-38.5 96q0 59 40.5 97.5t101.5 38.5t101 -38.5t40 -97.5zM266 293q0 35 -23 59t-58 24q-36 0 -59 -24t-23 -59t22.5 -58.5t59.5 -23.5q36 0 58.5 23.5t22.5 58.5z" />
    <glyph glyph-name="zero.numerator" horiz-adv-x="370" 
d="M327 497q0 -93 -33.5 -155.5t-108.5 -62.5q-40 0 -69 18.5t-44.5 50.5t-22.5 69t-7 80t7 80t22.5 69t44.5 50.5t69 18.5q75 0 108.5 -62.5t33.5 -155.5zM265 497q0 41 -7 76.5t-25.5 62t-47.5 26.5q-43 0 -62 -49t-19 -116q0 -68 19 -116t62 -48q42 0 61 48.5t19 115.5z
" />
    <glyph glyph-name="one.numerator" horiz-adv-x="370" 
d="M171 286v346l-64 -57l-38 41l112 92h51v-422h-61z" />
    <glyph glyph-name="two.numerator" horiz-adv-x="370" 
d="M319 286h-276v57l167 169q43 45 43 86q0 28 -19 45t-48 17q-28 0 -48 -19t-27 -51l-60 9q10 51 47.5 83.5t87.5 32.5q56 0 93.5 -30.5t37.5 -86.5q0 -27 -12 -53t-24 -40t-35 -37l-128 -128h201v-54z" />
    <glyph glyph-name="three.numerator" horiz-adv-x="370" 
d="M320 406q0 -60 -40.5 -93.5t-99.5 -33.5q-102 0 -141 96l57 19q10 -29 32 -45t52 -16q33 0 56.5 19t23.5 54q0 38 -27.5 55.5t-68.5 17.5h-27v51h27q84 0 84 70q0 27 -20 44.5t-49 17.5q-48 0 -75 -50l-50 26q44 77 127 77q55 0 91 -29.5t36 -84.5q0 -63 -57 -93
q69 -26 69 -102z" />
    <glyph glyph-name="four.numerator" horiz-adv-x="370" 
d="M276 286h-55v98h-188v52l175 272h68v-270h60v-54h-60v-98zM221 438v189h-3l-122 -189h125z" />
    <glyph glyph-name="five.numerator" horiz-adv-x="370" 
d="M318 423q0 -65 -39.5 -104.5t-103.5 -39.5q-48 0 -83 23.5t-51 62.5l55 22q26 -54 79 -54q36 0 59 23.5t23 62.5t-24.5 63t-63.5 24q-40 0 -95 -30l4 232h224v-54h-166l-3 -105q19 8 49 8q61 0 98.5 -37t37.5 -97z" />
    <glyph glyph-name="six.numerator" horiz-adv-x="370" 
d="M327 416q0 -60 -40.5 -98.5t-100.5 -38.5q-61 0 -101.5 38.5t-40.5 98.5q0 52 39 113l112 179h71l-107 -163l1 -1q16 6 33 6q58 0 96 -37.5t38 -96.5zM267 416q0 35 -22.5 58.5t-58.5 23.5q-37 0 -59.5 -23.5t-22.5 -58.5q0 -36 23 -59.5t59 -23.5q35 0 58 24t23 59z" />
    <glyph glyph-name="seven.numerator" horiz-adv-x="370" 
d="M152 286h-67l167 368h-191v54h257v-47z" />
    <glyph glyph-name="eight.numerator" horiz-adv-x="370" 
d="M323 403q0 -55 -40.5 -89.5t-97.5 -34.5t-98 34.5t-41 89.5q0 74 65 106v1q-50 29 -50 90q0 51 36 83t88 32q51 0 87 -32t36 -83q0 -60 -50 -90v-1q30 -14 47.5 -42t17.5 -64zM185 662q-28 0 -46 -18t-18 -46q0 -27 18.5 -45t45.5 -18q26 0 44.5 18t18.5 45q0 28 -18 46
t-45 18zM185 481q-35 0 -57 -21t-22 -53q0 -33 21.5 -53.5t57.5 -20.5q35 0 56.5 20.5t21.5 53.5q0 32 -21.5 53t-56.5 21z" />
    <glyph glyph-name="nine.numerator" horiz-adv-x="370" 
d="M326 579q0 -52 -39 -115l-112 -178h-71l108 164l-1 1q-12 -6 -34 -6q-57 0 -95.5 38t-38.5 96q0 59 40.5 97.5t101.5 38.5t101 -38.5t40 -97.5zM266 579q0 35 -23 59t-58 24q-36 0 -59 -24t-23 -59t22.5 -58.5t59.5 -23.5q36 0 58.5 23.5t22.5 58.5z" />
    <glyph glyph-name="cyrbreve" 
d="M120 576q-61 0 -100.5 34.5t-45.5 93.5l46 9q7 -38 34.5 -60.5t65.5 -22.5t65.5 22.5t34.5 60.5l46 -9q-6 -59 -45.5 -93.5t-100.5 -34.5z" />
    <glyph glyph-name="cyrbreve.cap" 
d="M120 776q-61 0 -100.5 34.5t-45.5 93.5l46 9q7 -38 34.5 -60.5t65.5 -22.5t65.5 22.5t34.5 60.5l46 -9q-6 -59 -45.5 -93.5t-100.5 -34.5z" />
    <glyph glyph-name="tonos.cap" horiz-adv-x="257" 
d="M198 708l-80 -144h-59l47 144h92z" />
    <glyph glyph-name="Xi.alt" horiz-adv-x="631" 
d="M47 645v63h537v-63h-238v-250h194v-57h-194v-276h238v-62h-537v62h238v276h-194v57h194v250h-238z" />
    <glyph glyph-name="alpha.alt" horiz-adv-x="647" 
d="M128 234q0 -81 47.5 -134.5t129.5 -53.5q78 0 129 53.5t51 134.5t-51 135t-129 54q-82 0 -129.5 -54t-47.5 -135zM477 80h-2q-29 -43 -77.5 -67.5t-99.5 -24.5q-108 0 -175 70.5t-67 175.5t67 175.5t175 70.5q52 0 100 -24.5t76 -68.5h3v81h68v-373q0 -23 5.5 -33
t22.5 -10q13 0 26 5l3 -56q-23 -7 -45 -7q-78 0 -80 86z" />
    <glyph glyph-name="phi.alt" horiz-adv-x="724" 
d="M320 38v295q0 147 147 147q85 0 143 -57t58 -179q0 -113 -77.5 -187.5t-202.5 -75.5v-221h-68v221q-123 1 -193.5 68.5t-70.5 181.5q0 91 41 151.5t110 88.5l35 -49q-115 -49 -115 -191q0 -96 51.5 -144.5t141.5 -48.5zM597 244q0 94 -37.5 136.5t-90.5 42.5
q-81 0 -81 -100v-285q93 0 151 56.5t58 149.5z" />
    <glyph glyph-name="alphatonos.alt" horiz-adv-x="647" 
d="M128 234q0 -81 47.5 -134.5t129.5 -53.5q78 0 129 53.5t51 134.5t-51 135t-129 54q-82 0 -129.5 -54t-47.5 -135zM477 80h-2q-29 -43 -77.5 -67.5t-99.5 -24.5q-108 0 -175 70.5t-67 175.5t67 175.5t175 70.5q52 0 100 -24.5t76 -68.5h3v81h68v-373q0 -23 5.5 -33
t22.5 -10q13 0 26 5l3 -56q-23 -7 -45 -7q-78 0 -80 86zM413 708l-80 -144h-59l47 144h92z" />
    <glyph glyph-name="uni03A9.alt" horiz-adv-x="748" 
d="M60 429q0 134 88 215.5t226 81.5q137 0 225.5 -81.5t88.5 -215.5q0 -125 -78 -204.5t-201 -92.5v-66h243v-66h-556v66h243v66q-38 4 -75 15t-74.5 34t-65.5 55.5t-46 82.5t-18 110zM132 417q0 -94 67 -158t175 -64q111 0 176.5 65t65.5 157q0 106 -64.5 175.5
t-177.5 69.5q-108 0 -175 -67.5t-67 -177.5z" />
    <glyph glyph-name="Omega.alt" horiz-adv-x="748" 
d="M60 429q0 134 88 215.5t226 81.5q137 0 225.5 -81.5t88.5 -215.5q0 -125 -78 -204.5t-201 -92.5v-66h243v-66h-556v66h243v66q-38 4 -75 15t-74.5 34t-65.5 55.5t-46 82.5t-18 110zM132 417q0 -94 67 -158t175 -64q111 0 176.5 65t65.5 157q0 106 -64.5 175.5
t-177.5 69.5q-108 0 -175 -67.5t-67 -177.5z" />
    <glyph glyph-name="Omegatonos.alt" horiz-adv-x="748" 
d="M60 429q0 134 88 215.5t226 81.5q137 0 225.5 -81.5t88.5 -215.5q0 -125 -78 -204.5t-201 -92.5v-66h243v-66h-556v66h243v66q-38 4 -75 15t-74.5 34t-65.5 55.5t-46 82.5t-18 110zM132 417q0 -94 67 -158t175 -64q111 0 176.5 65t65.5 157q0 106 -64.5 175.5
t-177.5 69.5q-108 0 -175 -67.5t-67 -177.5zM59 708l-80 -144h-59l47 144h92z" />
    <glyph glyph-name="exclam.sc" horiz-adv-x="286" 
d="M178 531v-373h-70v373h70zM196 47q0 -22 -15 -37.5t-38 -15.5t-38 15.5t-15 37.5t15 37.5t38 15.5t38 -15.5t15 -37.5z" />
    <glyph glyph-name="dollar.sc" horiz-adv-x="484" 
d="M214 55v197q-67 19 -105 52t-38 92q0 62 40 96.5t103 38.5v58h47v-58q77 -3 134 -58l-47 -45q-41 49 -87 49v-173q76 -23 113 -62t37 -99q0 -59 -43 -100t-107 -43v-61h-47v61q-97 4 -161 80l51 43q19 -29 50.5 -48t59.5 -20zM261 239v-184q36 3 59 26t23 61q0 70 -82 97
zM214 318v160q-35 -2 -56.5 -21.5t-21.5 -55.5q0 -34 19.5 -53t58.5 -30z" />
    <glyph glyph-name="percent.sc" horiz-adv-x="660" 
d="M310 409q0 -56 -39 -95t-96 -39t-96 39t-39 95t39 95t96 39t96 -39t39 -95zM254 409q0 33 -23.5 55.5t-55.5 22.5t-55.5 -22.5t-23.5 -55.5t23.5 -55.5t55.5 -22.5t55.5 22.5t23.5 55.5zM621 122q0 -56 -39 -95t-96 -39t-96 39t-39 95t39 95t96 39t96 -39t39 -95z
M565 122q0 33 -23.5 55.5t-55.5 22.5t-55.5 -22.5t-23.5 -55.5t23.5 -55.5t55.5 -22.5t55.5 22.5t23.5 55.5zM524 533l-341 -564l-47 27l342 564z" />
    <glyph glyph-name="ampersand.sc" horiz-adv-x="558" 
d="M521 286l-97 -164l121 -122h-97l-63 66q-64 -78 -167 -78q-71 0 -119.5 41t-48.5 111q0 94 114 156q-55 65 -55 124q0 55 38.5 89t97.5 34q61 0 97 -31.5t36 -87.5q0 -82 -114 -139l113 -116l67 117h77zM310 424q0 28 -18.5 45t-45.5 17t-48 -19.5t-21 -49.5
q0 -41 46 -90q87 42 87 97zM340 112l-135 140q-83 -42 -83 -113q0 -41 27 -66.5t70 -25.5q78 0 121 65z" />
    <glyph glyph-name="parenleft.sc" 
d="M87 266q0 -162 101 -303l-52 -33q-51 67 -82 156t-31 180q0 92 31 180.5t82 155.5l52 -32q-46 -64 -73.5 -144t-27.5 -160z" />
    <glyph glyph-name="parenright.sc" 
d="M217 266q0 -92 -31 -180.5t-82 -155.5l-52 32q46 64 73.5 144t27.5 160q0 162 -101 303l52 33q51 -67 82 -156t31 -180z" />
    <glyph glyph-name="bracketleft.sc" 
d="M181 -65h-136v662h136v-53h-72v-556h72v-53z" />
    <glyph glyph-name="backslash.sc" horiz-adv-x="295" 
d="M291 5l-59 -20l-228 541l58 20z" />
    <glyph glyph-name="bracketright.sc" 
d="M195 -65h-136v53h72v556h-72v53h136v-662z" />
    <glyph glyph-name="braceleft.sc" 
d="M203 -65h-55q-38 0 -62 23.5t-24 75.5v118q0 44 -14 64t-45 20v60q31 0 45 20t14 64v118q0 52 24 75.5t62 23.5h55v-53h-43q-34 0 -34 -52v-111q0 -90 -67 -114v-2q67 -24 67 -114v-111q0 -52 34 -52h43v-53z" />
    <glyph glyph-name="slash.sc" horiz-adv-x="295" 
d="M63 -15l-59 20l229 541l58 -20z" />
    <glyph glyph-name="braceright.sc" 
d="M92 -65h-55v53h43q34 0 34 52v111q0 90 67 114v2q-67 24 -67 114v111q0 52 -34 52h-43v53h55q38 0 62 -23.5t24 -75.5v-118q0 -44 14 -64t45 -20v-60q-31 0 -45 -20t-14 -64v-118q0 -52 -24 -75.5t-62 -23.5z" />
    <glyph glyph-name="zero.sc" horiz-adv-x="484" 
d="M242 543q49 0 85 -23.5t56 -64t29.5 -88t9.5 -102.5t-9.5 -102t-29.5 -87.5t-56 -64t-85 -23.5q-50 0 -86 23.5t-56 64t-29 87.5t-9 102t9 102t29 88t56 64.5t86 23.5zM242 482q-29 0 -50.5 -19.5t-32.5 -52.5t-16 -69t-5 -76t5 -75.5t16 -68.5t32.5 -52t50.5 -19
q55 0 79.5 63.5t24.5 151.5q0 40 -5 76t-16.5 69t-32.5 52.5t-50 19.5z" />
    <glyph glyph-name="one.sc" horiz-adv-x="484" 
d="M315 531v-531h-70v442l-86 -75l-42 49l136 115h62z" />
    <glyph glyph-name="two.sc" horiz-adv-x="484" 
d="M414 63v-63h-345v68l209 208q59 59 59 117q0 40 -25 63.5t-65 23.5q-78 0 -98 -90l-69 14q14 65 58 102t109 37q71 0 116 -38.5t45 -110.5q0 -79 -85 -164l-169 -167h260z" />
    <glyph glyph-name="three.sc" horiz-adv-x="484" 
d="M177 247v62h35q49 0 78 21.5t29 64.5q0 38 -28 62t-65 24q-62 0 -94 -63l-58 32q52 93 155 93q68 0 114 -38.5t46 -106.5q0 -41 -24.5 -72.5t-63.5 -45.5q45 -13 73 -48t28 -81q0 -76 -49.5 -119.5t-124.5 -43.5q-123 0 -172 118l66 25q32 -80 106 -80q42 0 73 27t31 73
q0 50 -33 73t-87 23h-35z" />
    <glyph glyph-name="four.sc" horiz-adv-x="484" 
d="M349 531v-346h75v-61h-75v-124h-66v124h-232v61l218 346h80zM283 185v257h-2l-155 -257h157z" />
    <glyph glyph-name="five.sc" horiz-adv-x="484" 
d="M389 531v-62h-215l-4 -140q27 9 58 9q82 0 129.5 -46t47.5 -124t-50 -129t-131 -51q-58 0 -102 29.5t-61 78.5l64 28q10 -36 37.5 -54t59.5 -18q50 0 81 31t31 81q0 52 -33 83.5t-84 31.5q-56 0 -115 -36l5 288h282z" />
    <glyph glyph-name="six.sc" horiz-adv-x="484" 
d="M338 531l-142 -219q25 12 56 12q71 0 118 -44.5t47 -118.5q0 -76 -48.5 -124.5t-125.5 -48.5q-78 0 -127 47.5t-49 124.5q0 68 48 142l143 229h80zM137 160q0 -47 30 -77.5t76 -30.5t75 30.5t29 77.5q0 46 -29 76.5t-75 30.5q-48 0 -77 -30.5t-29 -76.5z" />
    <glyph glyph-name="seven.sc" horiz-adv-x="484" 
d="M408 531v-56l-212 -475h-79l214 467h-251v64h328z" />
    <glyph glyph-name="eight.sc" horiz-adv-x="484" 
d="M395 397q0 -39 -20.5 -69.5t-53.5 -44.5v-2q43 -17 68 -52.5t25 -84.5q0 -71 -48.5 -113.5t-123.5 -42.5q-76 0 -124.5 42.5t-48.5 113.5q0 49 24.5 84.5t67.5 52.5v2q-32 14 -52.5 44.5t-20.5 69.5q0 65 44.5 105.5t109.5 40.5q64 0 108.5 -40.5t44.5 -105.5zM139 151
q0 -43 28.5 -71t74.5 -28t74 28t28 71t-28.5 70t-73.5 27t-74 -27t-29 -70zM156 394q0 -37 25 -59.5t61 -22.5q35 0 60 22.5t25 59.5q0 38 -24 62t-61 24t-61.5 -24t-24.5 -62z" />
    <glyph glyph-name="nine.sc" horiz-adv-x="484" 
d="M145 0l142 219q-25 -12 -56 -12q-71 0 -118 44.5t-47 118.5q0 76 48.5 124.5t125.5 48.5q78 0 127 -47.5t49 -124.5q0 -68 -48 -142l-143 -229h-80zM346 371q0 47 -30 77.5t-76 30.5t-75 -30.5t-29 -77.5q0 -46 29 -76.5t75 -30.5q48 0 77 30.5t29 76.5z" />
    <glyph glyph-name="question.sc" horiz-adv-x="380" 
d="M219 179v-21h-68v35q0 31 13 56.5t46 55.5l28 25q37 33 37 76q0 30 -23 53.5t-61 23.5q-71 0 -88 -78l-66 12q12 60 52.5 93t104.5 33q70 0 110.5 -38.5t40.5 -94.5q0 -42 -16 -71.5t-54 -58.5q-34 -26 -45 -47.5t-11 -53.5zM243 47q0 -22 -15 -37.5t-38 -15.5t-38 15.5
t-15 37.5t15 37.5t38 15.5t38 -15.5t15 -37.5z" />
    <glyph glyph-name="a.sc" horiz-adv-x="534" 
d="M136 133l-56 -133h-74l229 531h65l228 -531h-79l-55 133h-258zM266 450l-105 -256h208z" />
    <glyph glyph-name="b.sc" horiz-adv-x="516" 
d="M90 0v531h179q69 0 117.5 -32t48.5 -102q0 -86 -82 -117v-2q49 -10 78.5 -42.5t29.5 -85.5q0 -72 -56 -111t-144 -39h-171zM160 469v-163h99q46 0 76 21t30 63q0 79 -118 79h-87zM160 245v-182h95q134 0 134 91t-127 91h-102z" />
    <glyph glyph-name="c.sc" horiz-adv-x="559" 
d="M481 123l56 -37q-69 -98 -203 -98q-121 0 -199.5 78t-78.5 200q0 123 79.5 200t201.5 77q57 0 109.5 -22t80.5 -61l-56 -43q-19 28 -55.5 45.5t-78.5 17.5q-92 0 -148.5 -61.5t-56.5 -152.5q0 -92 56 -153t147 -61q96 0 146 71z" />
    <glyph glyph-name="d.sc" horiz-adv-x="612" 
d="M90 0v531h181q53 0 102 -15.5t91 -46.5t67 -83.5t25 -119.5q0 -65 -25.5 -117.5t-67 -84t-91 -48t-101.5 -16.5h-181zM160 469v-406h96q101 0 163 55.5t62 147.5q0 94 -61.5 148.5t-163.5 54.5h-96z" />
    <glyph glyph-name="e.sc" horiz-adv-x="499" 
d="M160 245v-182h279v-63h-349v531h338v-62h-268v-163h252v-61h-252z" />
    <glyph glyph-name="f.sc" horiz-adv-x="469" 
d="M160 240v-240h-70v531h329v-62h-259v-168h243v-61h-243z" />
    <glyph glyph-name="g.sc" horiz-adv-x="617" 
d="M533 473l-50 -50q-52 57 -145 57t-149.5 -61.5t-56.5 -152.5q0 -92 56.5 -153t150.5 -61q80 0 128 28v149h-119v61h189v-254q-87 -48 -199 -48q-124 0 -203 78t-79 200q0 123 79.5 200t201.5 77q124 0 196 -70z" />
    <glyph glyph-name="h.sc" horiz-adv-x="615" 
d="M90 0v531h70v-225h295v225h70v-531h-70v245h-295v-245h-70z" />
    <glyph glyph-name="i.sc" horiz-adv-x="250" 
d="M160 531v-531h-70v531h70z" />
    <glyph glyph-name="j.sc" horiz-adv-x="400" 
d="M21 100l66 19q7 -30 27.5 -48.5t51.5 -18.5q82 0 82 114v365h70v-368q0 -31 -6 -58.5t-21 -55.5t-46 -44.5t-75 -16.5q-58 0 -97.5 31t-51.5 81z" />
    <glyph glyph-name="k.sc" horiz-adv-x="523" 
d="M160 531v-235h2l239 235h99l-260 -243l275 -288h-102l-251 276h-2v-276h-70v531h70z" />
    <glyph glyph-name="l.sc" horiz-adv-x="421" 
d="M160 531v-468h239v-63h-309v531h70z" />
    <glyph glyph-name="m.sc" horiz-adv-x="724" 
d="M200 531l163 -414h2l160 414h109v-531h-70v447h-2l-179 -447h-43l-179 447h-1v-447h-70v531h110z" />
    <glyph glyph-name="n.sc" horiz-adv-x="613" 
d="M181 531l270 -429h2v429h70v-531h-88l-274 438h-1v-438h-70v531h91z" />
    <glyph glyph-name="o.sc" horiz-adv-x="672" 
d="M616 267q0 -121 -80 -200t-201 -79q-120 0 -199.5 79t-79.5 200t79 198.5t200 77.5q122 0 201.5 -77.5t79.5 -198.5zM540 267q0 90 -56.5 152.5t-148.5 62.5q-91 0 -147 -62t-56 -153t56 -153.5t147 -62.5q92 0 148.5 62.5t56.5 153.5z" />
    <glyph glyph-name="p.sc" horiz-adv-x="487" 
d="M90 0v531h165q87 0 137 -40.5t50 -116.5t-53 -117t-138 -41h-91v-216h-70zM160 469v-194h87q57 0 90.5 25.5t33.5 73.5q0 95 -124 95h-87z" />
    <glyph glyph-name="q.sc" horiz-adv-x="672" 
d="M641 63v-63h-310q-121 0 -198 74.5t-77 195.5q0 119 78.5 196t196.5 77t195.5 -77t77.5 -196q0 -139 -109 -205v-2h146zM132 270q0 -90 54.5 -148.5t144.5 -58.5q89 0 144 59t55 148t-55 150.5t-144 61.5q-88 0 -143.5 -61.5t-55.5 -150.5z" />
    <glyph glyph-name="r.sc" horiz-adv-x="497" 
d="M160 237v-237h-70v531h168q84 0 135.5 -35t51.5 -111q0 -57 -35.5 -93.5t-94.5 -45.5l149 -246h-85l-138 237h-81zM160 469v-171h87q127 0 127 87q0 84 -122 84h-92z" />
    <glyph glyph-name="s.sc" horiz-adv-x="450" 
d="M389 481l-50 -48q-37 50 -105 50q-42 0 -73.5 -22t-31.5 -64q0 -22 7.5 -37t26 -26t32 -16.5t43.5 -14.5q31 -10 45.5 -15t40 -18.5t38 -27.5t23 -38t10.5 -55q0 -78 -53 -119.5t-129 -41.5q-51 0 -98 20.5t-75 57.5l56 47q18 -29 49.5 -46.5t68.5 -17.5q43 0 76.5 24
t33.5 69q0 23 -8.5 39.5t-27.5 27.5t-35.5 17.5t-45.5 15.5q-7 2 -10 3q-65 20 -102 52t-37 97q0 73 53.5 111t126.5 38q97 0 151 -62z" />
    <glyph glyph-name="t.sc" horiz-adv-x="438" 
d="M253 469v-469h-70v469h-171v62h414v-62h-173z" />
    <glyph glyph-name="u.sc" horiz-adv-x="572" 
d="M286 -12q-101 0 -152.5 61.5t-51.5 149.5v332h70v-327q0 -65 32 -108.5t102 -43.5t102 44t32 108v327h70v-332q0 -88 -52 -149.5t-152 -61.5z" />
    <glyph glyph-name="v.sc" horiz-adv-x="497" 
d="M85 531l163 -440h2l162 440h77l-207 -531h-67l-207 531h77z" />
    <glyph glyph-name="w.sc" horiz-adv-x="766" 
d="M97 531l120 -429h2l125 429h79l125 -429h2l119 429h75l-156 -531h-75l-129 432h-1l-131 -432h-74l-156 531h75z" />
    <glyph glyph-name="x.sc" horiz-adv-x="490" 
d="M114 531l131 -201l129 201h83l-169 -251l192 -280h-88l-147 227l-147 -227h-88l191 280l-174 251h87z" />
    <glyph glyph-name="y.sc" horiz-adv-x="468" 
d="M268 230v-230h-70v230l-198 301h84l150 -243l150 243h84z" />
    <glyph glyph-name="z.sc" horiz-adv-x="498" 
d="M440 531v-60l-301 -408h306v-63h-392v61l300 408h-294v62h381z" />
    <glyph glyph-name="agrave.sc" horiz-adv-x="534" 
d="M136 133l-56 -133h-74l229 531h65l228 -531h-79l-55 133h-258zM266 450l-105 -256h208zM236 594l-132 144h91l100 -144h-59z" />
    <glyph glyph-name="aacute.sc" horiz-adv-x="534" 
d="M136 133l-56 -133h-74l229 531h65l228 -531h-79l-55 133h-258zM266 450l-105 -256h208zM432 738l-132 -144h-59l100 144h91z" />
    <glyph glyph-name="acircumflex.sc" horiz-adv-x="534" 
d="M136 133l-56 -133h-74l229 531h65l228 -531h-79l-55 133h-258zM266 450l-105 -256h208zM307 738l109 -144h-66l-83 108l-83 -108h-66l109 144h80z" />
    <glyph glyph-name="atilde.sc" horiz-adv-x="534" 
d="M136 133l-56 -133h-74l229 531h65l228 -531h-79l-55 133h-258zM266 450l-105 -256h208zM148 611h-43q18 104 92 104q27 0 73 -23q50 -23 67 -23q37 0 49 50h43q-18 -104 -92 -104q-29 0 -73 23t-67 23q-37 0 -49 -50z" />
    <glyph glyph-name="adieresis.sc" horiz-adv-x="534" 
d="M136 133l-56 -133h-74l229 531h65l228 -531h-79l-55 133h-258zM266 450l-105 -256h208zM120 677q0 20 14.5 35.5t36.5 15.5t36.5 -15.5t14.5 -35.5t-14.5 -35.5t-36.5 -15.5t-36.5 15.5t-14.5 35.5zM312 677q0 20 14.5 35.5t36.5 15.5t36.5 -15.5t14.5 -35.5t-14.5 -35.5
t-36.5 -15.5t-36.5 15.5t-14.5 35.5z" />
    <glyph glyph-name="amacron.sc" horiz-adv-x="534" 
d="M136 133l-56 -133h-74l229 531h65l228 -531h-79l-55 133h-258zM266 450l-105 -256h208zM402 684v-54h-270v54h270z" />
    <glyph glyph-name="abreve.sc" horiz-adv-x="534" 
d="M136 133l-56 -133h-74l229 531h65l228 -531h-79l-55 133h-258zM266 450l-105 -256h208zM370 738h44q-4 -61 -44.5 -96.5t-102.5 -35.5t-102.5 35.5t-44.5 96.5h44q6 -38 35 -58t68 -20t68 20t35 58z" />
    <glyph glyph-name="aring.sc" horiz-adv-x="534" 
d="M136 133l-56 -133h-74l229 531h65l228 -531h-79l-55 133h-258zM266 450l-105 -256h208zM363 680q0 -40 -28.5 -67.5t-67.5 -27.5t-67.5 27.5t-28.5 67.5t28.5 67.5t67.5 27.5t67.5 -27.5t28.5 -67.5zM327 680q0 25 -17.5 42t-42.5 17t-42.5 -17t-17.5 -42t17.5 -42
t42.5 -17t42.5 17t17.5 42z" />
    <glyph glyph-name="aogonek.sc" horiz-adv-x="534" 
d="M521 -147l19 -40q-38 -36 -90 -36q-36 0 -63 24t-27 61q0 66 89 138l-55 133h-258l-56 -133h-74l229 531h65l228 -531h-31q-41 -41 -59 -67.5t-18 -53.5q0 -21 14.5 -34.5t35.5 -13.5q31 0 51 22zM266 450l-105 -256h208z" />
    <glyph glyph-name="ae.sc" horiz-adv-x="779" 
d="M440 245v-182h279v-63h-349v143h-217l-92 -143h-81l345 531h383v-62h-268v-163h252v-61h-252zM360 469l-169 -265h179v265h-10z" />
    <glyph glyph-name="cacute.sc" horiz-adv-x="559" 
d="M481 123l56 -37q-69 -98 -203 -98q-121 0 -199.5 78t-78.5 200q0 123 79.5 200t201.5 77q57 0 109.5 -22t80.5 -61l-56 -43q-19 28 -55.5 45.5t-78.5 17.5q-92 0 -148.5 -61.5t-56.5 -152.5q0 -92 56 -153t147 -61q96 0 146 71zM462 738l-132 -144h-59l100 144h91z" />
    <glyph glyph-name="ccircumflex.sc" horiz-adv-x="559" 
d="M481 123l56 -37q-69 -98 -203 -98q-121 0 -199.5 78t-78.5 200q0 123 79.5 200t201.5 77q57 0 109.5 -22t80.5 -61l-56 -43q-19 28 -55.5 45.5t-78.5 17.5q-92 0 -148.5 -61.5t-56.5 -152.5q0 -92 56 -153t147 -61q96 0 146 71zM376 738l109 -144h-66l-83 108l-83 -108
h-66l109 144h80z" />
    <glyph glyph-name="ccaron.sc" horiz-adv-x="559" 
d="M481 123l56 -37q-69 -98 -203 -98q-121 0 -199.5 78t-78.5 200q0 123 79.5 200t201.5 77q57 0 109.5 -22t80.5 -61l-56 -43q-19 28 -55.5 45.5t-78.5 17.5q-92 0 -148.5 -61.5t-56.5 -152.5q0 -92 56 -153t147 -61q96 0 146 71zM484 738l-109 -144h-80l-109 144h66
l83 -108l83 108h66z" />
    <glyph glyph-name="cdotaccent.sc" horiz-adv-x="559" 
d="M481 123l56 -37q-69 -98 -203 -98q-121 0 -199.5 78t-78.5 200q0 123 79.5 200t201.5 77q57 0 109.5 -22t80.5 -61l-56 -43q-19 28 -55.5 45.5t-78.5 17.5q-92 0 -148.5 -61.5t-56.5 -152.5q0 -92 56 -153t147 -61q96 0 146 71zM385 678q0 -20 -14.5 -34t-33.5 -14
t-33.5 14t-14.5 34t14.5 34t33.5 14t33.5 -14t14.5 -34z" />
    <glyph glyph-name="ccedilla.sc" horiz-adv-x="559" 
d="M481 123l56 -37q-66 -95 -198 -98l-39 -63q13 4 35 4q33 0 57.5 -19t24.5 -53q0 -46 -35 -66.5t-83 -20.5q-51 0 -94 20l16 36q31 -14 72 -14q21 0 42.5 11t21.5 33q0 39 -54 39q-22 0 -43 -8l-18 15l55 88q-107 12 -174 88t-67 188q0 123 79.5 200t201.5 77
q57 0 109.5 -22t80.5 -61l-56 -43q-19 28 -55.5 45.5t-78.5 17.5q-92 0 -148.5 -61.5t-56.5 -152.5q0 -92 56 -153t147 -61q96 0 146 71z" />
    <glyph glyph-name="dcaron.sc" horiz-adv-x="612" 
d="M90 0v531h181q53 0 102 -15.5t91 -46.5t67 -83.5t25 -119.5q0 -65 -25.5 -117.5t-67 -84t-91 -48t-101.5 -16.5h-181zM160 469v-406h96q101 0 163 55.5t62 147.5q0 94 -61.5 148.5t-163.5 54.5h-96zM442 738l-109 -144h-80l-109 144h66l83 -108l83 108h66z" />
    <glyph glyph-name="dcroat.sc" horiz-adv-x="612" 
d="M17 251v52h73v228h181q53 0 102 -15.5t91 -46.5t67 -83.5t25 -119.5q0 -65 -25.5 -117.5t-67 -84t-91 -48t-101.5 -16.5h-181v251h-73zM160 469v-166h145v-52h-145v-188h96q101 0 163 55.5t62 147.5q0 94 -61.5 148.5t-163.5 54.5h-96z" />
    <glyph glyph-name="eth.sc" horiz-adv-x="612" 
d="M17 251v52h73v228h181q53 0 102 -15.5t91 -46.5t67 -83.5t25 -119.5q0 -65 -25.5 -117.5t-67 -84t-91 -48t-101.5 -16.5h-181v251h-73zM160 469v-166h145v-52h-145v-188h96q101 0 163 55.5t62 147.5q0 94 -61.5 148.5t-163.5 54.5h-96z" />
    <glyph glyph-name="egrave.sc" horiz-adv-x="499" 
d="M160 245v-182h279v-63h-349v531h338v-62h-268v-163h252v-61h-252zM248 594l-132 144h91l100 -144h-59z" />
    <glyph glyph-name="eacute.sc" horiz-adv-x="499" 
d="M160 245v-182h279v-63h-349v531h338v-62h-268v-163h252v-61h-252zM407 738l-132 -144h-59l100 144h91z" />
    <glyph glyph-name="ecircumflex.sc" horiz-adv-x="499" 
d="M160 245v-182h279v-63h-349v531h338v-62h-268v-163h252v-61h-252zM297 738l109 -144h-66l-83 108l-83 -108h-66l109 144h80z" />
    <glyph glyph-name="ecaron.sc" horiz-adv-x="499" 
d="M160 245v-182h279v-63h-349v531h338v-62h-268v-163h252v-61h-252zM411 738l-109 -144h-80l-109 144h66l83 -108l83 108h66z" />
    <glyph glyph-name="edieresis.sc" horiz-adv-x="499" 
d="M160 245v-182h279v-63h-349v531h338v-62h-268v-163h252v-61h-252zM113 677q0 20 14.5 35.5t36.5 15.5t36.5 -15.5t14.5 -35.5t-14.5 -35.5t-36.5 -15.5t-36.5 15.5t-14.5 35.5zM305 677q0 20 14.5 35.5t36.5 15.5t36.5 -15.5t14.5 -35.5t-14.5 -35.5t-36.5 -15.5
t-36.5 15.5t-14.5 35.5z" />
    <glyph glyph-name="emacron.sc" horiz-adv-x="499" 
d="M160 245v-182h279v-63h-349v531h338v-62h-268v-163h252v-61h-252zM398 684v-54h-270v54h270z" />
    <glyph glyph-name="ebreve.sc" horiz-adv-x="499" 
d="M160 245v-182h279v-63h-349v531h338v-62h-268v-163h252v-61h-252zM361 738h44q-4 -61 -44.5 -96.5t-102.5 -35.5t-102.5 35.5t-44.5 96.5h44q6 -38 35 -58t68 -20t68 20t35 58z" />
    <glyph glyph-name="edotaccent.sc" horiz-adv-x="499" 
d="M160 245v-182h279v-63h-349v531h338v-62h-268v-163h252v-61h-252zM312 678q0 -20 -14.5 -34t-33.5 -14t-33.5 14t-14.5 34t14.5 34t33.5 14t33.5 -14t14.5 -34z" />
    <glyph glyph-name="eogonek.sc" horiz-adv-x="499" 
d="M444 -147l19 -40q-38 -36 -90 -36q-37 0 -63.5 24t-26.5 61q0 66 89 138h-282v531h338v-62h-268v-163h252v-61h-252v-182h279v-63h-19q-41 -41 -59 -67.5t-18 -53.5q0 -21 14.5 -34.5t35.5 -13.5q31 0 51 22z" />
    <glyph glyph-name="gcircumflex.sc" horiz-adv-x="617" 
d="M533 473l-50 -50q-52 57 -145 57t-149.5 -61.5t-56.5 -152.5q0 -92 56.5 -153t150.5 -61q80 0 128 28v149h-119v61h189v-254q-87 -48 -199 -48q-124 0 -203 78t-79 200q0 123 79.5 200t201.5 77q124 0 196 -70zM378 738l109 -144h-66l-83 108l-83 -108h-66l109 144h80z
" />
    <glyph glyph-name="gbreve.sc" horiz-adv-x="617" 
d="M533 473l-50 -50q-52 57 -145 57t-149.5 -61.5t-56.5 -152.5q0 -92 56.5 -153t150.5 -61q80 0 128 28v149h-119v61h189v-254q-87 -48 -199 -48q-124 0 -203 78t-79 200q0 123 79.5 200t201.5 77q124 0 196 -70zM442 738h44q-4 -61 -44.5 -96.5t-102.5 -35.5t-102.5 35.5
t-44.5 96.5h44q6 -38 35 -58t68 -20t68 20t35 58z" />
    <glyph glyph-name="gdotaccent.sc" horiz-adv-x="617" 
d="M533 473l-50 -50q-52 57 -145 57t-149.5 -61.5t-56.5 -152.5q0 -92 56.5 -153t150.5 -61q80 0 128 28v149h-119v61h189v-254q-87 -48 -199 -48q-124 0 -203 78t-79 200q0 123 79.5 200t201.5 77q124 0 196 -70zM384 678q0 -20 -14.5 -34t-33.5 -14t-33.5 14t-14.5 34
t14.5 34t33.5 14t33.5 -14t14.5 -34z" />
    <glyph glyph-name="gcommaaccent.sc" horiz-adv-x="617" 
d="M533 473l-50 -50q-52 57 -145 57t-149.5 -61.5t-56.5 -152.5q0 -92 56.5 -153t150.5 -61q80 0 128 28v149h-119v61h189v-254q-87 -48 -199 -48q-124 0 -203 78t-79 200q0 123 79.5 200t201.5 77q124 0 196 -70zM381 -45l-76 -185h-57l62 185h71z" />
    <glyph glyph-name="kgreenlandic.sc" horiz-adv-x="523" 
d="M160 531v-235h2l239 235h99l-260 -243l275 -288h-102l-251 276h-2v-276h-70v531h70z" />
    <glyph glyph-name="hcircumflex.sc" horiz-adv-x="615" 
d="M90 0v531h70v-225h295v225h70v-531h-70v245h-295v-245h-70zM347 738l109 -144h-66l-83 108l-83 -108h-66l109 144h80z" />
    <glyph glyph-name="hbar.sc" horiz-adv-x="615" 
d="M90 0v531h70v-106h295v106h70v-531h-70v245h-295v-245h-70zM160 306h295v79h-295v-79z" />
    <glyph glyph-name="igrave.sc" horiz-adv-x="250" 
d="M160 531v-531h-70v531h70zM102 594l-132 144h91l100 -144h-59z" />
    <glyph glyph-name="iacute.sc" horiz-adv-x="250" 
d="M160 531v-531h-70v531h70zM283 738l-132 -144h-59l100 144h91z" />
    <glyph glyph-name="ibreve.sc" horiz-adv-x="250" 
d="M160 531v-531h-70v531h70zM228 738h44q-4 -61 -44.5 -96.5t-102.5 -35.5t-102.5 35.5t-44.5 96.5h44q6 -38 35 -58t68 -20t68 20t35 58z" />
    <glyph glyph-name="icircumflex.sc" horiz-adv-x="250" 
d="M160 531v-531h-70v531h70zM164 738l109 -144h-66l-83 108l-83 -108h-66l109 144h80z" />
    <glyph glyph-name="itilde.sc" horiz-adv-x="250" 
d="M160 531v-531h-70v531h70zM5 611h-43q18 104 92 104q27 0 73 -23q50 -23 67 -23q37 0 49 50h43q-18 -104 -92 -104q-29 0 -73 23t-67 23q-37 0 -49 -50z" />
    <glyph glyph-name="idieresis.sc" horiz-adv-x="250" 
d="M160 531v-531h-70v531h70zM-23 677q0 20 14.5 35.5t36.5 15.5t36.5 -15.5t14.5 -35.5t-14.5 -35.5t-36.5 -15.5t-36.5 15.5t-14.5 35.5zM169 677q0 20 14.5 35.5t36.5 15.5t36.5 -15.5t14.5 -35.5t-14.5 -35.5t-36.5 -15.5t-36.5 15.5t-14.5 35.5z" />
    <glyph glyph-name="imacron.sc" horiz-adv-x="250" 
d="M160 531v-531h-70v531h70zM261 684v-54h-270v54h270z" />
    <glyph glyph-name="idotaccent.sc" horiz-adv-x="250" 
d="M160 531v-531h-70v531h70zM174 648q0 -20 -14.5 -34t-33.5 -14t-33.5 14t-14.5 34t14.5 34t33.5 14t33.5 -14t14.5 -34z" />
    <glyph glyph-name="iogonek.sc" horiz-adv-x="250" 
d="M184 -147l19 -40q-38 -36 -90 -36q-37 0 -63.5 24t-26.5 61q0 66 89 138h-22v531h70v-531q-42 -42 -57 -64q-20 -29 -20 -57q0 -21 14.5 -34.5t35.5 -13.5q31 0 51 22z" />
    <glyph glyph-name="jcircumflex.sc" horiz-adv-x="400" 
d="M21 100l66 19q7 -30 27.5 -48.5t51.5 -18.5q82 0 82 114v365h70v-368q0 -31 -6 -58.5t-21 -55.5t-46 -44.5t-75 -16.5q-58 0 -97.5 31t-51.5 81zM322 738l109 -144h-66l-83 108l-83 -108h-66l109 144h80z" />
    <glyph glyph-name="kcommaaccent.sc" horiz-adv-x="523" 
d="M160 531v-235h2l239 235h99l-260 -243l275 -288h-102l-251 276h-2v-276h-70v531h70zM322 -45l-76 -185h-57l62 185h71z" />
    <glyph glyph-name="lacute.sc" horiz-adv-x="421" 
d="M160 531v-468h239v-63h-309v531h70zM288 738l-132 -144h-59l100 144h91z" />
    <glyph glyph-name="lcaron.sc" horiz-adv-x="421" 
d="M160 531v-468h239v-63h-309v531h70zM359 531l-76 -185h-57l62 185h71z" />
    <glyph glyph-name="lcommaaccent.sc" horiz-adv-x="421" 
d="M160 531v-468h239v-63h-309v531h70zM298 -45l-76 -185h-57l62 185h71z" />
    <glyph glyph-name="lslash.sc" horiz-adv-x="421" 
d="M160 531v-164l123 102v-70l-123 -102v-234h239v-63h-309v239l-82 -67v70l82 67v222h70z" />
    <glyph glyph-name="ldot.sc" horiz-adv-x="421" 
d="M160 531v-468h239v-63h-309v531h70zM334 318q0 -20 -14.5 -34t-33.5 -14t-33.5 14t-14.5 34t14.5 34t33.5 14t33.5 -14t14.5 -34z" />
    <glyph glyph-name="nacute.sc" horiz-adv-x="613" 
d="M181 531l270 -429h2v429h70v-531h-88l-274 438h-1v-438h-70v531h91zM442 738l-132 -144h-59l100 144h91z" />
    <glyph glyph-name="ncaron.sc" horiz-adv-x="613" 
d="M181 531l270 -429h2v429h70v-531h-88l-274 438h-1v-438h-70v531h91zM457 738l-109 -144h-80l-109 144h66l83 -108l83 108h66z" />
    <glyph glyph-name="ntilde.sc" horiz-adv-x="613" 
d="M181 531l270 -429h2v429h70v-531h-88l-274 438h-1v-438h-70v531h91zM187 611h-43q18 104 92 104q27 0 73 -23q50 -23 67 -23q37 0 49 50h43q-18 -104 -92 -104q-29 0 -73 23t-67 23q-37 0 -49 -50z" />
    <glyph glyph-name="ncommaaccent.sc" horiz-adv-x="613" 
d="M181 531l270 -429h2v429h70v-531h-88l-274 438h-1v-438h-70v531h91zM354 -45l-76 -185h-57l62 185h71z" />
    <glyph glyph-name="ograve.sc" horiz-adv-x="672" 
d="M616 267q0 -121 -80 -200t-201 -79q-120 0 -199.5 79t-79.5 200t79 198.5t200 77.5q122 0 201.5 -77.5t79.5 -198.5zM540 267q0 90 -56.5 152.5t-148.5 62.5q-91 0 -147 -62t-56 -153t56 -153.5t147 -62.5q92 0 148.5 62.5t56.5 153.5zM321 594l-132 144h91l100 -144h-59
z" />
    <glyph glyph-name="oacute.sc" horiz-adv-x="672" 
d="M616 267q0 -121 -80 -200t-201 -79q-120 0 -199.5 79t-79.5 200t79 198.5t200 77.5q122 0 201.5 -77.5t79.5 -198.5zM540 267q0 90 -56.5 152.5t-148.5 62.5q-91 0 -147 -62t-56 -153t56 -153.5t147 -62.5q92 0 148.5 62.5t56.5 153.5zM479 738l-132 -144h-59l100 144h91
z" />
    <glyph glyph-name="ocircumflex.sc" horiz-adv-x="672" 
d="M616 267q0 -121 -80 -200t-201 -79q-120 0 -199.5 79t-79.5 200t79 198.5t200 77.5q122 0 201.5 -77.5t79.5 -198.5zM540 267q0 90 -56.5 152.5t-148.5 62.5q-91 0 -147 -62t-56 -153t56 -153.5t147 -62.5q92 0 148.5 62.5t56.5 153.5zM376 738l109 -144h-66l-83 108
l-83 -108h-66l109 144h80z" />
    <glyph glyph-name="otilde.sc" horiz-adv-x="672" 
d="M616 267q0 -121 -80 -200t-201 -79q-120 0 -199.5 79t-79.5 200t79 198.5t200 77.5q122 0 201.5 -77.5t79.5 -198.5zM540 267q0 90 -56.5 152.5t-148.5 62.5q-91 0 -147 -62t-56 -153t56 -153.5t147 -62.5q92 0 148.5 62.5t56.5 153.5zM216 611h-43q18 104 92 104
q27 0 73 -23q50 -23 67 -23q37 0 49 50h43q-18 -104 -92 -104q-29 0 -73 23t-67 23q-37 0 -49 -50z" />
    <glyph glyph-name="odieresis.sc" horiz-adv-x="672" 
d="M616 267q0 -121 -80 -200t-201 -79q-120 0 -199.5 79t-79.5 200t79 198.5t200 77.5q122 0 201.5 -77.5t79.5 -198.5zM540 267q0 90 -56.5 152.5t-148.5 62.5q-91 0 -147 -62t-56 -153t56 -153.5t147 -62.5q92 0 148.5 62.5t56.5 153.5zM187 677q0 20 14.5 35.5t36.5 15.5
t36.5 -15.5t14.5 -35.5t-14.5 -35.5t-36.5 -15.5t-36.5 15.5t-14.5 35.5zM379 677q0 20 14.5 35.5t36.5 15.5t36.5 -15.5t14.5 -35.5t-14.5 -35.5t-36.5 -15.5t-36.5 15.5t-14.5 35.5z" />
    <glyph glyph-name="omacron.sc" horiz-adv-x="672" 
d="M616 267q0 -121 -80 -200t-201 -79q-120 0 -199.5 79t-79.5 200t79 198.5t200 77.5q122 0 201.5 -77.5t79.5 -198.5zM540 267q0 90 -56.5 152.5t-148.5 62.5q-91 0 -147 -62t-56 -153t56 -153.5t147 -62.5q92 0 148.5 62.5t56.5 153.5zM471 684v-54h-270v54h270z" />
    <glyph glyph-name="obreve.sc" horiz-adv-x="672" 
d="M616 267q0 -121 -80 -200t-201 -79q-120 0 -199.5 79t-79.5 200t79 198.5t200 77.5q122 0 201.5 -77.5t79.5 -198.5zM540 267q0 90 -56.5 152.5t-148.5 62.5q-91 0 -147 -62t-56 -153t56 -153.5t147 -62.5q92 0 148.5 62.5t56.5 153.5zM438 738h44q-4 -61 -44.5 -96.5
t-102.5 -35.5t-102.5 35.5t-44.5 96.5h44q6 -38 35 -58t68 -20t68 20t35 58z" />
    <glyph glyph-name="ohungarumlaut.sc" horiz-adv-x="672" 
d="M616 267q0 -121 -80 -200t-201 -79q-120 0 -199.5 79t-79.5 200t79 198.5t200 77.5q122 0 201.5 -77.5t79.5 -198.5zM540 267q0 90 -56.5 152.5t-148.5 62.5q-91 0 -147 -62t-56 -153t56 -153.5t147 -62.5q92 0 148.5 62.5t56.5 153.5zM402 738l-133 -144h-59l101 144h91
zM572 738l-132 -144h-59l100 144h91z" />
    <glyph glyph-name="oslash.sc" horiz-adv-x="672" 
d="M616 266q0 -122 -80 -200t-201 -78q-111 0 -186 63l-77 -79l-32 31l78 80q-62 76 -62 183q0 123 79 200t200 77q105 0 178 -56l68 70l32 -31l-67 -69q70 -78 70 -191zM540 266q0 80 -45 139l-297 -304q56 -51 137 -51q92 0 148.5 62t56.5 154zM132 266q0 -74 37 -131
l295 302q-54 46 -129 46q-91 0 -147 -63t-56 -154z" />
    <glyph glyph-name="oe.sc" horiz-adv-x="777" 
d="M438 245v-182h279v-63h-381q-114 0 -193 74.5t-79 191.5t79 191t193 74h370v-62h-268v-163h252v-61h-252zM336 63h32v406h-32q-86 0 -142 -58t-56 -145t56 -145t142 -58z" />
    <glyph glyph-name="racute.sc" horiz-adv-x="497" 
d="M160 237v-237h-70v531h168q84 0 135.5 -35t51.5 -111q0 -57 -35.5 -93.5t-94.5 -45.5l149 -246h-85l-138 237h-81zM160 469v-171h87q127 0 127 87q0 84 -122 84h-92zM380 738l-132 -144h-59l100 144h91z" />
    <glyph glyph-name="rcaron.sc" horiz-adv-x="497" 
d="M160 237v-237h-70v531h168q84 0 135.5 -35t51.5 -111q0 -57 -35.5 -93.5t-94.5 -45.5l149 -246h-85l-138 237h-81zM160 469v-171h87q127 0 127 87q0 84 -122 84h-92zM403 738l-109 -144h-80l-109 144h66l83 -108l83 108h66z" />
    <glyph glyph-name="rcommaaccent.sc" horiz-adv-x="497" 
d="M160 237v-237h-70v531h168q84 0 135.5 -35t51.5 -111q0 -57 -35.5 -93.5t-94.5 -45.5l149 -246h-85l-138 237h-81zM160 469v-171h87q127 0 127 87q0 84 -122 84h-92zM308 -45l-76 -185h-57l62 185h71z" />
    <glyph glyph-name="sacute.sc" horiz-adv-x="450" 
d="M389 481l-50 -48q-37 50 -105 50q-42 0 -73.5 -22t-31.5 -64q0 -22 7.5 -37t26 -26t32 -16.5t43.5 -14.5q31 -10 45.5 -15t40 -18.5t38 -27.5t23 -38t10.5 -55q0 -78 -53 -119.5t-129 -41.5q-51 0 -98 20.5t-75 57.5l56 47q18 -29 49.5 -46.5t68.5 -17.5q43 0 76.5 24
t33.5 69q0 23 -8.5 39.5t-27.5 27.5t-35.5 17.5t-45.5 15.5q-7 2 -10 3q-65 20 -102 52t-37 97q0 73 53.5 111t126.5 38q97 0 151 -62zM361 738l-132 -144h-59l100 144h91z" />
    <glyph glyph-name="scircumflex.sc" horiz-adv-x="450" 
d="M389 481l-50 -48q-37 50 -105 50q-42 0 -73.5 -22t-31.5 -64q0 -22 7.5 -37t26 -26t32 -16.5t43.5 -14.5q31 -10 45.5 -15t40 -18.5t38 -27.5t23 -38t10.5 -55q0 -78 -53 -119.5t-129 -41.5q-51 0 -98 20.5t-75 57.5l56 47q18 -29 49.5 -46.5t68.5 -17.5q43 0 76.5 24
t33.5 69q0 23 -8.5 39.5t-27.5 27.5t-35.5 17.5t-45.5 15.5q-7 2 -10 3q-65 20 -102 52t-37 97q0 73 53.5 111t126.5 38q97 0 151 -62zM277 738l109 -144h-66l-83 108l-83 -108h-66l109 144h80z" />
    <glyph glyph-name="scaron.sc" horiz-adv-x="450" 
d="M389 481l-50 -48q-37 50 -105 50q-42 0 -73.5 -22t-31.5 -64q0 -22 7.5 -37t26 -26t32 -16.5t43.5 -14.5q31 -10 45.5 -15t40 -18.5t38 -27.5t23 -38t10.5 -55q0 -78 -53 -119.5t-129 -41.5q-51 0 -98 20.5t-75 57.5l56 47q18 -29 49.5 -46.5t68.5 -17.5q43 0 76.5 24
t33.5 69q0 23 -8.5 39.5t-27.5 27.5t-35.5 17.5t-45.5 15.5q-7 2 -10 3q-65 20 -102 52t-37 97q0 73 53.5 111t126.5 38q97 0 151 -62zM385 738l-109 -144h-80l-109 144h66l83 -108l83 108h66z" />
    <glyph glyph-name="scedilla.sc" horiz-adv-x="450" 
d="M389 481l-50 -48q-37 50 -105 50q-42 0 -73.5 -22t-31.5 -64q0 -22 7.5 -37t26 -26t32 -16.5t43.5 -14.5q31 -10 45.5 -15t40 -18.5t38 -27.5t23 -38t10.5 -55q0 -71 -45 -112t-112 -47l-40 -65q13 4 35 4q33 0 57.5 -19t24.5 -53q0 -46 -35 -66.5t-83 -20.5
q-51 0 -94 20l16 36q31 -14 72 -14q21 0 42.5 11t21.5 33q0 39 -54 39q-22 0 -43 -8l-18 15l55 87q-104 9 -155 77l56 47q18 -29 49.5 -46.5t68.5 -17.5q43 0 76.5 24t33.5 69q0 23 -8.5 39.5t-27.5 27.5t-35.5 17.5t-45.5 15.5q-7 2 -10 3q-65 20 -102 52t-37 97
q0 73 53.5 111t126.5 38q97 0 151 -62z" />
    <glyph glyph-name="scommaaccent.sc" horiz-adv-x="450" 
d="M389 481l-50 -48q-37 50 -105 50q-42 0 -73.5 -22t-31.5 -64q0 -22 7.5 -37t26 -26t32 -16.5t43.5 -14.5q31 -10 45.5 -15t40 -18.5t38 -27.5t23 -38t10.5 -55q0 -78 -53 -119.5t-129 -41.5q-51 0 -98 20.5t-75 57.5l56 47q18 -29 49.5 -46.5t68.5 -17.5q43 0 76.5 24
t33.5 69q0 23 -8.5 39.5t-27.5 27.5t-35.5 17.5t-45.5 15.5q-7 2 -10 3q-65 20 -102 52t-37 97q0 73 53.5 111t126.5 38q97 0 151 -62zM265 -45l-76 -185h-57l62 185h71z" />
    <glyph glyph-name="tcaron.sc" horiz-adv-x="438" 
d="M253 469v-469h-70v469h-171v62h414v-62h-173zM368 738l-109 -144h-80l-109 144h66l83 -108l83 108h66z" />
    <glyph glyph-name="tcommaaccent.sc" horiz-adv-x="438" 
d="M253 469v-469h-70v469h-171v62h414v-62h-173zM270 -45l-76 -185h-57l62 185h71z" />
    <glyph glyph-name="tbar.sc" horiz-adv-x="438" 
d="M66 315v45h117v109h-171v62h414v-62h-173v-109h119v-45h-119v-315h-70v315h-117z" />
    <glyph glyph-name="thorn.sc" horiz-adv-x="491" 
d="M91 0v531h70v-105h96q189 0 189 -144q0 -71 -49.5 -110.5t-143.5 -39.5h-92v-132h-70zM161 364v-171h87q127 0 127 89q0 42 -29 62t-97 20h-88z" />
    <glyph glyph-name="ugrave.sc" horiz-adv-x="572" 
d="M286 -12q-101 0 -152.5 61.5t-51.5 149.5v332h70v-327q0 -65 32 -108.5t102 -43.5t102 44t32 108v327h70v-332q0 -88 -52 -149.5t-152 -61.5zM271 594l-132 144h91l100 -144h-59z" />
    <glyph glyph-name="uacute.sc" horiz-adv-x="572" 
d="M286 -12q-101 0 -152.5 61.5t-51.5 149.5v332h70v-327q0 -65 32 -108.5t102 -43.5t102 44t32 108v327h70v-332q0 -88 -52 -149.5t-152 -61.5zM435 738l-132 -144h-59l100 144h91z" />
    <glyph glyph-name="ucircumflex.sc" horiz-adv-x="572" 
d="M286 -12q-101 0 -152.5 61.5t-51.5 149.5v332h70v-327q0 -65 32 -108.5t102 -43.5t102 44t32 108v327h70v-332q0 -88 -52 -149.5t-152 -61.5zM328 738l109 -144h-66l-83 108l-83 -108h-66l109 144h80z" />
    <glyph glyph-name="utilde.sc" horiz-adv-x="572" 
d="M286 -12q-101 0 -152.5 61.5t-51.5 149.5v332h70v-327q0 -65 32 -108.5t102 -43.5t102 44t32 108v327h70v-332q0 -88 -52 -149.5t-152 -61.5zM169 611h-43q18 104 92 104q27 0 73 -23q50 -23 67 -23q37 0 49 50h43q-18 -104 -92 -104q-29 0 -73 23t-67 23q-37 0 -49 -50z
" />
    <glyph glyph-name="udieresis.sc" horiz-adv-x="572" 
d="M286 -12q-101 0 -152.5 61.5t-51.5 149.5v332h70v-327q0 -65 32 -108.5t102 -43.5t102 44t32 108v327h70v-332q0 -88 -52 -149.5t-152 -61.5zM141 677q0 20 14.5 35.5t36.5 15.5t36.5 -15.5t14.5 -35.5t-14.5 -35.5t-36.5 -15.5t-36.5 15.5t-14.5 35.5zM333 677
q0 20 14.5 35.5t36.5 15.5t36.5 -15.5t14.5 -35.5t-14.5 -35.5t-36.5 -15.5t-36.5 15.5t-14.5 35.5z" />
    <glyph glyph-name="umacron.sc" horiz-adv-x="572" 
d="M286 -12q-101 0 -152.5 61.5t-51.5 149.5v332h70v-327q0 -65 32 -108.5t102 -43.5t102 44t32 108v327h70v-332q0 -88 -52 -149.5t-152 -61.5zM423 684v-54h-270v54h270z" />
    <glyph glyph-name="ubreve.sc" horiz-adv-x="572" 
d="M286 -12q-101 0 -152.5 61.5t-51.5 149.5v332h70v-327q0 -65 32 -108.5t102 -43.5t102 44t32 108v327h70v-332q0 -88 -52 -149.5t-152 -61.5zM391 738h44q-4 -61 -44.5 -96.5t-102.5 -35.5t-102.5 35.5t-44.5 96.5h44q6 -38 35 -58t68 -20t68 20t35 58z" />
    <glyph glyph-name="uring.sc" horiz-adv-x="572" 
d="M286 -12q-101 0 -152.5 61.5t-51.5 149.5v332h70v-327q0 -65 32 -108.5t102 -43.5t102 44t32 108v327h70v-332q0 -88 -52 -149.5t-152 -61.5zM382 680q0 -40 -28.5 -67.5t-67.5 -27.5t-67.5 27.5t-28.5 67.5t28.5 67.5t67.5 27.5t67.5 -27.5t28.5 -67.5zM346 680
q0 25 -17.5 42t-42.5 17t-42.5 -17t-17.5 -42t17.5 -42t42.5 -17t42.5 17t17.5 42z" />
    <glyph glyph-name="uhungarumlaut.sc" horiz-adv-x="572" 
d="M286 -12q-101 0 -152.5 61.5t-51.5 149.5v332h70v-327q0 -65 32 -108.5t102 -43.5t102 44t32 108v327h70v-332q0 -88 -52 -149.5t-152 -61.5zM355 738l-133 -144h-59l101 144h91zM525 738l-132 -144h-59l100 144h91z" />
    <glyph glyph-name="uogonek.sc" horiz-adv-x="572" 
d="M363 -147l19 -40q-38 -36 -90 -36q-36 0 -63 24t-27 61q0 62 74 126q-96 4 -145 64.5t-49 146.5v332h70v-327q0 -65 32 -108.5t102 -43.5t102 44t32 108v327h70v-332q0 -77 -40.5 -135.5t-119.5 -71.5q-36 -38 -52 -62.5t-16 -50.5q0 -21 14.5 -34.5t35.5 -13.5
q31 0 51 22z" />
    <glyph glyph-name="wacute.sc" horiz-adv-x="766" 
d="M97 531l120 -429h2l125 429h79l125 -429h2l119 429h75l-156 -531h-75l-129 432h-1l-131 -432h-74l-156 531h75zM543 738l-132 -144h-59l100 144h91z" />
    <glyph glyph-name="wcircumflex.sc" horiz-adv-x="766" 
d="M97 531l120 -429h2l125 429h79l125 -429h2l119 429h75l-156 -531h-75l-129 432h-1l-131 -432h-74l-156 531h75zM424 738l109 -144h-66l-83 108l-83 -108h-66l109 144h80z" />
    <glyph glyph-name="wdieresis.sc" horiz-adv-x="766" 
d="M97 531l120 -429h2l125 429h79l125 -429h2l119 429h75l-156 -531h-75l-129 432h-1l-131 -432h-74l-156 531h75zM236 677q0 20 14.5 35.5t36.5 15.5t36.5 -15.5t14.5 -35.5t-14.5 -35.5t-36.5 -15.5t-36.5 15.5t-14.5 35.5zM428 677q0 20 14.5 35.5t36.5 15.5t36.5 -15.5
t14.5 -35.5t-14.5 -35.5t-36.5 -15.5t-36.5 15.5t-14.5 35.5z" />
    <glyph glyph-name="wgrave.sc" horiz-adv-x="766" 
d="M97 531l120 -429h2l125 429h79l125 -429h2l119 429h75l-156 -531h-75l-129 432h-1l-131 -432h-74l-156 531h75zM356 594l-132 144h91l100 -144h-59z" />
    <glyph glyph-name="yacute.sc" horiz-adv-x="468" 
d="M268 230v-230h-70v230l-198 301h84l150 -243l150 243h84zM371 738l-132 -144h-59l100 144h91z" />
    <glyph glyph-name="ycircumflex.sc" horiz-adv-x="468" 
d="M268 230v-230h-70v230l-198 301h84l150 -243l150 243h84zM274 738l109 -144h-66l-83 108l-83 -108h-66l109 144h80z" />
    <glyph glyph-name="ydieresis.sc" horiz-adv-x="468" 
d="M268 230v-230h-70v230l-198 301h84l150 -243l150 243h84zM88 677q0 20 14.5 35.5t36.5 15.5t36.5 -15.5t14.5 -35.5t-14.5 -35.5t-36.5 -15.5t-36.5 15.5t-14.5 35.5zM280 677q0 20 14.5 35.5t36.5 15.5t36.5 -15.5t14.5 -35.5t-14.5 -35.5t-36.5 -15.5t-36.5 15.5
t-14.5 35.5z" />
    <glyph glyph-name="ygrave.sc" horiz-adv-x="468" 
d="M268 230v-230h-70v230l-198 301h84l150 -243l150 243h84zM226 594l-132 144h91l100 -144h-59z" />
    <glyph glyph-name="zacute.sc" horiz-adv-x="498" 
d="M440 531v-60l-301 -408h306v-63h-392v61l300 408h-294v62h381zM369 738l-132 -144h-59l100 144h91z" />
    <glyph glyph-name="zcaron.sc" horiz-adv-x="498" 
d="M440 531v-60l-301 -408h306v-63h-392v61l300 408h-294v62h381zM403 738l-109 -144h-80l-109 144h66l83 -108l83 108h66z" />
    <glyph glyph-name="zdotaccent.sc" horiz-adv-x="498" 
d="M440 531v-60l-301 -408h306v-63h-392v61l300 408h-294v62h381zM296 678q0 -20 -14.5 -34t-33.5 -14t-33.5 14t-14.5 34t14.5 34t33.5 14t33.5 -14t14.5 -34z" />
    <glyph glyph-name="ij.sc" horiz-adv-x="642" 
d="M160 531v-531h-70v531h70zM263 100l66 19q7 -30 27.5 -48.5t51.5 -18.5q82 0 82 114v365h70v-368q0 -31 -6 -58.5t-21 -55.5t-46 -44.5t-75 -16.5q-58 0 -97.5 31t-51.5 81z" />
    <glyph glyph-name="germandbls.sc" horiz-adv-x="901" 
d="M392 481l-50 -48q-37 50 -105 50q-42 0 -73.5 -22t-31.5 -64q0 -22 7.5 -37t26 -26t32 -16.5t43.5 -14.5q31 -10 45.5 -15t40 -18.5t38 -27.5t23 -38t10.5 -55q0 -78 -53 -119.5t-129 -41.5q-51 0 -98 20.5t-75 57.5l56 47q18 -29 49.5 -46.5t68.5 -17.5q43 0 76.5 24
t33.5 69q0 23 -8.5 39.5t-27.5 27.5t-35.5 17.5t-45.5 15.5q-7 2 -10 3q-65 20 -102 52t-37 97q0 73 53.5 111t126.5 38q97 0 151 -62zM840 481l-50 -48q-37 50 -105 50q-42 0 -73.5 -22t-31.5 -64q0 -22 7.5 -37t26 -26t32 -16.5t43.5 -14.5q31 -10 45.5 -15t40 -18.5
t38 -27.5t23 -38t10.5 -55q0 -78 -53 -119.5t-129 -41.5q-51 0 -98 20.5t-75 57.5l56 47q18 -29 49.5 -46.5t68.5 -17.5q43 0 76.5 24t33.5 69q0 23 -8.5 39.5t-27.5 27.5t-35.5 17.5t-45.5 15.5q-7 2 -10 3q-65 20 -102 52t-37 97q0 73 53.5 111t126.5 38q97 0 151 -62z
" />
    </font>
</defs>
</svg>
